/* XPM */
static char * 1_xpm[] = {
"64 64 666 2",
"  	c #839097",
". 	c #84969F",
"+ 	c #879BA3",
"@ 	c #8C9FA9",
"# 	c #8A9FA7",
"$ 	c #889CA5",
"% 	c #879CA4",
"& 	c #869BA3",
"* 	c #889DA5",
"= 	c #80929A",
"- 	c #63676F",
"; 	c #78848C",
"> 	c #8799A2",
", 	c #869BA2",
"' 	c #8BA0A8",
") 	c #889CA4",
"! 	c #869AA2",
"~ 	c #7C8B94",
"{ 	c #6A7179",
"] 	c #7E9097",
"^ 	c #8599A0",
"/ 	c #8A9FA8",
"( 	c #899DA7",
"_ 	c #899DA6",
": 	c #8698A2",
"< 	c #798890",
"[ 	c #696F78",
"} 	c #80929B",
"| 	c #85989F",
"1 	c #8B9FA8",
"2 	c #899EA7",
"3 	c #84969E",
"4 	c #707B82",
"5 	c #666B74",
"6 	c #8597A0",
"7 	c #8599A1",
"8 	c #899CA5",
"9 	c #83959D",
"0 	c #91999E",
"a 	c #869AA1",
"b 	c #7E969E",
"c 	c #8299A3",
"d 	c #96B5C0",
"e 	c #93B2BC",
"f 	c #87A1AA",
"g 	c #839DA5",
"h 	c #7F97A0",
"i 	c #86A0AA",
"j 	c #8BA8B1",
"k 	c #8099A1",
"l 	c #6D7F87",
"m 	c #535963",
"n 	c #72848F",
"o 	c #778B93",
"p 	c #7F98A0",
"q 	c #98B8C3",
"r 	c #92B1BB",
"s 	c #86A0A9",
"t 	c #849DA7",
"u 	c #8098A0",
"v 	c #8CA8B3",
"w 	c #839CA5",
"x 	c #6E7F88",
"y 	c #5D6771",
"z 	c #7E959E",
"A 	c #778C93",
"B 	c #88A3AD",
"C 	c #97B7C1",
"D 	c #8EABB5",
"E 	c #849EA8",
"F 	c #829BA5",
"G 	c #8098A1",
"H 	c #88A3AC",
"I 	c #8DA9B3",
"J 	c #778C95",
"K 	c #697880",
"L 	c #606B75",
"M 	c #829BA4",
"N 	c #72878D",
"O 	c #97B6C1",
"P 	c #85A0A8",
"Q 	c #839DA6",
"R 	c #8199A2",
"S 	c #87A3AC",
"T 	c #778D94",
"U 	c #5F6B73",
"V 	c #5A646E",
"W 	c #849EA7",
"X 	c #788D95",
"Y 	c #8FABB6",
"Z 	c #98B8C2",
"` 	c #8AA5AE",
" .	c #869FA8",
"..	c #819AA1",
"+.	c #8AA6B0",
"@.	c #73858F",
"#.	c #899197",
"$.	c #8199A3",
"%.	c #95B4BE",
"&.	c #829AA4",
"*.	c #7E969D",
"=.	c #7C929B",
"-.	c #94B4BE",
";.	c #819AA3",
">.	c #68777F",
",.	c #748690",
"'.	c #7D949C",
").	c #88A2AC",
"!.	c #90AEB8",
"~.	c #7D959D",
"{.	c #788D96",
"].	c #95B4BF",
"^.	c #67767E",
"/.	c #5B646F",
"(.	c #7A9198",
"_.	c #819AA2",
":.	c #7D959C",
"<.	c #798E96",
"[.	c #8FADB7",
"}.	c #96B5C1",
"|.	c #768B93",
"1.	c #637179",
"2.	c #5F6973",
"3.	c #798F97",
"4.	c #8FADB6",
"5.	c #778C94",
"6.	c #5C666E",
"7.	c #5A646D",
"8.	c #859FA8",
"9.	c #93B1BC",
"0.	c #8BA6B1",
"a.	c #7C929A",
"b.	c #92B1BA",
"c.	c #70828B",
"d.	c #878E93",
"e.	c #95B5BF",
"f.	c #7E949E",
"g.	c #798E97",
"h.	c #7B929B",
"i.	c #87A2AC",
"j.	c #97B7C2",
"k.	c #99B9C4",
"l.	c #7A9099",
"m.	c #555B65",
"n.	c #7D949D",
"o.	c #7C939C",
"p.	c #8BA7B0",
"q.	c #96B6C0",
"r.	c #97B6C0",
"s.	c #87A2AB",
"t.	c #72858E",
"u.	c #5D6772",
"v.	c #89A3AD",
"w.	c #96B6C1",
"x.	c #92B0B9",
"y.	c #8097A0",
"z.	c #8BA7B1",
"A.	c #99BAC5",
"B.	c #71838C",
"C.	c #626D78",
"D.	c #8DA9B4",
"E.	c #91B0B9",
"F.	c #7E949D",
"G.	c #8198A1",
"H.	c #9ABBC6",
"I.	c #92B0BA",
"J.	c #637078",
"K.	c #5D6A73",
"L.	c #8BA6B0",
"M.	c #7B919A",
"N.	c #9BBDC8",
"O.	c #91AFB9",
"P.	c #8098A2",
"Q.	c #8B949B",
"R.	c #768B92",
"S.	c #8AA6AF",
"T.	c #98B9C4",
"U.	c #71848B",
"V.	c #7C919C",
"W.	c #819BA2",
"X.	c #7F969F",
"Y.	c #9BBCC7",
"Z.	c #95B5C0",
"`.	c #86A1AA",
" +	c #6B7B83",
".+	c #5D6872",
"++	c #8AA7B1",
"@+	c #8EACB5",
"#+	c #99BAC4",
"$+	c #92B0BB",
"%+	c #85A0A9",
"&+	c #7B9099",
"*+	c #6B7A82",
"=+	c #616D76",
"-+	c #8DAAB4",
";+	c #788D94",
">+	c #9BBBC7",
",+	c #5E6A74",
"'+	c #8AA7B0",
")+	c #94B3BD",
"!+	c #9BBCC8",
"~+	c #768A93",
"{+	c #889095",
"]+	c #8AA5AF",
"^+	c #778B94",
"/+	c #89A5AE",
"(+	c #72858D",
"_+	c #839CA6",
":+	c #8CA8B1",
"<+	c #7D969D",
"[+	c #768A92",
"}+	c #6E8088",
"|+	c #616D77",
"1+	c #8099A0",
"2+	c #64727B",
"3+	c #5C6771",
"4+	c #7C919A",
"5+	c #829CA5",
"6+	c #8EACB6",
"7+	c #99B9C3",
"8+	c #8B9499",
"9+	c #7E959F",
"0+	c #829CA4",
"a+	c #86A0AB",
"b+	c #575F69",
"c+	c #97B8C3",
"d+	c #7F97A1",
"e+	c #616C76",
"f+	c #8FACB6",
"g+	c #829AA3",
"h+	c #7B919B",
"i+	c #626E78",
"j+	c #8097A1",
"k+	c #6F8089",
"l+	c #89A3AE",
"m+	c #8EAAB4",
"n+	c #7A9098",
"o+	c #849FA7",
"p+	c #93A0A5",
"q+	c #7D949E",
"r+	c #8CA9B2",
"s+	c #748691",
"t+	c #7D939C",
"u+	c #7B9199",
"v+	c #88A4AD",
"w+	c #8CA7B2",
"x+	c #5F6A73",
"y+	c #8CA8B2",
"z+	c #9ABAC5",
"A+	c #7E96A0",
"B+	c #859EA7",
"C+	c #8CA9B3",
"D+	c #70828A",
"E+	c #5F6A74",
"F+	c #7A8F98",
"G+	c #859EA8",
"H+	c #92A0A5",
"I+	c #7A9199",
"J+	c #545B65",
"K+	c #758892",
"L+	c #73868E",
"M+	c #5C6670",
"N+	c #8099A2",
"O+	c #B63BFF",
"P+	c #71848C",
"Q+	c #869FA9",
"R+	c #93B1BB",
"S+	c #91AEB8",
"T+	c #8A9399",
"U+	c #545A64",
"V+	c #788C95",
"W+	c #8CA7B0",
"X+	c #89A3AC",
"Y+	c #5D6A71",
"Z+	c #5B6670",
"`+	c #88A2AB",
" @	c #758891",
".@	c #878F94",
"+@	c #89A4AE",
"@@	c #6C7C84",
"#@	c #616E76",
"$@	c #758992",
"%@	c #65737B",
"&@	c #586169",
"*@	c #5B6570",
"=@	c #89A4AD",
"-@	c #8AA6AE",
";@	c #91AFB8",
">@	c #849DA6",
",@	c #758991",
"'@	c #64727A",
")@	c #858C90",
"!@	c #687880",
"~@	c #7C939D",
"{@	c #7B909A",
"]@	c #545D64",
"^@	c #505560",
"/@	c #6D7D87",
"(@	c #66777D",
"_@	c #687980",
":@	c #798D97",
"<@	c #411AB2",
"[@	c #7C929C",
"}@	c #89A5AF",
"|@	c #849FA9",
"1@	c #799097",
"2@	c #6C7D85",
"3@	c #5B666E",
"4@	c #778D95",
"5@	c #627077",
"6@	c #72848C",
"7@	c #7D939D",
"8@	c #6B7C84",
"9@	c #59626A",
"0@	c #808489",
"a@	c #656A72",
"b@	c #555C66",
"c@	c #525862",
"d@	c #50555F",
"e@	c #4F555F",
"f@	c #593A72",
"g@	c #565D68",
"h@	c #4E545E",
"i@	c #4F535E",
"j@	c #535863",
"k@	c #555B66",
"l@	c #535A64",
"m@	c #7E8287",
"n@	c #758890",
"o@	c #697881",
"p@	c #6B7982",
"q@	c #7C919B",
"r@	c #72858C",
"s@	c #748791",
"t@	c #6F7F89",
"u@	c #5E6A71",
"v@	c #606B73",
"w@	c #94A2A8",
"x@	c #8AA0A8",
"y@	c #8BA7B2",
"z@	c #5A636D",
"A@	c #7B8E98",
"B@	c #6C7D83",
"C@	c #90ADB7",
"D@	c #91AFBA",
"E@	c #98B7C2",
"F@	c #5D676F",
"G@	c #6C7B84",
"H@	c #71858C",
"I@	c #90ACB6",
"J@	c #9EB1B8",
"K@	c #81939A",
"L@	c #8BA8B2",
"M@	c #5A636E",
"N@	c #7D909B",
"O@	c #90ADB8",
"P@	c #7F979F",
"Q@	c #788E95",
"R@	c #93B2BD",
"S@	c #6C7F85",
"T@	c #5E6970",
"U@	c #6E7C86",
"V@	c #859FA9",
"W@	c #99AAB0",
"X@	c #8398A3",
"Y@	c #9AB9C4",
"Z@	c #90AEB7",
"`@	c #647279",
" #	c #71818B",
".#	c #95A4AA",
"+#	c #94ADB6",
"@#	c #5C656F",
"##	c #8196A1",
"$#	c #626F77",
"%#	c #788E97",
"&#	c #95A3A9",
"*#	c #A1BFC9",
"=#	c #748890",
"-#	c #7F939D",
";#	c #7F96A0",
">#	c #6F7E88",
",#	c #7E979F",
"'#	c #9CAFB6",
")#	c #9DBAC4",
"!#	c #829BA3",
"~#	c #616D74",
"{#	c #7E929D",
"]#	c #6F7F88",
"^#	c #8BA5AF",
"/#	c #798F98",
"(#	c #A7BDC5",
"_#	c #8DA6AD",
":#	c #839DA4",
"<#	c #5E6972",
"[#	c #7D919C",
"}#	c #8EAAB5",
"|#	c #6D7D85",
"1#	c #6E7D87",
"2#	c #86A0A8",
"3#	c #AEC7D1",
"4#	c #869CA2",
"5#	c #7E939D",
"6#	c #8CA7B1",
"7#	c #66737C",
"8#	c #A5BAC2",
"9#	c #809399",
"0#	c #5B636E",
"a#	c #80949F",
"b#	c #636F78",
"c#	c #6F7F8A",
"d#	c #9BADB4",
"e#	c #84989F",
"f#	c #7C939B",
"g#	c #6B7C83",
"h#	c #606D73",
"i#	c #59626C",
"j#	c #7C909A",
"k#	c #74878F",
"l#	c #627076",
"m#	c #5E6B72",
"n#	c #7E979E",
"o#	c #87A2AA",
"p#	c #95A3AA",
"q#	c #82949D",
"r#	c #626E76",
"s#	c #565F66",
"t#	c #545C65",
"u#	c #5F6C74",
"v#	c #67757D",
"w#	c #566066",
"x#	c #64717A",
"y#	c #606C74",
"z#	c #71838B",
"A#	c #6C7C85",
"B#	c #8D979E",
"C#	c #676E76",
"D#	c #555E67",
"E#	c #5C6671",
"F#	c #58626C",
"G#	c #565E68",
"H#	c #5B656F",
"I#	c #59636C",
"J#	c #575F6A",
"K#	c #59636D",
"L#	c #59646D",
"M#	c #78858C",
"N#	c #6C7D84",
"O#	c #7C949B",
"P#	c #839DA7",
"Q#	c #798E98",
"R#	c #8C969B",
"S#	c #7E8F96",
"T#	c #66757C",
"U#	c #6A7A82",
"V#	c #858D91",
"W#	c #81949C",
"X#	c #758B92",
"Y#	c #96B5BF",
"Z#	c #899297",
"`#	c #899398",
" $	c #82949B",
".$	c #7E959D",
"+$	c #778B95",
"@$	c #8C969D",
"#$	c #7F9198",
"$$	c #6F8389",
"%$	c #88A4AE",
"&$	c #93A1A7",
"*$	c #73878F",
"=$	c #8EA9B3",
"-$	c #919EA3",
";$	c #83949D",
">$	c #7D959E",
",$	c #81939C",
"'$	c #6E7F87",
")$	c #758A91",
"!$	c #8FACB7",
"~$	c #5E6B70",
"{$	c #82878B",
"]$	c #7E8F95",
"^$	c #6F8088",
"/$	c #6D7E86",
"($	c #7A8F99",
"_$	c #788E96",
":$	c #748891",
"<$	c #83888E",
"[$	c #839BA5",
"}$	c #6B7E84",
"|$	c #868E93",
"1$	c #93B3BD",
"2$	c #889096",
"3$	c #93B0BA",
"4$	c #8EABB4",
"5$	c #94B3BC",
"6$	c #8AA4AE",
"7$	c #99B9C5",
"8$	c #919EA4",
"9$	c #94B2BC",
"0$	c #87A1AB",
"a$	c #8DABB4",
"b$	c #6E8087",
"c$	c #5D6970",
"d$	c #5B6770",
"e$	c #8598A1",
"f$	c #859FA7",
"g$	c #7B939A",
"h$	c #66757D",
"i$	c #5C686F",
"j$	c #525762",
"k$	c #72848E",
"l$	c #758A92",
"m$	c #616E75",
"n$	c #565F67",
"o$	c #5F6C73",
"p$	c #83888C",
"q$	c #7B8993",
"r$	c #64737A",
"s$	c #5F6D72",
"t$	c #555E64",
"u$	c #68767F",
"v$	c #66747C",
"w$	c #5A656C",
"x$	c #515661",
"y$	c #565E67",
"z$	c #748790",
"A$	c #606E74",
"B$	c #70838A",
"C$	c #708289",
"D$	c #6B7B84",
"E$	c #6D7C85",
"F$	c #7F8388",
"G$	c #6D767E",
"H$	c #5E6A73",
"I$	c #515660",
"J$	c #606A74",
"K$	c #5E6973",
"L$	c #83898F",
"M$	c #8DA4AC",
"N$	c #819AA4",
"O$	c #66727D",
"P$	c #67757E",
"Q$	c #9EB0B7",
"R$	c #59616C",
"S$	c #7A8D97",
"T$	c #65747B",
"U$	c #59656B",
"V$	c #5A616C",
"W$	c #768C94",
"X$	c #687A80",
"Y$	c #8BA6AF",
"Z$	c #58606A",
"`$	c #6C7A83",
" %	c #9BACB3",
".%	c #81949B",
"+%	c #839CA4",
"@%	c #99B8C4",
"#%	c #58616A",
"$%	c #616C75",
"%%	c #819BA3",
"&%	c #72868E",
"*%	c #606D75",
"=%	c #8BA2A9",
"-%	c #73868F",
";%	c #99B8C3",
">%	c #9BBBC6",
",%	c #63707A",
"'%	c #94B3BF",
")%	c #97B7C3",
"!%	c #96B2BA",
"~%	c #8095A0",
"{%	c #6A7982",
"]%	c #5B646E",
"^%	c #93B0BB",
"/%	c #636F79",
"(%	c #70818A",
"_%	c #96A5AB",
":%	c #A3C1CC",
"<%	c #606974",
"[%	c #71828C",
"}%	c #59626B",
"|%	c #9ABAC6",
"1%	c #788C94",
"2%	c #687680",
"3%	c #7F959F",
"4%	c #6F7E87",
"5%	c #9FB3BA",
"6%	c #9AB6C0",
"7%	c #87A0AA",
"8%	c #616B75",
"9%	c #7A8E98",
"0%	c #7E969F",
"a%	c #616C77",
"b%	c #AAC2CA",
"c%	c #8CA3AC",
"d%	c #5E6872",
"e%	c #59616B",
"f%	c #8BA7AF",
"g%	c #ACC5CD",
"h%	c #8598A0",
"i%	c #7F939E",
"j%	c #8FACB5",
"k%	c #6C7D86",
"l%	c #58616B",
"m%	c #8FABB5",
"n%	c #6F8189",
"o%	c #7B929A",
"p%	c #626E77",
"q%	c #647179",
"r%	c #6E7E89",
"s%	c #97B6C2",
"t%	c #A2B6BD",
"u%	c #81949A",
"v%	c #80959F",
"w%	c #67767D",
"x%	c #74888F",
"y%	c #8DA8B2",
"z%	c #8198A2",
"A%	c #6F8188",
"B%	c #94B3BE",
"C%	c #9AAAB1",
"D%	c #5B666D",
"E%	c #585F6A",
"F%	c #798C96",
"G%	c #86A1AB",
"H%	c #5A656B",
"I%	c #768B94",
"J%	c #627177",
"K%	c #5C676F",
"L%	c #586168",
"M%	c #5D696F",
"N%	c #5A646A",
"O%	c #6B7A84",
"P%	c #93A0A6",
"Q%	c #78868E",
"R%	c #535862",
"S%	c #64707A",
"T%	c #66737D",
"U%	c #67747F",
"V%	c #616D75",
"W%	c #4E535D",
"X%	c #697981",
"Y%	c #606B74",
"Z%	c #576066",
"`%	c #637079",
" &	c #6C7B85",
".&	c #66747D",
"+&	c #617076",
"@&	c #5F6C72",
"#&	c #50565F",
"$&	c #5C676E",
"%&	c #5A666C",
"&&	c #838589",
"*&	c #797A7F",
"=&	c #7C7D83",
"-&	c #7B7C82",
";&	c #7B7B81",
">&	c #7C7E83",
",&	c #7D7F85",
"'&	c #7B7D83",
")&	c #7A7A7F",
"!&	c #7C7E84",
"~&	c #7A7A80",
"{&	c #7D7E84",
"]&	c #7A7B80",
"^&	c #7C7F84",
"/&	c #97979B",
"  . + @ # $ % & % * + = - ; > , ' # ) % & % * ! ~ { ] ^ ) / ( % % & % _ : < [ } | % 1 2 % % + % * 3 4 5 6 7 _ ' * $ 8 + * * 9 0 ",
"a b c d e f g h i j k l m n o p q r s t u i v w x y z A B C D E F G H I J K L M N s O D P Q R S I T U V W X Y Z `  .k ..+.+.@.#.",
"+ $.B %.&.*.X =.+.-.;.>.m ,.'.).!.w ~.{.h +.].Q ^./.z (.!.!._.:.<.G [.}.|.1.2.W (.I +.k ~.3.M 4.].5.6.7.8.z 9.0.u a.3.w e b.c.d.",
"# e.%.Q f.g.h.i.j.k.H l.m.l.q O _.n.X o.p.q.r.s.t.u.v.w.x.;.:.5.y.z.A.}.Q B.C.D.j.E.k F.<.G.4.H.I.;.J.K.%.O L.u M.X w [.N.O.P.Q.",
"# e &.f.R.h.S.T.j.S.*.U.m.V.O.W.~.X X.p.Y.Z.`.'. +.+++O._.:.5.u @+#+$+%+&+*+=+-++.k M.;+M Y >+$+E 3.U ,+d '+u M.X g )+!+D t ~+{+",
"$ f *.g.h.s.O k.]+G <.~+m.^+t ~.X o.z.q.Z./+*.X (+.+_+R :.<.G :+#+].`.<+[+}+|+H 1+:.<.R [.j.$+8.=.[+2+3+z.G 4+g.5+6+7+$+t =.|.8+",
"% g X h.S.O Z./+9+<.0+a+b+~+y.X X.S.c+e.`.*.<._.d+e+F ~.5.G f+q $+%+=.g.g+h+i+f =.<.M [.>+$+E =.3.j+k+.+l+=.g.w 9.q m+t g.n+o+p+",
"& h =.s.j.k./+u 5.q+-+r+b+s+t+u++.q.e.v+b <.$.w+P.x+h 3.j+y+z+O %+:.X &.f+A+C.t X R [.k.$+8.=.X B+C+D+E+s F+w [.Y.$+t a.<.G+D H+",
"% i +.j.j.]+9+5.G C+I I+J+K+Q '+z+d `.b 5.R !.C+L+M+N+O+O+O+O+O+O+O+O+O+O+P+e+Q+g [.>+$+E =.g.t R+s.2+3+).t )+!+D t g.<.` S+M T+",
"* j -.k.]+G <.q+C+-+f.D+U+V+z.)+e./+*.<.R y+W+t+O+O+O+O+O+O+O+O+O+O+O+O+O+O+O+O+'+d $+8.=.3.t D X+n+Y+Z+y+I q $+t =.n+B+S+`+ @.@",
"+ k ;.+@9+<.0+-+I f.@@#@m $@z _+8.*.<.$.!.O+O+O+O+O+O+O+O+O+O+O+O+O+O+O+O+O+O+O+O+O+O+=.3.t !.+@^+%@&@*@i.n.=@Q g.n+-@;@>@,@'@)@",
"= l !@~@P+~+a+r+{@D+#@]@^@/@(@_@:@L+g.i O+O+O+O+<@<@O+O+O+O+O+O+O+O+O+O+O+O+O+<@O+O+O+<@[@}@|@1@2@3@^@b+4@5@^+^+6@7@z.W t.8@9@0@",
"a@J+m b@U+c@d@b@J+U+m c@e@m.m m m.U+O+O+O+O+<@<@f@O+O+O+O+O+O+O+O+O+O+O+O+O+O+O+<@<@<@<@<@<@g@J+U+c@h@i@b@j@J+m.k@l@c@b@U+U+m m@",
"= s+K+V+n@o@J+p@U.,.M.q@|.[+s+K+{.O+O+O+O+<@O+O+O+O+O+O+O+O+O+O+O+O+O+O+O+O+O+O+O+O+<@O+<@<@<@r@<.&+^+K+s+s@V+V+t@u@v@,.(+<.M.w@",
"x@t+>@y@'.'@z@A@B@n.k.C@M y.n.W O+O+O+O+O+O+O+O+O+O+O+O+O+O+O+O+<@<@O+O+O+O+O+O+O+O+O+<@O+<@<@f@D@E@f F =.X.p.r+^.F@G@P.H@I@e J@",
"K@o.L@Z.N+^.M@N@V+B O@_.~.<.G O+O+O+O+O+O+O+O+O+O+O+O+O+O+O+O+<@<@<@f@O+O+O+O+O+O+O+O+<@O+<@<@<@f@'+P@a.Q@W R@)+S@T@U@i G e V@W@",
"_ z.z+w.8.^+/.X@Y@Z@_.~.5.G <@O+O+O+O+O+O+O+O+O+O+O+O+O+O+<@<@<@<@f@O+O+O+O+O+O+O+O+O+O+O+<@<@<@f@f@{.3.%+e Z w+n.`@ #j.e.V@z .#",
"+#q.e.=@~.U.@###C@w :.<.G O+O+O+O+O+O+O+O+O+O+O+O+O+O+O+<@<@<@<@f@O+O+O+O+O+O+O+O+O+O+<@O+<@<@<@f@f@f@t R@q I _+~+$# #].`.b %#&#",
"*#e.`.~.A =#2.-#G :.<.G O+O+O+O+O+O+O+O+O+O+O+O+O+O+O+<@<@<@f@O+O+O+O+O+O+O+O+O+O+O+O+O+O+<@<@f@<@f@f@f@A.I ;#g.{.^.>#+.,#g.h+'#",
")#=@<+Q@!#P.~#{#f.<.G y+O+O+O+O+O+O+O+O+O+O+O+O+O+O+O+O+<@f@O+O+O+O+O+O+O+O+O+O+O+O+O+O+<@O+<@<@f@<@f@f@v _+g.M.G+]#]#^#/#n+B (#",
"_#*.Q@:#!.>@<#[#<.G [.O+O+O+O+O+O+O+O+O+O+O+O+O+O+O+O+O+O+O+O+O+O+O+O+O+O+O+O+O+O+O+O+O+O+<@<@<@f@<@f@f@f@g.o.]+}#|#1#2#[@`.E@3#",
"4#<.0+C+y+{.@#5#!#6#O+O+O+O+O+O+O+O+O+O+O+O+O+O+O+O+O+O+O+O+O+O+O+O+O+<@O+O+O+O+O+O+O+O+O+<@<@<@<@f@f@f@f@f@v+!.;.7#1#]++@R@Z 8#",
"9#X.m+y+u+8@0#a#S.].O+O+O+O+O+O+O+O+O+O+O+O+O+O+O+O+O+O+O+O+O+O+O+O+<@<@<@O+O+O+O+O+O+O+O+O+<@<@f@<@f@f@f@f@@+g H@b#c#f+9.C S.d#",
"e#P@i.f#g#h#i#j#3.F O+<@O+O+O+O+O+O+<@O+O+O+O+O+O+O+O+O+O+O+O+O+O+<@<@<@<@<@O+O+O+O+O+O+O+<@<@<@<@<@f@f@f@f@&.k#l#m#/@i.n#o#h p#",
"q#l }+K r#s#t#}+u#O+O+O+O+O+O+O+O+O+<@O+O+O+O+O+O+O+O+O+O+O+O+O+O+O+O+O+O+O+O+O+O+O+O+O+O+<@<@<@<@<@<@f@f@f@f@v#w#l@x# @y#z#A#B#",
"C#D#7.E#3+F#G#H#z@O+O+O+O+O+O+O+O+O+O+O+O+O+O+O+O+O+O+O+O+O+O+O+O+O+O+O+O+O+O+O+O+O+O+O+<@O+<@<@<@<@f@f@f@f@f@3+I#J#K#2.L#M+i#0@",
"M#N#O#v.]+_+F h N+O+O+O+O+O+O+O+O+O+<@O+O+O+O+O+O+O+O+<@<@O+O+O+O+O+O+O+O+O+O+O+O+O+O+O+O+<@<@<@<@<@<@f@f@f@f@6#E F h 9+P#t Q#R#",
"S#T#{.w.O.R f.g.O+O+O+O+O+O+O+O+O+O+O+O+O+O+O+O+O+O+<@O+O+O+O+O+O+O+O+O+O+O+O+O+O+O+O+O+O+<@<@<@<@<@<@f@f@f@f@f@8.;#=.u+=@=@U#V#",
"W#X#D I._.:.<.y.O+O+O+O+O+O+O+O+O+O+O+O+O+O+O+O+O+O+<@O+O+O+O+O+O+O+O+O+O+O+O+O+O+O+O+O+<@<@<@<@<@<@f@f@f@f@f@f@b g.M.`.C Y#{.Z#",
"6 V@-+$.:.<.G :+O+O+O+O+O+O+O+O+O+O+O+O+O+O+O+O+O+O+O+O+O+O+O+O+O+<@<@O+O+O+O+O+O+O+O+<@O+<@<@<@<@<@f@f@f@f@f@f@%#F+`.e #+I ~.`#",
" $=..$'.5.G [.z+O+O+O+O+O+O+O+O+O+O+O+O+O+O+O+O+O+O+O+O+O+O+<@<@<@<@<@<@O+O+O+O+O+O+O+<@<@<@<@<@<@f@<@f@f@f@f@f@M.i C #+p.N+ @{+",
"q#,@&++$G :+z+w.<@<@O+O+O+O+O+O+O+O+O+O+O+O+O+O+O+O+O+O+O+O+<@<@<@<@<@<@O+O+O+O+O+O+<@O+<@<@<@<@<@<@f@f@f@f@f@f@i R+E@-+F /#g.@$",
"#$$$[+y.f+7+$+%+<@<@O+O+O+O+O+O+O+O+O+<@O+O+O+O+O+O+O+O+O+<@<@<@<@<@<@<@O+O+O+O+O+<@O+<@<@<@<@<@<@<@f@f@f@f@f@f@C E@/+G |.7@%$&$",
"W#*$o.z.#+].`.~.<@<@O+O+O+O+O+O+O+O+<@<@<@O+O+O+O+O+O+O+O+<@<@<@<@<@<@<@O+O+O+O+O+<@O+<@<@<@<@<@<@<@f@f@f@f@f@f@#+=$N+/#o.v+L@-$",
";$X I A.$+`.=.X <@<@O+O+O+O+O+O+O+<@<@<@f@O+O+O+O+O+O+O+O+<@<@<@<@<@<@f@O+O+<@O+<@O+<@<@<@<@<@<@f@<@f@f@f@f@f@f@L.N+V+n.C+6+7@#.",
"= 3.9.w.s >$g.&.<@<@O+O+O+O+O+O+O+<@<@<@f@O+O+O+O+O+O+O+O+<@<@<@<@<@f@O+O+<@O+<@O+<@<@<@<@<@<@<@f@f@f@f@f@f@f@f@F /#n.+@O@g r@d.",
",$'$|.Q &+|.&.[.O+O+O+O+O+O+O+O+<@<@<@f@O+O+O+O+O+O+O+O+O+<@<@<@<@f@O+O+O+O+O+<@O+<@<@<@<@<@<@f@<@f@f@f@f@f@f@f@)$M.z.!$X.r@~${$",
"]$^$/$($L+_$G+Q+<.O+O+O+O+O+O+O+<@<@<@f@O+O+O+O+O+O+O+O+O+O+<@<@f@O+O+O+<@O+<@O+<@<@<@<@<@<@f@<@f@f@f@f@f@f@f@T :$X.i j+$@^$l#<$",
"#$n.;#]+p.E E ;.&.O+O+O+O+O+O+O+O+<@f@O+O+O+O+O+O+O+O+O+O+O+O+O+O+O+O+<@O+<@O+<@<@<@<@<@f@<@f@<@f@f@f@f@f@f@f@j V@G+Q j+E t F+R#",
"7 X ~.C e w G {@[$O+O+O+O+O+O+O+O+O+O+O+O+O+O+O+O+O+O+O+O+O+O+<@O+<@O+<@O+<@<@<@<@<@<@f@<@<@<@f@f@f@f@f@f@f@f@#+s.w t+o.=@/+}$|$",
"% s D $+W.:.<.y.-+w.O+O+O+O+O+O+O+O+O+O+O+O+O+O+O+O+O+O+O+O+<@O+<@O+<@O+<@<@<@<@<@<@<@<@f@<@f@f@f@f@f@f@f@f@1$`.X.g.M.i C ].|.2$",
"# q.O.;.:.<.y.z.k.e.O+O+O+O+O+O+O+O+O+O+O+O+O+O+O+O+O+<@O+O+O+<@O+<@O+<@<@<@<@<@<@<@f@<@f@<@f@f@f@f@f@f@f@f@s.b {.F+s 3$z+D ~.Z#",
"2 f+;.:.5.y.4$z+)+=@O+O+O+O+O+O+O+O+O+O+<@<@O+O+O+O+O+<@O+<@O+<@O+<@<@<@<@<@<@f@<@f@<@f@<@f@f@f@f@f@f@f@f@f@b {.3.i C z+'+N+ @{+",
"% E ~.<.y.'+q O `.9+3.O+<@O+O+O+<@O+<@O+<@<@<@O+<@O+<@O+<@O+<@O+O+<@<@<@<@<@f@<@f@<@f@<@f@f@f@f@f@f@f@f@f@;#{._$i e A.D N+/#g.@$",
"% g <.y.-+c+5$`.~.g.t S.O+<@O+<@O+<@O+<@O+<@O+<@O+<@O+<@O+<@<@<@<@<@<@<@f@<@f@<@f@<@f@f@f@f@f@f@f@f@f@f@6$/#M.i C z+'+N+V+n.+@&$",
"& G G z.7$e.v+z X R f++@<@<@<@<@<@<@O+<@O+<@O+<@O+<@O+<@<@<@<@<@<@<@<@<@<@<@<@f@<@<@f@f@f@f@f@f@f@f@f@f@G+l.i e z+D N+g.n.v+C+8$",
"% s.D 7$9$0$*.X g m+/+{.m.<@<@<@<@<@<@<@<@<@<@<@<@<@<@<@<@<@<@<@<@<@f@<@f@<@f@<@<@f@f@f@f@f@f@f@f@f@f@M+/+s.C z+'+N+5.M.I Z@X.T+",
"* y@].O `.9+g.g+4.a$O#b$U+V+f@<@f@<@<@<@<@<@<@<@<@<@<@<@<@<@<@<@f@<@f@<@f@<@f@f@f@f@f@f@f@f@f@f@f@f@c$d$-+f+k.D N+/#~@B O@g (+d.",
"e$u+F+f$O#V+&.f++@g$h$i$j$k$l$f@<@<@<@f@<@f@<@<@<@<@<@f@<@f@<@f@<@f@<@f@<@<@f@f@f@f@f@f@f@f@f@f@f@m$n$L#Q N _+u ~+M.z.!$9+r@o$p$",
"q$K r$t. +c.~@P.L+K s$t$d@u$x#v$f@<@f@<@f@<@f@<@f@<@f@<@<@<@f@<@f@<@f@f@f@f@f@f@f@f@f@f@f@f@f@f@>.w$x$y$z$A$B$C$D$$@R l.E$^.9@F$",
"G$.+M+H$M+I#I$z@.+M+3+M+H#J$.+M+K$f@f@f@f@f@f@<@f@<@f@<@f@<@f@<@f@f@f@f@f@f@f@f@f@f@f@f@f@f@f@<#<#3+H#K#K$M+K$.+2.g@G#K$M+<#M+L$",
"M$&._+Q+;.X#7.=#o.M +.+@_+_+&._+f N+f@f@f@f@f@f@f@f@f@f@f@f@f@f@f@f@f@f@f@f@f@f@f@f@f@f@f@f@~.>$0$L.G+5+N$F 8.s [@O$P$N+z 0$]+Q$",
"4#3.0+` 5.u@R$S$T$1@q.:+p =.3.Q f+5.U$G#f@f@f@f@f@f@f@f@f@f@f@f@f@f@f@f@f@f@f@f@f@f@f@f@V$y W$X$C@].$.>$V+o.Y$W+#@Z$`$O#S@-+O. %",
".%G D j.Q  +0#{#h z.:+u a.3.+%f+@%w %@#%H f@f@f@f@f@f@f@f@f@f@f@f@f@f@f@f@f@f@f@f@f@f@_$$%L %+%%9.0$*.g.h.s.q.%.&%*%1#/+8.O.w W@",
"=%@+#+e _+-%/.X@;%y+G M.<.+%e >%}#F l H#C@r.0$P@f@f@f@f@f@f@f@f@f@f@f@f@f@f@f@f@C q z.n.=+,%d '%&.*.5.h.]+O d ` I+J. #)%O.w :.w@",
"!%k.e 8.M.D+H#~%z.u M.X 0+f+>+e t &+{%]%4$r+P@u+Q@g e f@f@f@f@f@f@f@f@f@f@F+s ^%>+D N+~+r#/%O@i >$g.h.s.C k.` G ,@$#(%9.;.:.X _%",
":%9$E a.5.~+<%-#j+a.<.F $+>+[.t g.5.[%}%H Q _$Q@8.R+|%D _+n+n+*$3+_+b {.3.i C >%L.N+1%o 2%e+s.3%5.n+}@O Z S.b {.M.>.4%6$z X X.5%",
"6%7%=.X [$&.8%{#:.3.+%f+>%e t =.n+$.9%i#`+;#3.g R+q f+t 3.u+`.0%.+N$g.F+i R+Z =$N+/#n.W k+a%%+/#=.0$q.E@S.G X n.S z#>#B <.o.+.b%",
"c%=.g.t S+_.d%[#3.+%e >%D t g.n+` D ^+e%G+y.s e z+f+R g.o.v+D {.E#G M.s C q z.N+5.n.-+m+*+L w o.f%C d ` b X G -+z.2@1#i y.+.A.g%",
"h%X >@f+B :$/.i%_+j%H.e t =.n+G+O.i.k%l%H /+e >+m%W g.3./+!.g n%E#P#`.3$>+D N+g.o%=@C@;.p%e+H i.C k.S.G X n.r+;@t+q%r%z.z.O s%t%",
"u%_.[.l+,@U#M@v%y+d f+t g.n++@b.W ~+w%l%+.!.q D _+(.o./+I.E x%>.M+7%O.q S.N+1%o%I C@X.z#U |+y%S+O ]+3%{.z%C+I 9+A%r#c#f+B%d 0$C%",
"h%~.[${.%@D%E%F%$$M.$.F+~+G -+G%$@%@H%G#w ^+X.;.I%5.8.D M :$J%K%K#=.(+h z I%g.V@4$%%U.m#L%2.9+z#5+z ,@/#}@r+t+B$M%N%O%&.,@0+h.P%",
"Q%1.1.v@3@R%i@S%w$U T%=+K P+D+U%V%3@d@W%8@U '@>.b#X%-%D+'@Y%Z%R%I$v$H%`%1.l# &s+k%x#Y%Z%m k@.&z@>.q%q% &s@2@+&@&m #&$&8@%&>.l#.@",
"&&*&=&=&=&-&;&=&=&>&,&'&)&=&!&!&=&=&-&;&!&=&=&!&=&~&{&{&=&=&=&-&;&>&=&=&=&-&]&{&!&=&=&=&^&=&>&=&!&=&]&~&{&!&=&=&'&-&=&!&=&!&-&/&"};
