/* XPM */
static char *_c1f2e5b837844b3d954ecb96ca52a37Yf9sK5FR7KweyRL4[] = {
/* columns rows colors chars-per-pixel */
"64 64 16 1 ",
"  c black",
". c gray16",
"X c #29282E",
"o c #3C3C3C",
"O c #730D11",
"+ c #3C3A43",
"@ c gray34",
"# c #585858",
"$ c #565460",
"% c gray49",
"& c #A51319",
"* c #ED1C24",
"= c #7C798A",
"- c #B2B2B2",
"; c #B4B4B4",
": c white",
/* pixels */
"@@@%%%                                                    %%%@%%",
"@@@%%%                                                    %##%%%",
"@%@@@%  X+$$$$$$$$$$$$$$$$$$$$$$$$$$$$$$$$$$++$$$$$$$++X  ;%o%%%",
"@@@@;;  +$============================================$+  %%oo%%",
"@@%@%;  +==                                          ==$  ;%@o@%",
"@%%%%;  $== XX++++++++++++++++++++++++++++++++++++X+ ==$  ;;%@@%",
"%%%%;;  $== X+$$==================================$$ ==$  ;@@@@@",
"%%%%;;  $== +$$====================================$ ==$  ;%%%%%",
"%%@@;;  $== ++$====================================+ ==$  ;%%%%%",
"%%@%;;  -:: +==$===========::-======:==============$ ::-  %%%%%;",
"%%@%%;  -:: $==============:--======:==============$ ::-  %%%%%;",
"%@%@%%  -:: $============--===::==:::=============== ::%  %%%%%;",
"%@%%@%  -:: =============::===:-==:-:============*== ::%  %%%%%;",
"@@@%@%  -:: =============::===%-==---==============$ ::%  %%%%%;",
"%%%%%;  $== =============::===%-====:===========**$* ==$  ;%%%%%",
";%%%%;  $== =============::===::====:===========**+  ==$  ;%%%%%",
";%%%%;  $== =============::===::====:===========*$*  ==$  %%%%%%",
";%%%%;  $== =============:%===::====:==========*     ==$  %%%%%%",
";%%%%;  $== =============-:===::====-=========       ==$  %%%%%%",
";%%%%;  $== ===============-:-====:::-:====$   =$    ==$  %%%%%%",
";%%%%;  $== ===============:--====:-:::====  ====$   ==$  %%%%%%",
";%%%%;  $== ============================== ======$+  ==$  ;%%%%;",
";%%%%;  $== =============================  =====$==+ ==$  ;%%%%;",
";%%%%;  $== ===========================$ $========$$ ==$  ;%%%%%",
";%%%%;  $== ==========================  ===========$ ==$  ;%%%%%",
";%%%%;  $== =========================  $============ ==$  ;%%%%%",
";%%%%;  $== =======================$  $============= ==$  ;;%%%%",
"%@%%%;  $== =======================  &============== ==$  ;;%%%%",
"%%%%%;  $== =====================$  **============== ==$  ;;;%%%",
"@oo%%;  $== ===================$  **&*============== ==$  ;;;%%%",
"%@o%%;  $== ===================  *&*&=&============= ==$  ;;;;%%",
"%@o@%;  $== =================$  ==**&*&============= ==$  ;;;;%@",
"@oo@@%  $== ================  $=*==**=============== ==$  %%%%%@",
"@o@o##  $== ===============  ========&============== ==$  %%%@@@",
"@%@%;;  $== =============   =========&============== ==$  %@@@@@",
"@@@@;;  $== $==$========  ========================== ==$  %@@@@@",
"%@@%%;  $== *+&========  $========================== ==$  %@@@%%",
"@@@%%;  $== &&$=$====$  ============================ ==$  ;%@@%@",
"@@@%#%  $==  &*$$===  $======*=*==================== ==$  ;%@@%@",
"%@%%%%  $==   $+$$=  =========&===================== ==$  ;@o@@@",
"@@o#%;  $==         =========*&=*=================== ==$  ;;%%@%",
"%%o#%;  $==      ===========*$*==*================== ==+  ;;%%@@",
"%%%%%;  $==    $$============&*===================== ==+  ;;%%%%",
"%@%;;;  $==    =============**&&=O================== ==$  ;;%%%%",
"%@%;;;  $==   $=============*&$&O&================== ==$  ;%%%%%",
"%@%;;;  $==  $$============*=$**&$================== ==$  ;%%%%%",
"@%%;;;  $== $$=$$===========**&&==================== ==$  ;%%%%%",
"@%%%%%  $== $$=================$==================== ==$  ;%%%%;",
"@%%%%%  $== $=================&===================== ==$  ;%@%%%",
"%%%%%%  $== $==================$==================== ==$  ;@@@%%",
"%%%%%%  $== $======================================= ==$  %@.@%%",
"%%;;;;  $== $======================================$ ==$  %%@@%%",
"%%%%%%  $== %::::::::::::::::::::::::::::::::::::::% ==$  #%@.@%",
"%%%%%%  $== %::::::::::::::::::::::::::::::::::::::% ==$  %@o@o@",
"%%%%%%  -:: %-::::::::::::::::::::::::::::::::::::-% ::-  ;%@oo%",
"%%%%%%  -:: %%-::::::::::::::::::::::::::::::::::--% ::-  %%@o.%",
"%%%%%%  -:: $$=====================================$ ::-  %@@@@%",
"@@%%%%  -:: $=====================================$$ ::-  @o.@@@",
"@@@%%%  +== $======================================$ ==$  %@%%%@",
"@@%;;;  $== $======================================$ ==$  %%%%;;",
"%%@%;;  $==  $$==================================$$  ==+  @%%%%%",
"@@@@@%  $==    ==================================    ==+  @%%@%%",
"@@%@@%  +$= +$  ================================  $+ =$+  %%%%%%",
"%@@%@%  ++$ +++                                  $++ $X+  %%%%%%"
};
