/* XPM */
static char * Untitled_xpm[] = {
"64 64 444 2",
"  	c #6B7B85",
". 	c #7D96A0",
"+ 	c #8098A1",
"@ 	c #8198A2",
"# 	c #7E96A1",
"$ 	c #7F97A1",
"% 	c #000000",
"& 	c #8097A1",
"* 	c #7E97A1",
"= 	c #555B65",
"- 	c #7C939E",
"; 	c #7D9299",
"> 	c #798E94",
", 	c #99BBC6",
"' 	c #9FC1CC",
") 	c #829CA4",
"! 	c #7D939C",
"~ 	c #7E959E",
"{ 	c #8AA6B0",
"] 	c #8FACB5",
"^ 	c #6C7F85",
"/ 	c #58606A",
"( 	c #7E959F",
"_ 	c #7A9197",
": 	c #86A3AC",
"< 	c #A0C1CC",
"[ 	c #7D959D",
"} 	c #819BA3",
"| 	c #1D1C20",
"1 	c #3C3A43",
"2 	c #565460",
"3 	c #758A92",
"4 	c #839DA6",
"5 	c #96B7C1",
"6 	c #97B8C1",
"7 	c #64767C",
"8 	c #525761",
"9 	c #7D949E",
"0 	c #9ABCC7",
"a 	c #7F979F",
"b 	c #819AA3",
"c 	c #74888F",
"d 	c #7C798A",
"e 	c #839EA6",
"f 	c #95B5C0",
"g 	c #A0C3CF",
"h 	c #8BA7B0",
"i 	c #839CA5",
"j 	c #545A64",
"k 	c #7C949E",
"l 	c #A0C2CD",
"m 	c #73878F",
"n 	c #778E96",
"o 	c #96B6C1",
"p 	c #A1C4CF",
"q 	c #89A6AF",
"r 	c #839DA5",
"s 	c #50555F",
"t 	c #748890",
"u 	c #788E96",
"v 	c #849FA9",
"w 	c #1C1B20",
"x 	c #29282E",
"y 	c #141417",
"z 	c #A1C3CE",
"A 	c #8AA7B0",
"B 	c #829CA5",
"C 	c #555D66",
"D 	c #89A5AE",
"E 	c #86A1AA",
"F 	c #9BBDC8",
"G 	c #3D3B43",
"H 	c #8BA9B3",
"I 	c #5F6873",
"J 	c #9EBFCA",
"K 	c #8AA7B1",
"L 	c #98B7C2",
"M 	c #59616A",
"N 	c #829BA4",
"O 	c #86A1AB",
"P 	c #9BBCC8",
"Q 	c #9DBEC9",
"R 	c #87A3AB",
"S 	c #768D95",
"T 	c #8EABB4",
"U 	c #97B6C1",
"V 	c #8099A2",
"W 	c #525862",
"X 	c #8BA8B1",
"Y 	c #88A3AC",
"Z 	c #849BA3",
"` 	c #778D95",
" .	c #97B5C0",
"..	c #829BA3",
"+.	c #72858D",
"@.	c #88A3AB",
"#.	c #8AA5AF",
"$.	c #829AA2",
"%.	c #8EAAB3",
"&.	c #99B7C1",
"*.	c #8099A1",
"=.	c #6F8288",
"-.	c #64757A",
";.	c #545963",
">.	c #7B929B",
",.	c #758990",
"'.	c #677980",
").	c #8198A1",
"!.	c #70828A",
"~.	c #799098",
"{.	c #96B3BF",
"].	c #829AA3",
"^.	c #71848B",
"/.	c #70838A",
"(.	c #566367",
"_.	c #4E525C",
":.	c #484753",
"<.	c #474853",
"[.	c #484853",
"}.	c #474852",
"|.	c #2A292F",
"1.	c #474753",
"2.	c #43434E",
"3.	c #8BA8B2",
"4.	c #8BA7B1",
"5.	c #728590",
"6.	c #8AA7B2",
"7.	c #8BA8B3",
"8.	c #8CA9B4",
"9.	c #8BA7B2",
"0.	c #8199A1",
"a.	c #7B939C",
"b.	c #87A4AD",
"c.	c #8199A0",
"d.	c #647479",
"e.	c #7C939D",
"f.	c #718489",
"g.	c #687D82",
"h.	c #9ABBC5",
"i.	c #7C939B",
"j.	c #72858C",
"k.	c #7B939B",
"l.	c #87A3AD",
"m.	c #9EC1CC",
"n.	c #90ADB7",
"o.	c #72878E",
"p.	c #7F99A1",
"q.	c #91B0BA",
"r.	c #9DBCC7",
"s.	c #9FC2CD",
"t.	c #9ABAC5",
"u.	c #849FA8",
"v.	c #7E949D",
"w.	c #2B2A2F",
"x.	c #9EC2CD",
"y.	c #7C939C",
"z.	c #8199A2",
"A.	c #74868E",
"B.	c #9ABAC4",
"C.	c #85A0A9",
"D.	c #7E969E",
"E.	c #71838B",
"F.	c #9DBDC7",
"G.	c #74878E",
"H.	c #71848C",
"I.	c #7D959E",
"J.	c #7C949C",
"K.	c #85A1A9",
"L.	c #7F98A0",
"M.	c #96B3BC",
"N.	c #73868D",
"O.	c #87A3AC",
"P.	c #9DC1CC",
"Q.	c #7E979F",
"R.	c #95B4BE",
"S.	c #8FAAB3",
"T.	c #7C929C",
"U.	c #7F959D",
"V.	c #96B4BE",
"W.	c #91ADB6",
"X.	c #7A9098",
"Y.	c #7E949C",
"Z.	c #88A1AA",
"`.	c #86A0A9",
" +	c #7D979F",
".+	c #97B5BF",
"++	c #90ACB6",
"@+	c #7D949D",
"#+	c #8EABB5",
"$+	c #9FC2CE",
"%+	c #788C92",
"&+	c #90ADB5",
"*+	c #7A9099",
"=+	c #67777D",
"-+	c #637378",
";+	c #8299A0",
">+	c #7D959C",
",+	c #87A0AA",
"'+	c #6D7D84",
")+	c #758890",
"!+	c #6B7A83",
"~+	c #697980",
"{+	c #5C676D",
"]+	c #758791",
"^+	c #65757C",
"/+	c #798D96",
"(+	c #6B7A82",
"_+	c #758992",
":+	c #484954",
"<+	c #46474D",
"[+	c #484B55",
"}+	c #484B56",
"|+	c #484A56",
"1+	c #42434D",
"2+	c #788E98",
"3+	c #71838A",
"4+	c #8FACB6",
"5+	c #94B4BE",
"6+	c #98B9C4",
"7+	c #90AEB8",
"8+	c #92B0BB",
"9+	c #94B3BE",
"0+	c #8DAAB4",
"a+	c #5E6972",
"b+	c #5C6769",
"c+	c #687C81",
"d+	c #95B3BD",
"e+	c #7A929A",
"f+	c #88A4AD",
"g+	c #89A5AD",
"h+	c #566366",
"i+	c #7D939D",
"j+	c #6B7C81",
"k+	c #96B3BD",
"l+	c #778F97",
"m+	c #575E68",
"n+	c #798F99",
"o+	c #8FABB4",
"p+	c #94B1BB",
"q+	c #9EC0CC",
"r+	c #87A1AA",
"s+	c #515660",
"t+	c #788F98",
"u+	c #8098A0",
"v+	c #7F969E",
"w+	c #76898F",
"x+	c #8099A0",
"y+	c #8CA8B1",
"z+	c #99B9C4",
"A+	c #88A3AA",
"B+	c #7E959D",
"C+	c #7F97A0",
"D+	c #575F68",
"E+	c #707F84",
"F+	c #71858C",
"G+	c #8DAAB3",
"H+	c #7F979E",
"I+	c #7E97A0",
"J+	c #94B4BF",
"K+	c #606A74",
"L+	c #6E8087",
"M+	c #A1C4D0",
"N+	c #565F68",
"O+	c #77888E",
"P+	c #8BA9B2",
"Q+	c #94B3BD",
"R+	c #95B4BF",
"S+	c #7A9199",
"T+	c #50555E",
"U+	c #778E97",
"V+	c #788B91",
"W+	c #7B9199",
"X+	c #7B929A",
"Y+	c #535963",
"Z+	c #7B919B",
"`+	c #606E72",
" @	c #6F848A",
".@	c #72868D",
"+@	c #6A7A80",
"@@	c #566467",
"#@	c #4E525B",
"$@	c #6D7D87",
"%@	c #73848D",
"&@	c #6A7A82",
"*@	c #73858E",
"=@	c #72848E",
"-@	c #8095A0",
";@	c #73858F",
">@	c #6F8089",
",@	c #606D75",
"'@	c #515560",
")@	c #70828D",
"!@	c #7C949D",
"~@	c #869FA9",
"{@	c #85A0AA",
"]@	c #8099A3",
"^@	c #8097A0",
"/@	c #819AA4",
"(@	c #799099",
"_@	c #5A636C",
":@	c #7C9299",
"<@	c #98B9C3",
"[@	c #97B7C1",
"}@	c #849FA7",
"|@	c #8CA8B2",
"1@	c #8DABB3",
"2@	c #6D8087",
"3@	c #59626B",
"4@	c #829CA3",
"5@	c #8CAAB3",
"6@	c #97B6C0",
"7@	c #92B1BA",
"8@	c #6E8289",
"9@	c #555C66",
"0@	c #8098A2",
"a@	c #99BAC4",
"b@	c #768B93",
"c@	c #96B7C2",
"d@	c #9ABBC6",
"e@	c #58616A",
"f@	c #7F98A2",
"g@	c #96B5C0",
"h@	c #97B7C2",
"i@	c #9BBCC6",
"j@	c #7D959F",
"k@	c #849DA6",
"l@	c #7E969F",
"m@	c #89A6B0",
"n@	c #7F98A1",
"o@	c #768C94",
"p@	c #798F98",
"q@	c #5B666F",
"r@	c #849EA7",
"s@	c #7C959D",
"t@	c #89A5AF",
"u@	c #636F7A",
"v@	c #98B8C3",
"w@	c #8CA9B3",
"x@	c #5F6A74",
"y@	c #9ABAC6",
"z@	c #91AEB9",
"A@	c #575F69",
"B@	c #98B8C2",
"C@	c #80979F",
"D@	c #91ADB8",
"E@	c #7F989F",
"F@	c #6F8189",
"G@	c #545B65",
"H@	c #849EA6",
"I@	c #859EA8",
"J@	c #93AFB9",
"K@	c #627277",
"L@	c #72868F",
"M@	c #6D7F86",
"N@	c #65757D",
"O@	c #758891",
"P@	c #6B7C84",
"Q@	c #72868E",
"R@	c #88A1AC",
"S@	c #67777E",
"T@	c #545F65",
"U@	c #4C5059",
"V@	c #5C6670",
"W@	c #5B6670",
"X@	c #5B6770",
"Y@	c #5A646D",
"Z@	c #545B66",
"`@	c #5A6570",
" #	c #58636D",
".#	c #86A0AA",
"+#	c #87A2AC",
"@#	c #88A3AD",
"##	c #738791",
"$#	c #84A0AA",
"%#	c #8DAAB5",
"&#	c #8EABB6",
"*#	c #88A3AE",
"=#	c #7D949C",
"-#	c #8AA8B1",
";#	c #839CA4",
">#	c #687A80",
",#	c #758A90",
"'#	c #778F96",
")#	c #93B2BC",
"!#	c #758A91",
"~#	c #748991",
"{#	c #7A919A",
"]#	c #86A2AB",
"^#	c #92B1BB",
"/#	c #95B2BC",
"(#	c #8CABB4",
"_#	c #9CBEC8",
":#	c #768A92",
"<#	c #8EADB6",
"[#	c #94B2BB",
"}#	c #778C93",
"|#	c #9DBFCA",
"1#	c #95B5BF",
"2#	c #839CA6",
"3#	c #778C94",
"4#	c #9BBEC8",
"5#	c #92B0B9",
"6#	c #7A8F99",
"7#	c #8CAAB4",
"8#	c #9CBDC8",
"9#	c #93B0B9",
"0#	c #8CA7B0",
"a#	c #788D95",
"b#	c #7C929A",
"c#	c #89A2AC",
"d#	c #7E979E",
"e#	c #8BA6B0",
"f#	c #788E95",
"g#	c #97B8C3",
"h#	c #88A2AA",
"i#	c #788D96",
"j#	c #616F75",
"k#	c #798E97",
"l#	c #7F959C",
"m#	c #7B9299",
"n#	c #73878E",
"o#	c #7B919A",
"p#	c #69787F",
"q#	c #6C7D85",
"r#	c #65737C",
"s#	c #627077",
"t#	c #586168",
"u#	c #6B7A84",
"v#	c #6C7B84",
"w#	c #637179",
"x#	c #6F8088",
"y#	c #67757D",
"z#	c #6C7D86",
"A#	c #555E67",
"B#	c #535B61",
"C#	c #5C6972",
"D#	c #5E6C76",
"E#	c #606E78",
"F#	c #5D6A74",
"G#	c #5D6973",
"H#	c #5E6A75",
"I#	c #5F6C76",
"J#	c #5B6771",
"K#	c #4C515B",
"  . + @ # $ % % % % % % % % % % % % % % % % % % % % % % % % % % % % % % % % % % % % % % % % % % % % % % % % % % % % & # $ $ * = ",
"- ; > , ' ) % % % % % % % % % % % % % % % % % % % % % % % % % % % % % % % % % % % % % % % % % % % % % % % % % % % % ! ~ { ] ^ / ",
"( _ : < [ } % % | 1 1 2 2 2 2 2 2 2 2 2 2 2 2 2 2 2 2 2 2 2 2 2 2 2 2 2 2 2 2 2 2 2 2 2 1 1 2 2 2 2 2 2 2 1 1 | % % 3 4 5 6 7 8 ",
"9 0 ' a b c % % 1 1 d d d d d d d d d d d d d d d d d d d d d d d d d d d d d d d d d d d d d d d d d d d d 1 1 % % e f g h i j ",
"k l [ } m n % % 1 d d % % % % % % % % % % % % % % % % % % % % % % % % % % % % % % % % % % % % % % % % % % d d 2 % % o p q r m s ",
"k i b t u v % % 2 d d % w x x 1 1 1 1 1 1 1 x 1 | | y x x 1 | y 1 1 y y y x 1 1 1 1 1 1 1 1 1 1 1 1 x x % d d 2 % % z A B t u C ",
"k D m n E F % % 2 d d % x 1 1 2 d d d d d d d d d d d d d d 2 G d d d d d d d d d d d d d d d d d d 2 1 % d d 2 % % q i m n H I ",
"k ! u v F J % % 2 d d % x 1 2 d d d d d d d d d d d d d d d d G d d d d 2 d d d d d d d d d d d d d d 2 % d d 2 % % B c u K L M ",
"k N O P Q R % % 2 d d % 1 1 2 d d d d d d d d d d d d d d d d d d d d 2 2 2 2 d d d d d d d d d d d d 1 % d d 2 % % m S T U V W ",
"k X F J Y Z % % 1 d d % 1 d d 2 d d d d d d d d d d d d d d d d d d d d d 2 d d d d d d d d d d d d 2 2 % d d 1 % % ` X  ...+.s ",
"k @.#.@.$.+.% % 1 d d % 2 d d d d d d d d d d d d d d d d d d d d d d d 2 d d d d d d d d d d d d d d 2 % d d 1 % % %.&.*.=.-.;.",
">.,.'.).!.~.% % 1 d d % 2 d d d d d d d d d d d d d d d d d d d d d d d d d d d d d d d d d d 2 d 2 2 d % d d G % % {.].^./.(._.",
":.<.[.<.<.}.% % 1 d d % 2 d d d d d d d d d d d d d d d d d d d d d d d d d d d d d d d d d d d G 2 d d % d d |.% % 1.<.<.<.1.2.",
"3.4.4.3.3.#.% % 1 d d % d d d d d d d d d d d d d d d d d d d d d d d d d d d d d d d d d d d d 2 d d 2 % d d |.% % 5.4.6.7.8.9.",
"0.+.a.b.c.d.% % 2 d d % d d d d d d d d d d d d d d d d d d d d d d d d d d d d d d d d d d d 2 d 2 2 2 % d d 2 % % e.f.g.P h.i.",
"j.k.l.m.n.o.% % 2 d d % d d d d d d d d d d d d d d d d d d d d d d d d d d d d d d d d d 2 G d d d 1 % % d d 2 % % e.p.q.r.k.V ",
"a.b.s.t.u.v.% % 2 d d % d d d d d d d d d d d d d d d d d d d d d d d d d d d d d d d d 2 2 w.d d 2 % % % d d 2 % % e.x.h.y.z.A.",
"b.m.B.C.D.E.% % 2 d d % d d d d d d d d d d d d d d d d d d d d d d d d d d d d d d d 2 2 2 d d % % % % % d d 2 % % - F.k.*.G.>.",
"s.t.u.D.H.I.% % 2 d d % d d d d d d d d d d d d d d d d d d d d d d d d d d d d d d d d d d % % % % % % % d d 2 % % e.i V G.J.: ",
"B.K.D.H.L.M.% % 2 d d % d d d d d d d d d d d d d d d d d d d d d d d d d d d d d d d 2 % % % d 2 % % % % d d 2 % % e.Y N.y.O.P.",
"u.D.H.Q.R.S.% % 2 d d % d d d d d d d d d d d d d d d d d d d d d d d d d d d d d d d % % d d d d 2 % % % d d 2 % % T.U.y.: s.t.",
"D.^.Q.V.W.X.% % 2 d d % d d d d d d d d d d d d d d d d d d d d d d d d d d d d d d % d d d d d d 2 1 % % d d 2 % % Y.Z.O.m.t.`.",
"H. +.+++X.j.% % 2 d d % d d d d d d d d d d d d d d d d d d d d d d d d d d d d d % % d d d 2 d 2 d d 1 % d d 2 % % @+#+$+t.u.D.",
"Q.%+&+*+=+-+% % 2 d d % d d d d d d d d d d d d d d d d d d d d d d d d d d d 2 % 2 d d 2 d d d d d 2 2 % d d 2 % % e.;+>+E D.^.",
",+'+)+!+~+{+% % 2 d d % d d d d d d d d d d d d d d d d d d d d d d d d d d % % d d d d d d d d d d d 2 % d d 2 % % ]+A.^+/+(+_+",
":+<+[+}+}+|+% % 2 d d % d d d d d d d d d d d d d d d d d d d d d d d d d % % 2 d d d d d d d d d d d d % d d 2 % % |+|+|+[+[+1+",
"2+3+4+5+6+7+% % 2 d d % d d d d d d d d d d d d d d d d d d d d d d d 2 % % 2 d d d d d d d d d d d d d % d d 2 % % n.#+8+9+0+a+",
"e.b+c+m.d+[ % % 2 d d % d d d d d d d d d d d d d d d d d d d d d d d % % d d d d d d d d d d d d d d d % d d 2 % % +.e+f+g+h+_.",
"i+j+0 k+k.D.% % 2 d d % d d d d d d d d d d d d d d d d d d d d d 2 % % d d d d d d d d d d d d d d d d % d d 2 % % k.O.s.t.l+m+",
"n+o+p+[ D.H.% % 2 d d % d d d d d d d d d d d d d d d d d d d 2 % % 2 d d d d d d d d d d d d d d d d d % d d 2 % % O.q+B.r+D.s+",
"t+U.k.D.^.u+% % 2 d d % d d d d d d d d d d d d d d d d d d d % % d d d d d d d d d d d d d d d d d d d % d d 2 % % s.t.`.v+^.8 ",
"k w+D.H.x+y+% % 2 d d % d d d d d d d d d d d d d d d d d 2 % % d d d d d d d d d d d d d d d d d d d d % d d 2 % % z+A+B+^.C+D+",
"2+E+F+Q.G+p % % 2 d d % d d d d d d d d d d d d d d d d % % 2 d d d d d d d d d d d d d d d d d d d d d % d d 2 % % u.H+^.I+J+K+",
"k L+I+K M+R.% % 2 d d % d d d d d d d d d d d d d d d % % d d d d d d d d d d d d d d d d d d d d d d d % d d 2 % % v+H.I+5+++N+",
"2+O+P+M+Q+u.% % 2 d d % d d d d d d d d d d d d d % % % d d d d d d d d d d d d d d d d d d d d d d d d % d d 2 % % H.I+R+4+S+T+",
"U+V+p R.u.W+% % 2 d d % d d d d d d d d d d d d % % d d d d d d d d d d d d d d d d d d d d d d d d d d % d d 2 % % I+5+4+X+F+Y+",
"Z+`+ @u.X..@% % 2 d d % d d 2 d d d d d d d d % % 2 d d d d d d d d d d d d d d d d d d d d d d d d d d % d d 2 % % J+4+S++@@@#@",
"$@%@&@*@!+=@% % 2 d d % 2 d 2 d 2 d d d d 2 % % d d d d d d d d d d d d d d d d d d d d d d d d d d d d % d d 2 % % -@;@!+>@,@'@",
")@!@a ~@{@]@% % 2 d d % % 2 d 2 d d d d % % 2 d d d d d d d d d d d d d d d d d d d d d d d d d d d d d % d d 2 % % ^@# /@N (@_@",
"e.:@v+<@[@}@% % 2 d d % % % 2 1 2 2 d % % d d d d d d d d d d d d d d d d d d d d d d d d d d d d d d d % d d 2 % % ! + |@1@2@3@",
"( 4@5@6@b D.% % 2 d d % % % % % % % % % d d d d d d d d d d d d d d d d d d d d d d d d d d d d d d d d % d d 2 % % ~.O.5 7@8@9@",
"0@a@[@N ~ b@% % 2 d d % % % % % % d d d d d d d d d d d d d d d d d d d d d d d d d d d d d d d d d d d % d d 1 % % O.c@d@A I.e@",
"f@g@b D.b@k.% % 2 d d % % % % 2 2 d d d d d d d d d d d d d d d d d d d d d d d d d d d d d d d d d d d % d d 1 % % h@i@q *.m C ",
"j@k@l@b@i.m@% % 2 d d % % % % d d d d d d d d d d d d d d d d d d d d d d d d d d d d d d d d d d d d d % d d 2 % % d@A n@o@p@q@",
"j@r@o@k.4.d@% % 2 d d % % % 2 d d d d d d d d d d d d d d d d d d d d d d d d d d d d d d d d d d d d d % d d 2 % % q + b@s@t@u@",
"k ~ J.m@d@v@% % 2 d d % % 2 2 d d d d d d d d d d d d d d d d d d d d d d d d d d d d d d d d d d d d d % d d 2 % % n@b@~ w@4+x@",
"j@r@3.y@L @.% % 2 d d % 2 2 d 2 2 d d d d d d d d d d d d d d d d d d d d d d d d d d d d d d d d d d d % d d 2 % % b@!@#+z@@+A@",
". A h@B@Y C@% % 2 d d % 2 2 d d d d d d d d d d d d d d d d d d d d d d d d d d d d d d d d d d d d d d % d d 2 % % [ G+D@E@F@G@",
"j@H@I@`.v+b@% % 2 d d % 2 d d d d d d d d d d d d d d d d d d d d d d d d d d d d d d d d d d d d d d d % d d 2 % % o+J@a /.K@j ",
"L@M@N@O@P@Q@% % 2 d d % 2 d d d d d d d d d d d d d d d d d d d d d d d d d d d d d d d d d d d d d d d % d d 2 % % R@p@P@S@T@U@",
"V@W@W@X@W@Y@% % 2 d d % 2 d d d d d d d d d d d d d d d d d d d d d d d d d d d d d d d d d d d d d d d % d d 2 % % Z@W@W@W@`@ #",
"f+.#+#q @#$ % % 2 d d % 2 d d d d d d d d d d d d d d d d d d d d d d d d d d d d d d d d d d d d d d 2 % d d 2 % % ##r@$#%#&#*#",
"=#b@I+-#;#>#% % 2 d d % G d d d d d d d d d d d d d d d d d d d d d d d d d d d d d d d d d d d d d d G % d d 2 % % 2+,#'#v@)#L.",
"!#Q.0+0 G+~#% % 2 d d % G d d d d d d d d d d d d d d d d d d d d d d d d d d d d d d d d d d d d d d G % d d 2 % % {#]#^#/#n@~ ",
"n@(#_#R+u./+% % 1 d d % G 2 d d d d d d d d d d d d d d d d d d d d d d d d d d d d d d d d d d d d 2 G % d d 1 % % k 0 )#+ v.:#",
"<#F R.C.i.H.% % 1 d d % G G 2 d d d d d d d d d d d d d d d d d d d d d d d d d d d d d d d d d d 2 2 G % d d 1 % % e.[#n@=#}#!@",
"|#1#u.i.b@~ % % 1 d d % 2 2 d d d d d d d d d d d d d d d d d d d d d d d d d d d d d d d d d d d d d 2 % d d 1 % % {#2#I.}#C+-#",
"Q+C.i.b@r@S.% % 1 d d % 2 d d d d d d d d d d d d d d d d d d d d d d d d d d d d d d d d d d d d d 2 2 % d d 1 % % Z+k@3#I+0+4#",
"4 i.b@H@5#Z.% % 1 d d % 2 d d d d d d d d d d d d d d d d d d d d d d d d d d d d d d d d d d d d d d 2 % d d 2 % % 6#^@n@7#8#U ",
"X+b@H@9#0#a#% % 2 d d % 2 d d d d d d d d d d d d d d d d d d d d d d d d d d d d d d d d d d d d d d 2 % d d 2 % % b#c##+F R+r+",
"!#d#9#e#f#M@% % 2 d d % % 2 2 d d d d d d d d d d d d d d d d d d d d d d d d d d d d d d d d d d 2 2 % % d d 1 % % >.y+g#R+u.J.",
"L.> h#i#~+j#% % 2 d d % % % % d d d d d d d d d d d d d d d d d d d d d d d d d d d d d d d d d d % % % % d d 1 % % k#l#m#B W+n#",
"o#p#q#r#s#t#% % 1 2 d % 1 2 % % d d d d d d d d d d d d d d d d d d d d d d d d d d d d d d d d % % 2 1 % d 2 1 % % u#v#w#x#y#z#",
"A#B#C#D#E#F#% % 1 1 2 % 1 1 1 % % % % % % % % % % % % % % % % % % % % % % % % % % % % % % % % % % 2 1 1 % 2 x 1 % % F#G#H#I#J#K#"};
