/* XPM */
static char *f3ee26d122494d44fc8e30ca6dfe6bdcY4d1jiwfawjQ4KXU[] = {
/* columns rows colors chars-per-pixel */
"64 64 19 1 ",
"  c black",
". c #141417",
"X c #370607",
"o c #1C1B20",
"O c #1D1C20",
"+ c gray16",
"@ c #29282E",
"# c #3C3C3C",
"$ c #730D11",
"% c #3C3A43",
"& c gray34",
"* c #585858",
"= c #565460",
"- c gray49",
"; c #A51319",
": c #ED1C24",
"> c #7C798A",
", c #B2B2B2",
"< c white",
/* pixels */
"&&&---                                                    ===&--",
"&&&---                                                    =%%---",
"&-&&&-  O%%=================================%%=======%%O  >=#---",
"&&&&>>  %%>>>>>>>>>>>>>>>>>>>>>>>>>>>>>>>>>>>>>>>>>>>>%%  ==##--",
"&&-&=>  %>>                                          >>=  >=&#&-",
"&---=>  =>> o@@%%%%%%%@%O-*@@%-*%%..*@%%:;;;         >>=  >>-&&-",
"---->>  =>> @%%=>>>>>>>>><<>>>,->>>><>>>>>:          >>=  >&&&&&",
"---->>  =>> @%=>>>>>>>>>><<>>><->>>>,>>>>>>:         >>=  >-----",
"--&&>>  =>> %%=>>>>>>>>>>>><,<>>>><,,,,>>>>          >>=  >-----",
"--&->>  %>> %>>=>>>>>>>>>>><<,>>>><<<,<>>>>          >>%  ----->",
"--&-=>  %>> =>>>>>>>>>>>>>>>>>>>>>>>=>>>>            >>%  ----->",
"-&-&==  %>> =>>>>>>>>>>>>>>>>>>>>>>>>>>>             >>%  ----->",
"-&--&=  %>> =>>>>>>>>>>>>>>>>>>>>>>>>>>              >>@  ----->",
"&&&-&=  %>> >>>>>>>>>>>>>>>>>>>>>>>>>                >>@  ----->",
"----->  =>> >>>>>>>>>>>>>>>>>>>>>>>>                 >>=  >-----",
">---->  =>> >>>>>>>>>>>>>>>>>>>>>>                   >>=  >-----",
">---->  =>> >>>>>>>>>>>>>>>>>>>>>                    >>=  ------",
">---->  =>> >>>>>>>>>>>>>>>>>>>>                     >>=  ------",
">---->  =>> >>>>>>>>>>>>>>>>>>                       >>=  ------",
">---->  =>> >>>>>>>>>>>>>>>>>                        >>=  ------",
">---->  =>> >>>>>>>>>>>>>>>>                         >>=  ------",
">---->  =>> >>>>>>>>>>>>>>                           >>=  >---->",
">---->  =>> >>=>>>>>>>>>>                            >>=  >---->",
">---->  =>> >>>>>>>>>>>                              >>=  >-----",
">---->  =>> ;>>;>>>>>>                               >>=  >-----",
">---->  =>> ::>$=>>>>                                >>=  >-----",
">---->  =>> ;$:;>=>                                  >>=  >>----",
"=&--->  =>>  ;;:::                                   >>=  >>----",
"=---->  =>>    :                                     >>=  >>>---",
"&##-->  =>>                                          >>=  >>>---",
"-&#-->  =>>                                          >>=  >>>>--",
"-&#&->  =>>                                          >>=  >>>>-&",
"&##&&=  =>>                                          >>=  -----&",
"&#&#%%  =>>                                          >>=  ---&&&",
"&-&->>  =>>                                          >>=  -&&&&&",
"&&&&>>  =>>                                          >>=  -&&&&&",
"-&&==>  =>>                                     >>>> >>=  -&&&-=",
"&&&==>  =>>                                    >>>>> >>=  >-&&-&",
"&&&=%=  =>>                                  =>>>>>> >>=  >-&&-&",
"-&-===  =>>                                 X=;>>>>> >>=  >&#&&&",
"&&#%=>  =>>                                $:>>>>>>> >>=  >>--&-",
"--#%=>  =>>                              $;:;>>>>>>> >>%  >>--&&",
"---==>  =>>                             :;:;>>>>>>>> >>%  >>----",
"-&->>>  =>>                           ;$$:;::>>>>>>> >>=  >>----",
"-&->>>  =>>                          >>=::;>:>>>>>>> >>=  >-----",
"-&->>>  =>>                        >>>>>;>:;:>>>>>>> >>=  >-----",
"&-->>>  =>>                       >>>>>>:;;:=>>>>>>> >>=  >-----",
"&-----  =>>                      >>>>>>>>>::>>>>>>>> >>=  >---->",
"&-----  =>>                    >>>>>>>>>>:;:;>>>>>>> >>=  >-&---",
"------  =>>                   >>>>>>>>>>>>>>>=>>>>>> >>=  >&&&--",
"------  =>>                 >>>>>>:;>>>>>>>=>=>>>>>> >>=  =&+&--",
"-->>>>  =>>                >>>>>>:::>>>>>>>>>>>>>>>= >>=  =-&&--",
"------  =>>              >>>>>>>>:;:>>>>>>>>>>>>>>>% >>=  %-&+&-",
"------  =>>             >>>>>>>>::;:>=>>>>>>>>>>>>>% >>=  =&#&#&",
"------  %>>           >>>>>>>>:::$:>:=>>>>>>>>>>>>=% >>%  >-&##-",
"------  %>>          >>>>>>>>>:;:;$;:;>>>>>>>>>>>==% >>%  --&#+-",
"------  %>>         >>>>>>>>>>>:>;;;:>=>>>>>>>>>>>>= >>%  -&&&&-",
"&&----  %>>       >>>>>>>>>>>>>>=;;$:>>>>>>>>>>>>>== >>%  &#+&&&",
"&&&---  %>>      >>>>>>>>>>>>>>>==;:;>>>>>>>>>>>>>>= >>=  -&---&",
"&&->>>  =>>    >>>>>>>>>>>>>>>>>=::::::>>>>>>>>>>>>= >>=  ---->>",
"--&->>  =>>    >>>>>>>>>>>>>>>=>>>:;=>>>>>>>>>>>>==  >>%  &-----",
"&&&&&=  =>>    >>>>>>>>>>>>>>>>>>>=>=>>>>>>>>>>>>    >>%  &--&--",
"&&-&&=  %=> %=  >>>>>>>>>>>>>>>>>>>=>>>>>>>>>>>>  =% >=%  ------",
"-&&-&=  %%= %%%                                  =%% =@%  ------"
};
