/* XPM */
static char *dd136932f42f4f4cfd6896e08502749e3hhHNNiHRxXedtBH[] = {
/* columns rows colors chars-per-pixel */
"64 64 14 1 ",
"  c black",
". c gray16",
"X c #29282E",
"o c #3C3C3C",
"O c #730D11",
"+ c #3C3A43",
"@ c gray34",
"# c #565460",
"$ c gray49",
"% c #A51319",
"& c #ED1C24",
"* c #7C798A",
"= c #B2B2B2",
"- c white",
/* pixels */
"@@@$$$                                                    ###@$$",
"@@@$$$                                                    #++$$$",
"@$@@@$  X+##################################++#######++X  *#o$$$",
"@@@@**  +#********************************************#+  ##oo$$",
"@@$@#*  +**                                          **#  *#@o@$",
"@$$$#*  #** XX++++++++++++++++++++++++++++++++++++XX **#  **$@@$",
"$$$$**  #** X+##***********---******-*************#+ **#  *@@@@@",
"$$$$**  #** +##************--=******-**************# **#  *$$$$$",
"$$@@**  #** ++#**********==***--**---**************+ **#  *$$$$$",
"$$@$**  +** +**#*********--***-=**-=-**********&#&#  **+  $$$$$*",
"$$@$#*  +** #************--***$=**===**********#&*%  **+  $$$$$*",
"$@$@##  +** #************--***$=****-*********&#%%   **+  $$$$$*",
"$@$$@#  +** *************--***--****-**********&&O   **X  $$$$$*",
"@@@$@#  +** *************--***--****-***********&    **X  $$$$$*",
"$$$$$*  #** *************-=***--****-**********#     **#  *$$$$$",
"*$$$$*  #** *************=-***--****=********#+      **#  *$$$$$",
"*$$$$*  #** ***************=-=****---=-*****##       **#  $$$$$$",
"*$$$$*  #** ***************-$=****-=---****##        **#  $$$$$$",
"*$$$$*  #** *******************************          **#  $$$$$$",
"*$$$$*  #** ******************************           **#  $$$$$$",
"*$$$$*  #** ****************************             **#  $$$$$$",
"*$$$$*  #** ***************************          #+  **#  *$$$$*",
"*$$$$*  #** **************************        #*#**+ **#  *$$$$*",
"*$$$$*  #** *************************       #*****## **#  *$$$$$",
"*$$$$*  #** ************************       ********# **#  *$$$$$",
"*$$$$*  #** **********************        ********** **#  *$$$$$",
"*$$$$*  #** *********************        *********** **#  **$$$$",
"#@$$$*  #** ********************     % ************* **#  **$$$$",
"#$$$$*  #** ******************      &&************** **#  ***$$$",
"@oo$$*  #** *****************     &&%&************** **#  ***$$$",
"$@o$$*  #** ***************      &%&%*%************* **#  ****$$",
"$@o@$*  #** **************        &&%&%************* **#  ****$@",
"@oo@@#  #** *************       &**&&*************** **#  $$$$$@",
"@o@o++  #** ************        *****%************** **#  $$$@@@",
"@$@$**  #** ***********       *******%************** **#  $@@@@@",
"@@@@**  #** #**#*****        *********************** **#  $@@@@@",
"$@@##*  #** &+%*****       ************************* **#  $@@@$#",
"@@@##*  #** %%#*#**       ************************** **#  *$@@$@",
"@@@#+#  #**  %&##        ****&*&******************** **#  *$@@$@",
"$@$###  #**             ******%********************* **#  *@o@@@",
"@@o+#*  #**            ******&%*&******************* **#  **$$@$",
"$$o+#*  #**          *******&#&**&****************** **+  **$$@@",
"$$$##*  #**         *********%&********************* **+  **$$$$",
"$@$***  #**        *********&&%%*O****************** **#  **$$$$",
"$@$***  #**      ***********&%#%O%****************** **#  *$$$$$",
"$@$***  #**    ************&*#&&%#****************** **#  *$$$$$",
"@$$***  #**   *##***********&&%%******************** **#  *$$$$$",
"@$$$$$  #**   *****************#******************** **#  *$$$$*",
"@$$$$$  #**   ****************%********************* **#  *$@$$$",
"$$$$$$  #**  ******************#******************** **#  *@@@$$",
"$$$$$$  #** #*************************************** **#  #@.@$$",
"$$****  #** #**************************************# **#  #$@@$$",
"$$$$$$  #** +**************************************+ **#  +$@.@$",
"$$$$$$  #** +**************************************+ **#  #@o@o@",
"$$$$$$  +** +#************************************#+ **+  *$@oo$",
"$$$$$$  +** ++#**********************************##+ **+  $$@o.$",
"$$$$$$  +** ##*************************************# **+  $@@@@$",
"@@$$$$  +** #*************************************## **+  @o.@@@",
"@@@$$$  +** #**************************************# **#  $@$$$@",
"@@$***  #** #**************************************# **#  $$$$**",
"$$@$**  #**  ##**********************************##  **+  @$$$$$",
"@@@@@#  #**    **********************************    **+  @$$@$$",
"@@$@@#  +#* +#  ********************************  #+ *#+  $$$$$$",
"$@@$@#  ++# +++                                  #++ #X+  $$$$$$"
};
