/* XPM */
static char *f6550d67d79f44d78565b6f256d20abfPvBs7TCL3TKwdnO4[] = {
/* columns rows colors chars-per-pixel */
"64 64 15 1 ",
"  c black",
". c #141417",
"X c #1C1B20",
"o c #1D1C20",
"O c gray16",
"+ c #29282E",
"@ c #3C3C3C",
"# c #730D11",
"$ c #3C3A43",
"% c gray34",
"& c #565460",
"* c gray49",
"= c #A51319",
"- c #ED1C24",
"; c #7C798A",
/* pixels */
"%%%***                                                    &&&%**",
"%%%***                                                    &$$***",
"%*%%%*  o$$&&&&&&&&&&&&&&&&&&&&&&&&&&&&&&&&&$$&&&&&&&$$o  ;&@***",
"%%%%;;  $$;;;;;;;;;;;;;;;;;;;;;;;;;;;;;;;;;;;;;;;;;;;;$$  &&@@**",
"%%*%&;  $;;                                          ;;&  ;&%@%*",
"%***&;  &;; X++$$$$$$$+$oo.++$o.$$...+$              ;;&  ;;*%%*",
"****;;  &;; +$$&;;;;;;;;;;;;;;&$;;;;;;               ;;&  ;%%%%%",
"****;;  &;; +$&;;;;;;;;;;;;;;;;$;;;;                 ;;&  ;*****",
"**%%;;  &;; $$&;;;;;;;;;;;;;;;;;;;                   ;;&  ;*****",
"**%*;;  $;; $;;-;;;;;;;;;;;;;;;;;                    ;;$  *****;",
"**%*&;  $;; &;-;;;;;&;;;;;;;;;;                      ;;$  *****;",
"*%*%&&  $;; -=--&;;;;;;;;;;;;;                       ;;$  *****;",
"*%**%&  $;; =-=;-;;;;;;;;;;                          ;;+  *****;",
"%%%*%&  $;;  =-=;&&;;;;;;                            ;;+  *****;",
"*****;  &;;  #==-;;;;;                               ;;&  ;*****",
";****;  &;;   - =&;;;                                ;;&  ;*****",
";****;  &;;                                          ;;&  ******",
";****;  &;;                                          ;;&  ******",
";****;  &;;                                          ;;&  ******",
";****;  &;;                                          ;;&  ******",
";****;  &;;                                          ;;&  ******",
";****;  &;;                                          ;;&  ;****;",
";****;  &;;                                          ;;&  ;****;",
";****;  &;;                                          ;;&  ;*****",
";****;  &;;                                          ;;&  ;*****",
";****;  &;;                                          ;;&  ;*****",
";****;  &;;                                          ;;&  ;;****",
"&%***;  &;;                                          ;;&  ;;****",
"&****;  &;;                                          ;;&  ;;;***",
"%@@**;  &;;                                          ;;&  ;;;***",
"*%@**;  &;;                                          ;;&  ;;;;**",
"*%@%*;  &;;                                          ;;&  ;;;;*%",
"%@@%%&  &;;                                          ;;&  *****%",
"%@%@$$  &;;                                          ;;&  ***%%%",
"%*%*;;  &;;                                          ;;&  *%%%%%",
"%%%%;;  &;;                                          ;;&  *%%%%%",
"*%%&&;  &;;                                          ;;&  *%%%*&",
"%%%&&;  &;;                                          ;;&  ;*%%*%",
"%%%&$&  &;;                                          ;;&  ;*%%*%",
"*%*&&&  &;;                                          ;;&  ;%@%%%",
"%%@$&;  &;;                                          ;;&  ;;**%*",
"**@$&;  &;;                                          ;;$  ;;**%%",
"***&&;  &;;                                          ;;$  ;;****",
"*%*;;;  &;;                                      ;   ;;&  ;;****",
"*%*;;;  &;;                                    ;;;;; ;;&  ;*****",
"*%*;;;  &;;                                   ;;;;;; ;;&  ;*****",
"%**;;;  &;;                                 -;;;;;;; ;;&  ;*****",
"%*****  &;;                                --;&;;;;; ;;&  ;****;",
"%*****  &;;                              -===&&;;;;; ;;&  ;*%***",
"******  &;;                             ==#=-=&;;;;; ;;&  ;%%%**",
"******  &;;                           --=-=-&;;;;;;; ;;&  &%O%**",
"**;;;;  &;;                          ;==&#=-=-;;;;;& ;;&  &*%%**",
"******  &;;                         ;;;-==-##=;;;;;$ ;;&  $*%O%*",
"******  &;;                       ;;;;;=;;-;-;;;;;;$ ;;&  &%@%@%",
"******  $;;                      ;;;-;;;;-=-=;;;;;&$ ;;$  ;*%@@*",
"******  $;;                    ;;;;;;;;;;=;&&;;;;&&$ ;;$  **%@O*",
"******  $;;                   ;;;;-;;;;;;;-&&;;;;;;& ;;$  *%%%%*",
"%%****  $;;                 ;;;;;;;;;;;;;;&;;&;;;;&& ;;$  %@O%%%",
"%%%***  $;;                ;;;-----=&;;;;;&;;;;;;;;& ;;&  *%***%",
"%%*;;;  &;;               ;;;;;-=-=-$;;;;;;;;;;;;;;& ;;&  ****;;",
"**%*;;  &;;             ;;;;;--=--==;;;;;;;;;;;;;&&  ;;$  %*****",
"%%%%%&  &;;            ;;;;;;;===;-=-;;;;;;;;;;;;    ;;$  %**%**",
"%%*%%&  $&; $&        ;;;;;;;;;-=-==;;;;;;;;;;;;  &$ ;&$  ******",
"*%%*%&  $$& $$$                                  &$$ &+$  ******"
};
