/* XPM */
static char *_ba53432038543eedfefb3f17663493bjaBTpxXKzdNcm42U[] = {
/* columns rows colors chars-per-pixel */
"64 64 15 1 ",
"  c black",
". c #370607",
"X c #1C1B20",
"o c #1D1C20",
"O c gray16",
"+ c #29282E",
"@ c #3C3C3C",
"# c #730D11",
"$ c #3C3A43",
"% c gray34",
"& c #565460",
"* c gray49",
"= c #A51319",
"- c #ED1C24",
"; c #7C798A",
/* pixels */
"%%%***                                                    &&&%**",
"%%%***                                                    &$$***",
"%*%%%*  o$$&&&&&&&&&&&&&&&&&&&&&&&&&&&&&&&&&$$&&&&&&&$$o  ;&@***",
"%%%%;;  $$;;;;;;;;;;;;;;;;;;;;;;;;;;;;;;;;;;;;;;;;;;;;$$  &&@@**",
"%%*%&;  $;;                                          ;;&  ;&%@%*",
"%***&;  &;; X++$$$$$$$+$o                            ;;&  ;;*%%*",
"****;;  &;; ++=$;;;;;;                               ;;&  ;%%%%%",
"****;;  &;; -$&&;;;;                                 ;;&  ;*****",
"**%%;;  &;; ==$--;                                   ;;&  ;*****",
"**%*;;  $;; ===-                                     ;;$  *****;",
"**%*&;  $;;                                          ;;$  *****;",
"*%*%&&  $;;                                          ;;$  *****;",
"*%**%&  $;;                                          ;;+  *****;",
"%%%*%&  $;;                                          ;;+  *****;",
"*****;  &;;                                          ;;&  ;*****",
";****;  &;;                                          ;;&  ;*****",
";****;  &;;                                          ;;&  ******",
";****;  &;;                                          ;;&  ******",
";****;  &;;                                          ;;&  ******",
";****;  &;;                                          ;;&  ******",
";****;  &;;                                          ;;&  ******",
";****;  &;;                                          ;;&  ;****;",
";****;  &;;                                          ;;&  ;****;",
";****;  &;;                                          ;;&  ;*****",
";****;  &;;                                          ;;&  ;*****",
";****;  &;;                                          ;;&  ;*****",
";****;  &;;                                          ;;&  ;;****",
"&%***;  &;;                                          ;;&  ;;****",
"&****;  &;;                                          ;;&  ;;;***",
"%@@**;  &;;                                          ;;&  ;;;***",
"*%@**;  &;;                                          ;;&  ;;;;**",
"*%@%*;  &;;                                          ;;&  ;;;;*%",
"%@@%%&  &;;                                          ;;&  *****%",
"%@%@$$  &;;                                          ;;&  ***%%%",
"%*%*;;  &;;                                          ;;&  *%%%%%",
"%%%%;;  &;;                                          ;;&  *%%%%%",
"*%%&&;  &;;                                          ;;&  *%%%*&",
"%%%&&;  &;;                                          ;;&  ;*%%*%",
"%%%&$&  &;;                                          ;;&  ;*%%*%",
"*%*&&&  &;;                                          ;;&  ;%@%%%",
"%%@$&;  &;;                                          ;;&  ;;**%*",
"**@$&;  &;;                                          ;;$  ;;**%%",
"***&&;  &;;                                          ;;$  ;;****",
"*%*;;;  &;;                                          ;;&  ;;****",
"*%*;;;  &;;                                          ;;&  ;*****",
"*%*;;;  &;;                                          ;;&  ;*****",
"%**;;;  &;;                                          ;;&  ;*****",
"%*****  &;;                                          ;;&  ;****;",
"%*****  &;;                                          ;;&  ;*%***",
"******  &;;                                          ;;&  ;%%%**",
"******  &;;                                          ;;&  &%O%**",
"**;;;;  &;;                                        & ;;&  &*%%**",
"******  &;;                                       ;$ ;;&  $*%O%*",
"******  &;;                                      ;;$ ;;&  &%@%@%",
"******  $;;                                    ;;;&$ ;;$  ;*%@@*",
"******  $;;                                  -;;&&&$ ;;$  **%@O*",
"******  $;;                                -#&;;;;;& ;;$  *%%%%*",
"%%****  $;;                            ###=#=;;;;;&& ;;$  %@O%%%",
"%%%***  $;;                           -##-==;;;;;;;& ;;&  *%***%",
"%%*;;;  &;;                        #;&;;#-.-==&;;;;& ;;&  ****;;",
"**%*;;  &;;                     #===-&;;===;-$;;;&&  ;;$  %*****",
"%%%%%&  &;;                   ##&.=-;&;;-;;;-;-;;    ;;$  %**%**",
"%%*%%&  $&; $&              &&$-$===&=&;;;;;;;;;  &$ ;&$  ******",
"*%%*%&  $$& $$$                                  &$$ &+$  ******"
};
