/* XPM */
static char *_900079043cd4b78bf022a2c8a26c258EwxdU7GcfXVwVVXY[] = {
/* columns rows colors chars-per-pixel */
"64 64 20 1 ",
"  c black",
". c #141417",
"X c #260404",
"o c #1C1B20",
"O c #1D1C20",
"+ c gray16",
"@ c #29282E",
"# c #3C3C3C",
"$ c #50090B",
"% c #730D11",
"& c #3C3A43",
"* c gray34",
"= c #585858",
"- c #565460",
"; c gray49",
": c #A51319",
"> c #ED1C24",
", c #7C798A",
"< c #B2B2B2",
"1 c white",
/* pixels */
"***;;;                                                    ---*;;",
"***;;;                                                    -&&;;;",
"*;***;  O&&---------------------------------&&-------&&O  ,-#;;;",
"****,,  &&,,,,,,,,,,,,,,,,,,,,,,,,,,,,,,,,,,,,,,,,,,,,&&  --##;;",
"**;*-,  &,,                                          ,,-  ,-*#*;",
"*;;;-,  -,, o@@&&&&&&&@&O;=@@&*=&&..=@&&&:           ,,-  ,,;**;",
";;;;,,  -,, @&&-,,,,,,,,,11,,,<;,,,,1,,,,,::$        ,,-  ,*****",
";;;;,,  -,, @&-,,,,,,,,,,11,,,1;,,,,<,,,,>,>X        ,,-  ,;;;;;",
";;**,,  -,, &&-,,,,,,,,,,1;,,,1<,,,,1,,,,,>&         ,,-  ,;;;;;",
";;*;,,  &,, &,,-,,,,,,,,,<1,,,11,,,,<,,,,,,,         ,,&  ;;;;;,",
";;*;-,  &,, -,,,,,,,,,,,,,,<1;,,,,111<1,,,,          ,,&  ;;;;;,",
";*;*--  &,, -,,,,,,,,,,,,,,1;<,,,,11<11,,,,          ,,&  ;;;;;,",
";*;;*-  &,, -,,,,,,,,,,,,,,,,,,,,,,,,,,,,,           ,,@  ;;;;;,",
"***;*-  &,, ,,,,,,,,,,,,,,,,,,,,,,,,,,,,,            ,,@  ;;;;;,",
";;;;;,  -,, ,,,,,,,,,,,,,,,,,,,,,,,,,,,,             ,,-  ,;;;;;",
",;;;;,  -,, ,,,,,,,,,,,,,,,,,,,,,,,,,,,,             ,,-  ,;;;;;",
",;;;;,  -,, ,,,,,,,,,,,,,,,,,,,,,,,,,,,              ,,-  ;;;;;;",
",;;;;,  -,, ,,,,,,,,,,,,,,,,,,,,,,,,,,,              ,,-  ;;;;;;",
",;;;;,  -,, ,,,,,,,,,,,,,,,,,,,,,,,,,                ,,-  ;;;;;;",
",;;;;,  -,, ,,,,,,,,,,,,,,,,,,,,,,,,                 ,,-  ;;;;;;",
",;;;;,  -,, ,,,,,,,,,,,,,,,,,,,,,,,                  ,,-  ;;;;;;",
",;;;;,  -,, ,,,,,,,,,,,,,,,,,,,,,,                   ,,-  ,;;;;,",
",;;;;,  -,, ,,,,,,,,,,,,,,,,,,,,                     ,,-  ,;;;;,",
",;;;;,  -,, ,,,,,,,,,,,,,,,,,,,                      ,,-  ,;;;;;",
",;;;;,  -,, ,,,,,,,,,,,,,,,,,                        ,,-  ,;;;;;",
",;;;;,  -,, ,,,,,,,,,,,,,,,                          ,,-  ,;;;;;",
",;;;;,  -,, ,,,>,,,,,,,,,                            ,,-  ,,;;;;",
"-*;;;,  -,, >,>,,,,,,,,,                             ,,-  ,,;;;;",
"-;;;;,  -,, :,::,,,,,,                               ,,-  ,,,;;;",
"*##;;,  -,,  :>,,,,,,                                ,,-  ,,,;;;",
";*#;;,  -,,  ::>,,,                                  ,,-  ,,,,;;",
";*#*;,  -,,    :,,                                   ,,-  ,,,,;*",
"*##**-  -,,                                     ,,,, ,,-  ;;;;;*",
"*#*#&&  -,,                                  ,,,,,,, ,,-  ;;;***",
"*;*;,,  -,,                               %%,,,,,,,, ,,-  ;*****",
"****,,  -,,                             %>:>,,,,,,,, ,,-  ;*****",
";**--,  -,,                            >>>>>,,,,,,,, ,,-  ;***;-",
"***--,  -,,                           >%:>::,,,,,,,, ,,-  ,;**;*",
"***-&-  -,,                         ::>:>:,,,,,,,,,, ,,-  ,;**;*",
";*;---  -,,                        ,>>,:>>--,,,,,,,, ,,-  ,*#***",
"**#&-,  -,,                       ,,,,,>>::>,,,,,,,, ,,-  ,,;;*;",
";;#&-,  -,,                      ,,,,,,>,,:>,-,,,,,, ,,&  ,,;;**",
";;;--,  -,,                    ,,,,,,,,,,->:,,,,,,,, ,,&  ,,;;;;",
";*;,,,  -,,                   ,,,,,,,,,-,%,,,,,,,,,, ,,-  ,,;;;;",
";*;,,,  -,,                  ,,>,>,,,,,,,,,,,,,,,,,, ,,-  ,;;;;;",
";*;,,,  -,,                 ,,::>>,,,,,,,,,,,,,,,,,, ,,-  ,;;;;;",
"*;;,,,  -,,               ,,,,>>>:,,,,,,,,,,,,,,,,,, ,,-  ,;;;;;",
"*;;;;;  -,,              ,,,,,>::,>,,,,,,,,,,,,,,,,, ,,-  ,;;;;,",
"*;;;;;  -,,             ,,,,,:>:,,,>>>,,,,,,,,,,,,,, ,,-  ,;*;;;",
";;;;;;  -,,           ,,,,,:>>:>>:::,,,,,,,,,,,,,,,, ,,-  ,***;;",
";;;;;;  -,,          ,,,,,,,>>:-:::>>,,,,,,,,,,,,,,, ,,-  -*+*;;",
";;,,,,  -,,         ,,,,,,,,,,>::::,>,,,,,,,,,,,,,,- ,,-  -;**;;",
";;;;;;  -,,        ,,,,,,,,,,,>:>>,>>,,,,,,,,,,,,,,& ,,-  &;*+*;",
";;;;;;  -,,       ,,,,,,,,,,,,>:,>-,,,,,,,,,,,,,,,,& ,,-  -*#*#*",
";;;;;;  &,,     ,,,,,,,,,,,,,-,-->:,,,,,,,,,,,,,,,-& ,,&  ,;*##;",
";;;;;;  &,,     ,,,,,,,,,,,,,,-,,,>>,,,,,,,,,,,,,--& ,,&  ;;*#+;",
";;;;;;  &,,    ,,,,,,,,,,,,,,,,,-,,>,,,,,,,,,,,,,,,- ,,&  ;****;",
"**;;;;  &,,   ,,,,,,,,,,,,,,,,,,,,,,,,,,,,,,,,,,,,-- ,,&  *#+***",
"***;;;  &,,   ,,,,,,,,,,,,,,,,,,,,,,,,,,,,,,,,,,,,,- ,,-  ;*;;;*",
"**;,,,  -,, -,,,,,,,,,,,,,,,,,,,,,,,,,,,,,,,,,,,,,,- ,,-  ;;;;,,",
";;*;,,  -,,  --,,,,,,,,,,,,,,,,,,,,,,,,,,,,,,,,,,--  ,,&  *;;;;;",
"*****-  -,,    ,,,,,,,,,,,,,,,,,,,,,,,,,,,,,,,,,,    ,,&  *;;*;;",
"**;**-  &-, &-  ,,,,,,,,,,,,,,,,,,,,,,,,,,,,,,,,  -& ,-&  ;;;;;;",
";**;*-  &&- &&&                                  -&& -@&  ;;;;;;"
};
