/* XPM */
static char *_b9286c27d4e434e864c8a5f3004f2ccejEez9HOkf7FjsvO[] = {
/* columns rows colors chars-per-pixel */
"64 64 18 1 ",
"  c black",
". c #1C1B20",
"X c #1D1C20",
"o c gray16",
"O c #29282E",
"+ c #3C3C3C",
"@ c #50090B",
"# c #730D11",
"$ c #3C3A43",
"% c gray34",
"& c #585858",
"* c #565460",
"= c gray49",
"- c #A51319",
"; c #ED1C24",
": c #7C798A",
"> c #B2B2B2",
", c white",
/* pixels */
"%%%===                                                    ***%==",
"%%%===                                                    *$$===",
"%=%%%=  X$$*********************************$$*******$$X  :*+===",
"%%%%::  $$::::::::::::::::::::::::::::::::::::::::::::$$  **++==",
"%%=%*:  $::                                          ::*  :*%+%=",
"%===*:  *:: .OO$$$$$$$O$X=&OO$=&$$&&&O$$$$$$@$#@-    ::*  ::=%%=",
"====::  *:: O$$*:::::::::,,:::>=::,>,:::-::-*-*@     ::*  :%%%%%",
"====::  *:: O$*::::::::::,,:::,=::==>::::::*;---     ::*  :=====",
"==%%::  *:: $$*::::::::::>>:::,>::::,::::::*:*;;     ::*  :=====",
"==%=::  $:: $::*:::::::::,,:::,,::::,::::::::::-     ::$  =====:",
"==%=*:  $:: *::::::::::::,,:::,,::::>:::::::::       ::$  =====:",
"=%=%**  $:: *::::::::::::,=:::,,::::,::::::::        ::$  =====:",
"=%==%*  $:: *::::::::::::>,:::,,::::>:::::::         ::O  =====:",
"%%%=%*  $:: :::::::::::::::>,=::::,,,>,::::          ::O  =====:",
"=====:  *:: :::::::::::::::,=>::::,,>,,::::          ::*  :=====",
":====:  *:: ::::::::::::::::::::::::::::::           ::*  :=====",
":====:  *:: :::::::::::::::::::::::::::::            ::*  ======",
":====:  *:: :::::::::::::::::::::::::::::            ::*  ======",
":====:  *:: :::::::::::::::::::::::::::              ::*  ======",
":====:  *:: ::::::::::::::::::::::::::               ::*  ======",
":====:  *:: :::::::::::::::::::::::::                ::*  ======",
":====:  *:: :::::::::::::::::::::::                  ::*  :====:",
":====:  *:: ::::::::::::::::::::::                   ::*  :====:",
":====:  *:: ::::::::::::::::::::                     ::*  :=====",
":====:  *:: :::::::::::::::::::                      ::*  :=====",
":====:  *:: :::::::::::::::::                 :::::: ::*  :=====",
":====:  *:: ::::::::::::::::                 ::::::: ::*  ::====",
"*%===:  *:: :::::::::::::::                 :::::::: ::*  ::====",
"*====:  *:: ::::::::::::::                 ::::::::: ::*  :::===",
"%++==:  *:: :::::::::::::                *:::::::::: ::*  :::===",
"=%+==:  *:: ;::::::::::                 -::::::::::: ::*  ::::==",
"=%+%=:  *:: -;:-*:::::                 #;::::::::::: ::*  ::::=%",
"%++%%*  *:: -#;:::::                 -@;;::::::::::: ::*  =====%",
"%+%+$$  *::   --:::                 ----;;:::::::::: ::*  ===%%%",
"%=%=::  *::      :                #-;##--;:::::::::: ::*  =%%%%%",
"%%%%::  *::                      *--;---;-:::::::::: ::*  =%%%%%",
"=%%**:  *::                    :::::;;-;;::::::::::: ::*  =%%%=*",
"%%%**:  *::                   ::::::::;-:*:::::::::: ::*  :=%%=%",
"%%%*$*  *::                  ::::::::::;:::::::::::: ::*  :=%%=%",
"=%=***  *::                  :::::::::;:-::::::::::: ::*  :%+%%%",
"%%+$*:  *::                 ::::::::::-::::::::::::: ::*  ::==%=",
"==+$*:  *::               :::::::::::::::::::::::::: ::$  ::==%%",
"===**:  *::               :::;:::::::::::::::::::::: ::$  ::====",
"=%=:::  *::              :::::::-::::::::::::::::::: ::*  ::====",
"=%=:::  *::             :::;:;;;:::::::::::::::::::: ::*  :=====",
"=%=:::  *::           ::::::;-;:;:;::::::::::::::::: ::*  :=====",
"%==:::  *::          :::::::;-#-:-;::::::::::::::::: ::*  :=====",
"%=====  *::         :::::::;-@-;;-:::::::::::::::::: ::*  :====:",
"%=====  *::        :::::::::;;::-*;::::::::::::::::: ::*  :=%===",
"======  *::      :::::::::;::;-;-*;;:::::::::::::::: ::*  :%%%==",
"======  *::     ::::::::::::;;--;;:::::::::::::::::: ::*  *%o%==",
"==::::  *::    ::::::::::::**;---::::::::::::::::::* ::*  *=%%==",
"======  *::   :::::::::::::::*;;;::::::::::::::::::$ ::*  $=%o%=",
"======  *::  ::::::::::::::::::;;::::::::::::::::::$ ::*  *%+%+%",
"======  $::  *:::::::::::::::::;;:::::::::::::::::*$ ::$  :=%++=",
"======  $:: $$*:::::::::::::::;;*::::::::::::::::**$ ::$  ==%+o=",
"======  $:: **::::::::::::::::::*::::::::::::::::::* ::$  =%%%%=",
"%%====  $:: *:::::::::::::::::::::::::::::::::::::** ::$  %+o%%%",
"%%%===  $:: *::::::::::::::::::::::::::::::::::::::* ::*  =%===%",
"%%=:::  *:: *::::::::::::::::::::::::::::::::::::::* ::*  ====::",
"==%=::  *::  **::::::::::::::::::::::::::::::::::**  ::$  %=====",
"%%%%%*  *::    ::::::::::::::::::::::::::::::::::    ::$  %==%==",
"%%=%%*  $*: $*  ::::::::::::::::::::::::::::::::  *$ :*$  ======",
"=%%=%*  $$* $$$                                  *$$ *O$  ======"
};
