/* XPM */
static char * fo_text_xpm[] = {
"64 64 6 1",
" 	c #0F0B15",
".	c #181321",
"+	c #431F78",
"@	c #311954",
"#	c #281443",
"$	c #3A1C64",
"  .  .++@.    ..  .  .++@.    ..  .  .++@.    ..  .  .++@.    ..",
" #  #@    @+$.   #  #@    @+$.   #  #@    @+$.   #  #@    @+$.  ",
". .#.   #   #+# . .#.   #   #+# . .#.   #   #+# . .#.   #   #+# ",
"  #  .##@    .    #  .##@    .    #  .##@    .    #  .##@    .  ",
" #++$# ..#. ##@  #++$# ..#. ##@  #++$# ..#. ##@  #++$# ..#. ##@ ",
"#$#.. .  .    ###$#.. .  .    ###$#.. .  .    ###$#.. .  .    ##",
"       #$+# ..         #$+# ..         #$+# ..         #$+# ..  ",
" #@@#    #+@  .# #@@#    #+@  .# #@@#    #+@  .# #@@#    #+@  .#",
"    .#.    ##. .    .#.    ##. .    .#.    ##. .    .#.    ##. .",
"##.     .#   #. ##.     .#   #. ##.     .#   #. ##.     .#   #. ",
"     #.   .    .     #.   .    .     #.   .    .     #.   .    .",
"  ##@+$@  #+@     ##@+$@  #+@     ##@+$@  #+@     ##@+$@  #+@   ",
".# @+@ ##  .+@ ..# @+@ ##  .+@ ..# @+@ ##  .+@ ..# @+@ ##  .+@ .",
" .     @+#     # .     @+#     # .     @+#     # .     @+#     #",
"    .#.  +$# .      .#.  +$# .      .#.  +$# .      .#.  +$# .  ",
"  #          #    #          #    #          #    #          #  ",
"  .  .++@.    ..  .  .++@.    ..  .  .++@.    ..  .  .++@.    ..",
" #  #@    @+$.   #  #@    @+$.   #  #@    @+$.   #  #@    @+$.  ",
". .#.   #   #+# . .#.   #   #+# . .#.   #   #+# . .#.   #   #+# ",
"  #  .##@    .    #  .##@    .    #  .##@    .    #  .##@    .  ",
" #++$# ..#. ##@  #++$# ..#. ##@  #++$# ..#. ##@  #++$# ..#. ##@ ",
"#$#.. .  .    ###$#.. .  .    ###$#.. .  .    ###$#.. .  .    ##",
"       #$+# ..         #$+# ..         #$+# ..         #$+# ..  ",
" #@@#    #+@  .# #@@#    #+@  .# #@@#    #+@  .# #@@#    #+@  .#",
"    .#.    ##. .    .#.    ##. .    .#.    ##. .    .#.    ##. .",
"##.     .#   #. ##.     .#   #. ##.     .#   #. ##.     .#   #. ",
"     #.   .    .     #.   .    .     #.   .    .     #.   .    .",
"  ##@+$@  #+@     ##@+$@  #+@     ##@+$@  #+@     ##@+$@  #+@   ",
".# @+@ ##  .+@ ..# @+@ ##  .+@ ..# @+@ ##  .+@ ..# @+@ ##  .+@ .",
" .     @+#     # .     @+#     # .     @+#     # .     @+#     #",
"    .#.  +$# .      .#.  +$# .      .#.  +$# .      .#.  +$# .  ",
"  #          #    #          #    #          #    #          #  ",
"  .  .++@.    ..  .  .++@.    ..  .  .++@.    ..  .  .++@.    ..",
" #  #@    @+$.   #  #@    @+$.   #  #@    @+$.   #  #@    @+$.  ",
". .#.   #   #+# . .#.   #   #+# . .#.   #   #+# . .#.   #   #+# ",
"  #  .##@    .    #  .##@    .    #  .##@    .    #  .##@    .  ",
" #++$# ..#. ##@  #++$# ..#. ##@  #++$# ..#. ##@  #++$# ..#. ##@ ",
"#$#.. .  .    ###$#.. .  .    ###$#.. .  .    ###$#.. .  .    ##",
"       #$+# ..         #$+# ..         #$+# ..         #$+# ..  ",
" #@@#    #+@  .# #@@#    #+@  .# #@@#    #+@  .# #@@#    #+@  .#",
"    .#.    ##. .    .#.    ##. .    .#.    ##. .    .#.    ##. .",
"##.     .#   #. ##.     .#   #. ##.     .#   #. ##.     .#   #. ",
"     #.   .    .     #.   .    .     #.   .    .     #.   .    .",
"  ##@+$@  #+@     ##@+$@  #+@     ##@+$@  #+@     ##@+$@  #+@   ",
".# @+@ ##  .+@ ..# @+@ ##  .+@ ..# @+@ ##  .+@ ..# @+@ ##  .+@ .",
" .     @+#     # .     @+#     # .     @+#     # .     @+#     #",
"    .#.  +$# .      .#.  +$# .      .#.  +$# .      .#.  +$# .  ",
"  #          #    #          #    #          #    #          #  ",
"  .  .++@.    ..  .  .++@.    ..  .  .++@.    ..  .  .++@.    ..",
" #  #@    @+$.   #  #@    @+$.   #  #@    @+$.   #  #@    @+$.  ",
". .#.   #   #+# . .#.   #   #+# . .#.   #   #+# . .#.   #   #+# ",
"  #  .##@    .    #  .##@    .    #  .##@    .    #  .##@    .  ",
" #++$# ..#. ##@  #++$# ..#. ##@  #++$# ..#. ##@  #++$# ..#. ##@ ",
"#$#.. .  .    ###$#.. .  .    ###$#.. .  .    ###$#.. .  .    ##",
"       #$+# ..         #$+# ..         #$+# ..         #$+# ..  ",
" #@@#    #+@  .# #@@#    #+@  .# #@@#    #+@  .# #@@#    #+@  .#",
"    .#.    ##. .    .#.    ##. .    .#.    ##. .    .#.    ##. .",
"##.     .#   #. ##.     .#   #. ##.     .#   #. ##.     .#   #. ",
"     #.   .    .     #.   .    .     #.   .    .     #.   .    .",
"  ##@+$@  #+@     ##@+$@  #+@     ##@+$@  #+@     ##@+$@  #+@   ",
".# @+@ ##  .+@ ..# @+@ ##  .+@ ..# @+@ ##  .+@ ..# @+@ ##  .+@ .",
" .     @+#     # .     @+#     # .     @+#     # .     @+#     #",
"    .#.  +$# .      .#.  +$# .      .#.  +$# .      .#.  +$# .  ",
"  #          #    #          #    #          #    #          #  "};
