/* XPM */
static char *_67aabffdff1437e875514ef89f82a75acFe2jEN7DlNhVft[] = {
/* columns rows colors chars-per-pixel */
"64 64 8 1 ",
"  c gray16",
". c #3E3E3E",
"X c #464646",
"o c gray34",
"O c #585858",
"+ c gray49",
"@ c gray70",
"# c #B4B4B4",
/* pixels */
"#######++XXX#XXX#########X####XX###XXXX#XXXXXXXXX#X##X#X##+++o##",
"#######++X#X##XX#XX#######XX#XX#X#X#XXX#XXXX#XXXXXX##X#XX#+O####",
"##o####+X++#XX###########X####X#XXX#XXXXX#XXXXXX#XX#XX#O+#######",
"######++X+XX#XX#####X#####XXX#X#XXXXXXXXXXXXX#XX#XXX#XX+#####.+#",
"####+#####X#X###XX##X####+#XX+X+++XXX##XXXXXXXX#X#X#XXX#+##+o.o#",
"####+#XXX#X#XX+XX#X###+#OOXX+XO.##.XXXXXXXXX#X#X#XXXXXX#####+oo#",
"#########X##X#X###X#######X#X#+XXX#XXX###XXXX#X#X##XXX#####ooo##",
"############++XX#@##X######XXX#X###XXXXXXX#XX####XXXXX#####+++##",
"########X###X##@##@##########XX##X#++X+XXX###XXXXXXX#X##########",
"+#######+#X###@X@#@#############XXX##X##X#XXXX##X#XX#X#+########",
"###++###+###XX#@@#@@+##++###########+X##XXXXXXXXX#XX++#++#+++###",
"##+o++##+######@@@#@@##++##############X#X##XXX+XX+X+##++#++###+",
"##++o+##+###+##@@@##@@#########+++########XX#XX#O+#++##O.#++###+",
"##o+o+##+#######@++##@###++++#++++########X#X#XX+#++#+#O@+++##+#",
"#+++XX################@##++++#+++##############+#+##+#+##+++####",
"X+XXX#XXXX#######+####@##+++++###############+O#######+#++#+####",
"#+++X###XX###############++++++#############++.###+++####+++####",
"#+X++####XX#X##@#@####++####+++############+++######+#+##+++####",
"X++X+#####X#XX###@###@++#############################+++#+++####",
"#+++X#####X#XX#######@@##########################++##+#+#++++###",
"#X+++XX###X#X########################################+++##+++###",
"##+++X#######X#############X#X########################++++#++###",
"###X+X##XX#X##X########XXX#XXXXXX#############+###++###++##++###",
"####+#X#XX###X++#######XX###X#XXX###########+########++####++###",
"#X###X###XX#++X++####XXXX#XXX#XXXXX################++++####++##+",
"#X####X+XX#X+++#++#+##XXXXX#XXXXXXX##################+#####+####",
"#####X#++++X++++++++XXXXXX#XXXXXXXX#####################++#+####",
"####+##++##X+X#+###XX#X#X#XXX##XXXX#X#####X##X##################",
"X##+XX##XXX+++##++XXXXXX#XXXXXXXXXXX#X#X########################",
"###X+++XXX++XX+###++XXXXX#XXX#X##XXXX#X#XX####X#XX##############",
"##.+++###+##+X#+#++X+++XXXXXXXXXXXXXXXX#X###X##X#XX###########+#",
"##.X++##X+++####+#X#XXXXXXXX##X#XXXXXXX##XXX###X#X#X############",
"#..XX+X++###+#####+X+++XXXXXXXXXXXXXXX#XXX###X#XX#########+#####",
"#.oX++X##++++#+++++#+#+++XX##XXXXXXXXXXX##X#X###X#X#######++##o#",
"##o+++#X+#+#++##+++#+XXX++X+XXXXX#X#X#X#XXXXXX#X#XXX######+o##o#",
"##oo+++##+##++++++++++XX#XX+XXX#XX#XXXXXXXXXX##X##X#X#####+o##o#",
"##o+++##+++#+##++#+X+++++XX#XXXXXX#X#XXX#X#XXXXXXX##XX####+o####",
"###+++++##+##+++++#++++++X#+++#XXX##X#X##X####XX##X########+o###",
"###+O+++#+++++##++#+++#XXXX+X++XXXXX#XX#XXX###XXX##X#######+o###",
"####+++##+#+++##+#++++#+++++XX+XXXXX#XX#X#XXXX####XX#X#####o.o##",
"####+#+++##+#++++++#++XX+X++X++XXX##X###XX#XXX##X###X#######++##",
"####+###++##+++++###++XX+XXXX+XXX#XXXXXX##X#X#X##XX#########++##",
"####+#####+++++++##+##+#+#++#++XXX#X##X####XXXX#X#XXX#######++##",
"#############+#++#####+##+#+X++X#####X#X#####XXX#X##########++##",
"############++###+#####+###++++#####X####XXX#XXXX#X########+++##",
"#o############+####+########++########X#X#XXX#X#XX#########+++##",
"#+#########+#+##++#+++++++#+##########X#XXXXXX#X#XXX#######++###",
"#+##++#######++++++#++#######+#####XXXX#X#X#X##X##XX#######++###",
"#+##++######+#####+##+###+#++###########X#X##XXX##X########+o##+",
"####++######+##+#+#+#+################X###XX#X###X#X#######oo###",
"####++######+####+##++###+###########XX####X#XX####X#XX###+o ###",
"############+####+#+##++###########X###X####XXX#X#XXX#####++oo##",
"###+++######O########################XXXXXX##X###X#XXX####O+o###",
"############O##########################X###XX###X#XX+XX###+o.###",
"########+###O+#######################X#XX#####XX#X+O+XX+###+o###",
"#++#####+###OO+#####################X####X#X#X##XXXXX##+##++####",
"########+###++#####################X#X#X####XX##X#X+###+##+o####",
"####++##+###+#######################XXX##X#XXX##XXXX###+##o#####",
"##o+++##+###+################################XXX####X#####+####o",
"##+#########+########################+##X#XXX#XX#XX#######+#####",
"###+##++####+++###############++#####+##XX#XXO##XX########o+####",
"###oo+++#############################+####X#####X#########o++o##",
"###oo++++++#################++O#####+#+#######X########+++++++##",
"###+o++++++++#########################################++++++++##"
};
