/* XPM */
static char *b4b9c2f43c4d44189bef6b38de26e4edUP0seQTitaMF4BMv[] = {
/* columns rows colors chars-per-pixel */
"64 64 151 2 ",
"   c #44444F",
".  c #454651",
"X  c #474954",
"o  c #4A4B56",
"O  c #4C4E59",
"+  c #4E535D",
"@  c #50545F",
"#  c #515661",
"$  c #545A64",
"%  c #585F67",
"&  c #575D68",
"*  c #585E69",
"=  c #566166",
"-  c #586267",
";  c #576168",
":  c #5A646B",
">  c #5C696E",
",  c #5D6770",
"<  c #5E6B72",
"1  c #616D75",
"2  c #636F78",
"3  c #627176",
"4  c #65737B",
"5  c #69757F",
"6  c #67787D",
"7  c #687A7F",
"8  c #697681",
"9  c #6C7C84",
"0  c #6F7F88",
"q  c #6D8186",
"w  c #6F8189",
"e  c #72858D",
"r  c #74888F",
"t  c #748691",
"y  c #768A92",
"u  c #788D96",
"i  c #7A8E99",
"p  c #799097",
"a  c #7D939C",
"s  c #7F989F",
"d  c #7F97A0",
"f  c #7F98A0",
"g  c #80949F",
"h  c #8097A1",
"j  c #829BA4",
"k  c #859FA9",
"l  c #87A3AC",
"z  c #87A2AC",
"x  c #86A1AA",
"c  c #88A2AB",
"v  c #88A3AB",
"b  c #88A1AC",
"n  c #89A1AC",
"m  c #88A2AC",
"M  c #88A3AC",
"N  c #89A3AC",
"B  c #89A2AD",
"V  c #88A3AD",
"C  c #89A3AE",
"Z  c #88A4AD",
"A  c #88A4AE",
"S  c #89A4AE",
"D  c #89A5AF",
"F  c #8AA6AF",
"G  c #89A3AD",
"H  c #8AA5B0",
"J  c #8AA6B0",
"K  c #8BA6B0",
"L  c #8BA7B0",
"P  c #8AA7B1",
"I  c #8CA7B1",
"U  c #8BA6B1",
"Y  c #8BA8B1",
"T  c #8BA8B2",
"R  c #8BA9B2",
"E  c #8CA8B2",
"W  c #8DA9B2",
"Q  c #8DA8B3",
"!  c #8CA9B3",
"~  c #8DA9B3",
"^  c #8DAAB3",
"/  c #8DA9B4",
"(  c #8DABB4",
")  c #8EAAB4",
"_  c #8EABB4",
"`  c #8EABB5",
"'  c #8FABB5",
"]  c #8EACB5",
"[  c #8FACB6",
"{  c #8FADB7",
"}  c #8DAAB4",
"|  c #8FADB8",
" . c #90ACB6",
".. c #90ADB7",
"X. c #90AEB8",
"o. c #91AFB9",
"O. c #91AFBA",
"+. c #91AFB9",
"@. c #92B0BA",
"#. c #92B0BB",
"$. c #92B1BB",
"%. c #93B2BC",
"&. c #95B4BE",
"*. c #94B4BF",
"=. c #95B4BF",
"-. c #95B5BF",
";. c #94B2BD",
":. c #96B5C0",
">. c #96B6C0",
",. c #96B6C1",
"<. c #97B6C1",
"1. c #97B7C1",
"2. c #97B7C2",
"3. c #96B6C0",
"4. c #98B7C2",
"5. c #98B7C2",
"6. c #97B8C2",
"7. c #97B8C2",
"8. c #98B8C3",
"9. c #99B8C3",
"0. c #99B9C4",
"q. c #99BAC4",
"w. c #99BAC5",
"e. c #9ABAC5",
"r. c #9ABBC6",
"t. c #9BBBC6",
"y. c #9ABBC7",
"u. c #9ABCC7",
"i. c #9BBCC7",
"p. c #9CBCC6",
"a. c #9ABAC5",
"s. c #9BBCC8",
"d. c #9BBDC8",
"f. c #9CBDC8",
"g. c #9CBDC9",
"h. c #9CBEC9",
"j. c #9DBEC9",
"k. c #9DBECA",
"l. c #9DBFCA",
"z. c #9EBFCB",
"x. c #9DBEC9",
"c. c #9EC0CA",
"v. c #9EC0CB",
"b. c #9EC0CC",
"n. c #9FC0CC",
"m. c #9FC1CD",
"M. c #9EC0CC",
"N. c #A0C3CF",
"B. c #A1C3CF",
"V. c #A0C4CF",
"C. c #A0C2CE",
/* pixels */
"8 i a g a a a a a a a a o 5 g a a a a a a a a a t $ e a a a a a a a a a g e # t a a a a a a a a a a 4 O i a a a a a g a a a a 4 ",
"a s a 4.w.m x d k ! j e o t y p f.8.x m s k / k e $ j r k i.$.k k d x  .u 9 & m q j f.$.x x h x [ p 1 + F e / v.I v j s F / t 4 ",
"a a j f.h s y u x 1.j 4 o t y j =.j s y a x 8.k 4 # h q o.&.f s y a ! s.r 1 $ m q / / s s y d Y i.y : + x e 1./ s a y d o.6.9 < ",
"a 1.f.j h u u j 8.v.F j o y i.n.s d y u x 1.p.F u # m w.1.h s r a x f.s.x y & / f.1.s h y a Y v.&.x 4 + 1.f./ s a r d L V.&.k 8 ",
"a w.h h r u x w.s.L s r o i 1.s f y a x v.w.x f 9 # ! 1.s s r a Y f.=.x a 9 $ o.! s a r d I n.=.k a < + f.! s a r f $.C.[ k u 1 ",
"a m s u u j 1.v.L j y u o y k d y u z 1.w.Y s y r # k h s y a v f.w.z s r w & L s s y a ! w.=.x a y 4 + [ h a y d Y f.=.k a y 4 ",
"a x y u x 1.w.F h y s / O y j y a x w.w.x s y s k & k f r a ! w.=.x a y h h & L a y d ! n.=.k a y h e @ / a y d o.f.[ k u y x r ",
"a d u j 8.v.F j r u ! 1.O t a y x 1.w.F f y a / m $ j y a m f.f.x s r a %.k & m r a ! f.=.x a r h $.r $ F y d Y C.=.k a r h =.r ",
"a k x 8.s.L h r a ! o.f o t j x f.t.x f r a $.$.y # j s I f.=.x a r h %.Y r & m f ! n.=.k a y h 1.! 4 # F h $.C.[ k u r m &.x 4 ",
"a ! 1.v.L j y u ! $.h y o y / 1.w.L s y a !  .h 9 # k F i.w.z s y s o.o.a 9 * L Y w.=.x a y h o.I s < + [ / f.=.k a y h &.I u 1 ",
"a j j L h y s ! o.h 9 4 o y h k x s y a $.o.a 9 4 # k p L x a r h o.Y a 4 2 $ L y F k a y h %.! u 4 : @ / a L k u y v &.x y 4 < ",
"a e 4 k r u / 1.h y 4 = o t 7 6 h y a / $.h r 4 - # h < r d r a &.o.a r < = $ k : r a r h $.! s e < # @ j > a a r h &.! y e : & ",
"o O o o o o o O o o o o . O o o o o o o O o o o o . O o o o o o o O O + o o . O o o o o o o O o o o .   O o o o O + o o o o o o ",
"y t t y y 0 + 5 r t y i y y t t y y 8 . e t t y y t y t t y t 9 O 0 t y u y t y t t y t 1 + t r y y y t t t y y t < : t r y u y ",
"k a j / s 4 # g 6 y v.=.j j a j $.s 1 o v q j C./ j h a x [ r 4 # h 6 j C./ k h a x / w , & h 4 o.n.m k a a F o.4 : 5 k 6  .w.x ",
"r u z w.j 4 # g 9 k =.s f y a x n.j 1 o m r o.1.s s r a Y w.y 3 # h w &.! s a r h ! w.r > & h 9 f.! s a r d $.f.7 : 5 x y w.k s ",
"a z f.i.x a # g n.&.s f r a ! n.&.x r o o.n.! s a r f Y C.=.k t # I v.! d a y f $.v.[ k 4 & 4.n.k s u y j $.f./ j 3 5 w.f.k d u ",
"z 1.w.F s r # g &.j s y a z i.w.x s 9 O o.&.d s r a ! f.&.x a 9 # ! / s a y f ! f.&.k a 1 & 4.! s a y h $.f.[ k u < 5 i.x s u y ",
"f.w.x d r y & g d s y a ! i.=.x a y r o L j a r f ! f.=.k a y y # k d a y d o.v. .k u y 4 & F s u y k o.v.[ h u u 4 5 ! f u u j ",
"i.F s r s k - g h y a x v.w.x d r s h o ! j r a ! f.&.x a r j j # v a r f ! v.&.j a y j e & ! a y f %.C./ k u y z 0 5  .u y k o.",
"x s r s %.L $ g y a ! n.&.x a r k $.s o m a f ! C.=.k a y j &.h # j y h $.v. .j u y m 1.9 & k r k $.f./ j u u m =.9 5 v u j 8.n.",
"s y s ! o.a # g s m w.w.x s y s $. .r o m j ! f.=.x a r h o.L r # k h ! v.=.k a y j %.! 4 & x f $.f.[ k u y x &.x 2 5 I k $.f.[ ",
"r a  .o.a w # g L w.=.x a y j $.L a 9 o ! / f.&.k a y j &.L u 9 # m | v. .k u y x %.x y < & /  .f.[ h u u x $.x r 1 8 o.=.f.L j ",
"p s ! d 9 3 # g p k x f r s $.o.a 9 1 o I s m x a y j %.L a 4 4 # k a L k a y j =.L y 4 < * F u Y k u y z =.k y 3 < 8 ! s F j u ",
"d w e 9 4 - + y < 4 y 9 y k j y 9 4 & o h 4 w y 9 y m j e 9 < - @ u > e e 9 a F s e 9 > % * y : y e e a L s 9 9 = # 2 a : y 0 w ",
"# + @ # # + o # @ # # # + $ $ # # # + X & # # # @ + & $ # # + + o $ @ # # @ + & # # # + @ O $ + $ # + + & # # # + O + & + # @ + ",
"9 9 s m I k k j j k k s o 0 h h L L k k h j k k y # i s k F m j k j k k h t $ d a k L F k k h k x h 8 + j s k I x k j h k x h 9 ",
"y 1 9 w.1.h h y s F u < o t 7 q n.1.h j y s Y a 1 # d 3 s f./ h s y j / 9 < $ k > s n./ h s u j / q - + j 3 L C.k h a y x L 4 > ",
"u q [ 4.s s y a I p.L r o y h $./ s s r f Y v.L 9 # k a w. .h a r d o.C.s 9 & F s 1.x s u y j o.n.f 1 # ! h 8.k f u u j 1.f.u 4 ",
"i x $.h s y a v s.w.z d o u f.1.s s y a ! w.=.x y # L f./ h a r d I f.=.k r $ / f./ s a y d o.n. .k 4 $ 8.f.x s u y j o.v. .j 4 ",
"y a a s r a ! f.=.z a r o u / s a y d Y n.=.k a 9 # F / h a y d $.f.[ k u 9 *  .x s u y j $.f.[ j u 1 @ 6.x s u u j 1.v.L j y 1 ",
"i r a t a v f.s.x d r a o y j h r a L v.=.x a r y # k h a r d L C.=.k a y r - m s a y f o.n.[ k u y 4 + L d u r j o.f.[ k u u 8 ",
"y q r a ! p.=.x a y h %.O y h y d Y n.=.k a y h m - k s y d o.C.[ k u y v k & L u y j o.n.[ j u u x t + / u u j 1.f.F j r u ! y ",
"u e u x f.w.z d r a o.o.o t a a Y i.=.x a y h $.j & j y d ! f.=.k a y h &.h & m y d o.n.[ k u u x $.0 + m y j o.v. .j u u x $.e ",
"i r F f.=.z a r h o.! a O y x Y n.=.k a y h %.! e # k h o.f.| k u y v &.x w $ F j o.f. .j u u x &.x 1 + ! k 1.f.L j y u ! %.h 2 ",
"y y 8.f.x d y a $.o.a r O y o.f.=.x a r h o.! a 9 # x ! n.=.k a y h &.I u 9 $ L o.n.[ k u y x 1.x u < + o.$.f.[ k u u x =.x y 1 ",
"i 9 r x a r h %.! a 4 > o t e y k a y h 1.! y 4 > + j 9 s k u y x &.x u < : $ m 4 s j u u x &.x r < & + x 9 j k r u ! =.h r > - ",
"r 9 4 i 9 r k m y 0 4 : o 9 4 4 y 0 y k k y 9 4 - + u 1 w y 0 y m k r 9 < - # s : 9 r 9 i x h r 9 < $ + a < y r w a m h e 9 > & ",
"e h h m L k k j j k k s o 0 h h m m k k h j k k u & a s k m m j k j j k h t $ h a j F m j k h j k h 8 + k s k F k k k h k k h 9 ",
"a y r w.w.j j u h L a 4 o t 9 w n.1.j k u h ! s 4 # h 4 s f. .h h u j / q 1 $ x 3 s n.[ j h a k / w : + k 4 ! V.v k a u x Y 7 < ",
"a j ! 8.s s y a F w.F w o y s [ [ s a r s L f.F 9 # k u 8. .s s r s [ n.a 9 & F p =.x s a y h [ v.s 1 + L s w.x h u u j 1.s.y 2 ",
"a w.1.h s y a x i.w.z f o y f.1.d s y a L w.1.x y # L s.[ h a r s L f.1.k r & / f. .d s y s o.v.o.k 4 + 8.f.m s u y j  .n.o.j 4 ",
"a %.h s r a L f.1.F s r o u  .s a y s L v.1.k a 9 # L [ s a y s o.f.o.k u 9 $  .x d u y j o.f.o.j u < + 8.m s u y j 1.n.Y j y 1 ",
"a k s y a x w.f.x h y a o y j f r a L f.1.m a r t # k s s y s L n.1.k s r r & F s a y s [ v.o.k u y 4 + ! h u r j o.v.o.j u u 8 ",
"a x y a F w.1.x s y h $.O y h r s L f.1.k a y h m & k s r g  .C.o.k u r x k & L u y j [ C.o.j u y x r #  .u u j 1.n.Y j y u ! y ",
"a d a x s.w.F h r a o.$.O t a a L w.1.z a y h o.k $ j y s ! f.1.k a y h &.h & m y s o.n.o.k u y x $.e $ m y j o.n.o.j u u x %.e ",
"a x L s.1.m s r f [ ! a o y k F v.1.k a y h $./ r # k h  .f.o.k u y x &.z e * m j o.f.o.j u u x &.m 2 @ Y j 1.n.Y j y y ! &.j 4 ",
"a / w.f.x h y a o.$.s r o y [ f.1.z a r h o.! a 9 # v ! n.1.k s r f &./ u 9 * L [ v.o.k u y x &.m u < + o.o.n.o.j u u k =.x y 1 ",
"a a u v s y h $./ s 4 < o t y p k a y h 1./ u 4 1 # k q h k u r x &.z u 1 < $ m 9 s j u y x &.m r 1 ; + F q k j y u ! =.h r < : ",
"t 9 3 u 9 e j m y 9 3 = o 9 4 4 y 9 y j k y 9 3 - @ y < 9 y 9 t v k r 9 > & # a - 9 r 9 u k h r 9 > # + a > r r 9 u v h 0 9 : $ ",
"$ $ # $ # # o # $ # # # # & $ # $ # # X $ $ # # # + $ # $ $ # # o # & & # # + $ # $ # # + O $ $ $ # # + $ # $ # & @ + $ # $ # # ",
"m k k m x s $ r j k F I k x k k m x y o h k k L L k x k k m k i @ a k x L F k x k k m k 9 $ j j m L m k k k x m k 8 1 k j m L m ",
"s y s F y : @ g : q f.[ s a y d o.y = o k 3 s C.k s u r j ! 6 : # s : s n.x s u y j L 3 & & p = [ f.h f y u v  .: # 5 s > ! 1.d ",
"r a L f.x 9 # g u ! [ s a y s L n.x 4 o F s &./ d a y s o.f.a 9 # k s 1.x s u y j o.w.p 1 & x p w.m s u u j 1.f.e < 5 F h 1.j d ",
"s Y f.1.k u # g n.[ d a y s o.n.[ k e O o.f.m s u y j o.v.o.j e # ! w.x d u u j 1.f.! j 1 & w.s.h s y u x 1.w.L f 1 5 s.1.j s y ",
"L i.1.x a e # g [ s a r s L n.1.k a 9 O o.[ s a r s o.C. .k u 9 # I x s u y j  .C.o.j u 1 & =.x f u u j 1.v.L j y < 5 w.d s y u ",
"C.1.k a r u & g h a y d | n.o.k u y t o F k u r j o.n.[ k p u y # k f u y j 1.C.L j y y 8 & F h y y x 1.f.Y f y a 4 5 I h y a x ",
"1.m a r h m * g s y s L n.1.k a y h h o I h y s o.f.o.x u y x k # k u y j o.f. .j u u x e & F u u j 1.f.Y j y u Y e 5 / y u x 1.",
"k a y h &.v $ g y s o.n.[ k u y v $.a o m a j o.v.o.j u u x %.a # j u j 1.f.! j y u ! &.9 & k u v 1.w.L f y a ! $.9 5 m a x i.i.",
"a r h o./ u # g h L v.1.k a y h =.! w o F x o.C. .x u r x &.x e # k j  .C.o.j u y x &.x 1 & F j 1.v.Y j y u Y 1.h 1 8 ! x 1.s.L ",
"r s %./ y w # g [ f.o.k u y x 1.x u 9 o ! %.v.[ k p u x 1.z y 9 # m &.n.L j y y ! &.h r 1 &  .&.f.L h y a ! o.h e 1 8 o.w.i.z h ",
"a s m a 4 > @ g q a k a y h %.! u 4 > o F y h x u y x &.x u 3 < # j w j j u u x &.x r < - * k 9 x j y u ! %.h r > - 8 m e x d y ",
"e 4 4 1 < $ o 8 : < 8 1 9 y r 8 2 < # . e < 4 9 2 9 u r 4 2 - $ O 9 - 4 4 3 0 i w 4 2 - $ # 9 & 9 4 4 0 i w 3 3 $ + : e = 9 3 4 ",
"X   O O O O o O O O + O   o O O O O O o O O O O O   O O O O O O o O O O O o . O O O O O + O O O O O X   O O O O O O O O O O O o "
};
