/* XPM */
static char * wall_0_xpm[] = {
"64 64 423 2",
"  	c #697681",
". 	c #7A8E99",
"+ 	c #7D939C",
"@ 	c #80949F",
"# 	c #4A4B56",
"$ 	c #69757F",
"% 	c #748691",
"& 	c #545A64",
"* 	c #72858D",
"= 	c #515661",
"- 	c #65737B",
"; 	c #4C4E59",
"> 	c #7F989F",
", 	c #98B7C2",
"' 	c #99BAC5",
") 	c #88A2AC",
"! 	c #86A1AA",
"~ 	c #7F97A0",
"{ 	c #859FA9",
"] 	c #8CA9B3",
"^ 	c #829BA4",
"/ 	c #768A92",
"( 	c #799097",
"_ 	c #9CBDC8",
": 	c #98B8C3",
"< 	c #8DA9B4",
"[ 	c #74888F",
"} 	c #9BBCC7",
"| 	c #92B1BB",
"1 	c #90ACB6",
"2 	c #788D96",
"3 	c #6C7C84",
"4 	c #575D68",
"5 	c #6D8186",
"6 	c #8097A1",
"7 	c #8FACB6",
"8 	c #616D75",
"9 	c #4E535D",
"0 	c #8AA6AF",
"a 	c #9EC0CB",
"b 	c #8CA7B1",
"c 	c #88A3AB",
"d 	c #97B7C1",
"e 	c #95B4BF",
"f 	c #91AFB9",
"g 	c #95B4BE",
"h 	c #7F98A0",
"i 	c #9BBCC8",
"j 	c #8BA8B1",
"k 	c #5A646B",
"l 	c #97B8C2",
"m 	c #5E6B72",
"n 	c #9FC0CC",
"o 	c #9CBCC6",
"p 	c #8BA7B0",
"q 	c #A0C4CF",
"r 	c #A0C2CE",
"s 	c #87A2AC",
"t 	c #6F8189",
"u 	c #50545F",
"v 	c #93B2BC",
"w 	c #9BBBC6",
"x 	c #585E69",
"y 	c #636F78",
"z 	c #566166",
"A 	c #687A7F",
"B 	c #67787D",
"C 	c #586267",
"D 	c #5C696E",
"E 	c #454651",
"F 	c #5B5F68",
"G 	c #4E4F59",
"H 	c #44444F",
"I 	c #6F7F88",
"J 	c #6D7D84",
"K 	c #606157",
"L 	c #728287",
"M 	c #788993",
"N 	c #B4BCC0",
"O 	c #899AA1",
"P 	c #75888F",
"Q 	c #7A7A77",
"R 	c #CBCA41",
"S 	c #A5B391",
"T 	c #859078",
"U 	c #AAB8AB",
"V 	c #AFCAC7",
"W 	c #91ABB2",
"X 	c #90A7A4",
"Y 	c #8299A0",
"Z 	c #5D6770",
"` 	c #7E8D90",
" .	c #C89953",
"..	c #F6EB19",
"+.	c #F8F82F",
"@.	c #F6F72C",
"#.	c #F8FA62",
"$.	c #ECED7B",
"%.	c #A7AD95",
"&.	c #C2C97A",
"*.	c #8B9A88",
"=.	c #849AA3",
"-.	c #93ADB7",
";.	c #9ABBC6",
">.	c #96B5BE",
",.	c #A2B39C",
"'.	c #E5E34E",
").	c #FDFC09",
"!.	c #FFFF00",
"~.	c #FFFF19",
"{.	c #FFFF8D",
"].	c #FDF8C7",
"^.	c #D0C8B4",
"/.	c #8F9993",
"(.	c #829AA0",
"_.	c #ACC1C9",
":.	c #CDDDE2",
"<.	c #9FB6BF",
"[.	c #86A0A9",
"}.	c #627176",
"|.	c #899798",
"1.	c #8FAAB2",
"2.	c #96B4BE",
"3.	c #95ABA4",
"4.	c #B7C181",
"5.	c #F2F330",
"6.	c #FFFF03",
"7.	c #FFFF15",
"8.	c #FFFF35",
"9.	c #FFFF9D",
"0.	c #FEFEEE",
"a.	c #D2D5D4",
"b.	c #8FA3A9",
"c.	c #A7C4CD",
"d.	c #B1C6CD",
"e.	c #8FA6AF",
"f.	c #849A9E",
"g.	c #D5C07C",
"h.	c #AEC0BB",
"i.	c #97B5BE",
"j.	c #E2E659",
"k.	c #E2E552",
"l.	c #E6E94C",
"m.	c #FBFB13",
"n.	c #FFFF47",
"o.	c #FFFF8B",
"p.	c #FFFFD2",
"q.	c #FEFEE3",
"r.	c #D4DACB",
"s.	c #9DB7BD",
"t.	c #91ADB7",
"u.	c #88A1AB",
"v.	c #798E97",
"w.	c #90ACB1",
"x.	c #E1E680",
"y.	c #ADC2AF",
"z.	c #A6B89B",
"A.	c #C2CA79",
"B.	c #F3F433",
"C.	c #FDFD1A",
"D.	c #FDFD17",
"E.	c #FFFF18",
"F.	c #FFFF5D",
"G.	c #FFFF7C",
"H.	c #FEFE59",
"I.	c #D7DF85",
"J.	c #A8C6C5",
"K.	c #8099A0",
"L.	c #94AEAF",
"M.	c #A4C4CB",
"N.	c #DBE480",
"O.	c #AFBD94",
"P.	c #E0E45C",
"Q.	c #F7F72D",
"R.	c #FEFE0E",
"S.	c #FFFF07",
"T.	c #FFFF05",
"U.	c #FFFE01",
"V.	c #FFFD17",
"W.	c #FFFF20",
"X.	c #FEFE1A",
"Y.	c #DFE687",
"Z.	c #A0B5AE",
"`.	c #92ADB0",
" +	c #CFDD9B",
".+	c #A2BCB7",
"++	c #96ACA3",
"@+	c #98A792",
"#+	c #C5CB6B",
"$+	c #E3E75B",
"%+	c #FAFB32",
"&+	c #FAFA2E",
"*+	c #FAF921",
"=+	c #FEFE03",
"-+	c #FFF500",
";+	c #FFEF01",
">+	c #FFFC00",
",+	c #FFFE00",
"'+	c #FAE935",
")+	c #B5B390",
"!+	c #83959A",
"~+	c #9DBDC8",
"{+	c #9CB8BA",
"]+	c #87A0A8",
"^+	c #7E949C",
"/+	c #798C91",
"(+	c #8CA2A0",
"_+	c #C8D698",
":+	c #D9E175",
"<+	c #D3CF66",
"[+	c #E8E041",
"}+	c #FCFB0C",
"|+	c #FFFD00",
"1+	c #FEFE11",
"2+	c #F8F030",
"3+	c #B2B27E",
"4+	c #7E8E90",
"5+	c #91ABAD",
"6+	c #899B98",
"7+	c #AA9467",
"8+	c #F1DE2F",
"9+	c #FFFC02",
"0+	c #FFFB04",
"a+	c #FAF92C",
"b+	c #EFF04C",
"c+	c #C2C079",
"d+	c #90958A",
"e+	c #849CA3",
"f+	c #717C83",
"g+	c #807A6C",
"h+	c #DAD43C",
"i+	c #FBFA0D",
"j+	c #FBC816",
"k+	c #BBA470",
"l+	c #959D82",
"m+	c #7B8481",
"n+	c #80939B",
"o+	c #585F67",
"p+	c #474954",
"q+	c #545761",
"r+	c #996954",
"s+	c #C39E42",
"t+	c #F5E71A",
"u+	c #FEFC02",
"v+	c #F4E41F",
"w+	c #DD8B34",
"x+	c #8D6057",
"y+	c #5C5A60",
"z+	c #795A59",
"A+	c #69565A",
"B+	c #5A5D68",
"C+	c #91A1A4",
"D+	c #E9A75A",
"E+	c #FBC226",
"F+	c #FEF50A",
"G+	c #FBFB25",
"H+	c #C7C97D",
"I+	c #98A3A1",
"J+	c #899EA7",
"K+	c #8297A0",
"L+	c #978486",
"M+	c #765E5F",
"N+	c #82979F",
"O+	c #677375",
"P+	c #C2A97C",
"Q+	c #F1B859",
"R+	c #FEB715",
"S+	c #FFEF00",
"T+	c #FDF216",
"U+	c #DEA057",
"V+	c #9B9799",
"W+	c #9AA6AE",
"X+	c #7F7A7F",
"Y+	c #676B71",
"Z+	c #575A64",
"`+	c #A0BAC0",
" @	c #ACA8A6",
".@	c #F18F3D",
"+@	c #FEB102",
"@@	c #FEBE02",
"#@	c #FAA022",
"$@	c #DA8B7D",
"%@	c #DC9A8E",
"&@	c #CD7E73",
"*@	c #81797F",
"=@	c #8D8E96",
"-@	c #D65E3E",
";@	c #F96A08",
">@	c #FF9103",
",@	c #FD7913",
"'@	c #E77F71",
")@	c #B0A7AD",
"!@	c #8F9CA5",
"~@	c #76888E",
"{@	c #80929B",
"]@	c #8D5E63",
"^@	c #C43025",
"/@	c #EC450F",
"(@	c #F95A0B",
"_@	c #F15826",
":@	c #BE8284",
"<@	c #96979F",
"[@	c #7B8D95",
"}@	c #869FA8",
"|@	c #83949D",
"1@	c #7E656B",
"2@	c #BA2E2C",
"3@	c #CB2017",
"4@	c #D02413",
"5@	c #CA3930",
"6@	c #BD5B5C",
"7@	c #917F86",
"8@	c #C57773",
"9@	c #8C868B",
"0@	c #5A6267",
"a@	c #909DA4",
"b@	c #A08581",
"c@	c #834848",
"d@	c #BD2420",
"e@	c #BE1A12",
"f@	c #BA231E",
"g@	c #976F75",
"h@	c #8A949D",
"i@	c #798B94",
"j@	c #80888F",
"k@	c #89A3AA",
"l@	c #8B99A0",
"m@	c #9D6E67",
"n@	c #AA3730",
"o@	c #C51C13",
"p@	c #B81E11",
"q@	c #9B2F24",
"r@	c #88868E",
"s@	c #7D919A",
"t@	c #535661",
"u@	c #999BA0",
"v@	c #D97A54",
"w@	c #CF491F",
"x@	c #C52E24",
"y@	c #D24013",
"z@	c #DE620F",
"A@	c #9D5346",
"B@	c #7D8288",
"C@	c #96B4BD",
"D@	c #969EA3",
"E@	c #748188",
"F@	c #859CA5",
"G@	c #87787C",
"H@	c #87484A",
"I@	c #8F6369",
"J@	c #AA2F2C",
"K@	c #982415",
"L@	c #845556",
"M@	c #A48A89",
"N@	c #9BB2BB",
"O@	c #91A6AF",
"P@	c #B7867B",
"Q@	c #7E7C80",
"R@	c #8097A0",
"S@	c #686970",
"T@	c #7C7C82",
"U@	c #838E97",
"V@	c #88393C",
"W@	c #881B1C",
"X@	c #8A8B91",
"Y@	c #B0A9AA",
"Z@	c #8DA0A7",
"`@	c #798D96",
" #	c #6A6B70",
".#	c #5D646B",
"+#	c #616C74",
"@#	c #6F7F87",
"##	c #768289",
"$#	c #793B40",
"%#	c #7B2F32",
"&#	c #86919A",
"*#	c #899DA7",
"=#	c #859EA8",
"-#	c #7F8F98",
";#	c #807178",
">#	c #7F7981",
",#	c #849AA4",
"'#	c #7F979E",
")#	c #899AA3",
"!#	c #7F6268",
"~#	c #7F858E",
"{#	c #8096A0",
"]#	c #97B6C1",
"^#	c #8B9BA4",
"/#	c #7B676C",
"(#	c #7E9096",
"_#	c #889FA9",
":#	c #785359",
"<#	c #6E696F",
"[#	c #72838A",
"}#	c #8EABB5",
"|#	c #748086",
"1#	c #784C51",
"2#	c #757E86",
"3#	c #7C7076",
"4#	c #794145",
"5#	c #7E8E94",
"6#	c #7F939A",
"7#	c #78555A",
"8#	c #7B4348",
"9#	c #8DA1AA",
"0#	c #829AA3",
"a#	c #777C83",
"b#	c #7D6E73",
"c#	c #837C83",
"d#	c #9AB6C1",
"e#	c #8B969F",
"f#	c #91AEB8",
"g#	c #8AA1AB",
"h#	c #8F8F98",
"i#	c #94ACB5",
"j#	c #707478",
"k#	c #7F8891",
"l#	c #859CA6",
"m#	c #576168",
"n#	c #5F6A71",
"o#	c #6C7B83",
"p#	c #8FADB8",
"  . + @ + + + + + + + + # $ @ + + + + + + + + + % & * + + + + + + + + + @ * = % + + + + + + + + + + - ; . + + + + + @ + + + + - ",
"+ > + , ' ) ! ~ { ] ^ * # % / ( _ : ! ) > { < { * & ^ [ { } | { { ~ ! 1 2 3 4 ) 5 ^ _ | ! ! 6 ! 7 ( 8 9 0 * < a b c ^ > 0 < % - ",
"+ + ^ _ 6 > / 2 ! d ^ - # % / ^ e ^ > / + ! : { - = 6 5 f g h > / + ] i [ 8 & ) 5 < < > > / ~ j } / k 9 ! * d < > + / ~ f l 3 m ",
"+ d _ ^ 6 2 2 ^ : a 0 ^ # / } n > ~ / 2 ! d o 0 2 = ) ' d 6 > [ + ! _ i ! / 4 < _ d > 6 / + j a g ! - 9 d _ < > + [ ~ p q g {   ",
"+ ' 6 6 [ 2 ! ' i p > [ # . d > h / + ! a ' ! h 3 = ] d > > [ + j _ e ! + 3 & f ] > + [ ~ b n e { + m 9 _ ] > + [ h | r 7 { 2 8 ",
"+ ) > 2 2 ^ d a p ^ / 2 # / { ~ / 2 s d ' j > / [ = { 6 > / + c _ ' s > [ t 4 p > > / + ] ' e ! + / - 9 7 6 + / ~ j _ e { + / - ",
"+ ! / 2 ! d ' 0 6 / > < ; / ^ / + ! ' ' ! > / > { 4 { h [ + ] ' e ! + / 6 6 4 p + / ~ ] n e { + / 6 * u < + / ~ f _ 7 { 2 / ! [ ",
"+ ~ 2 ^ : a 0 ^ [ 2 ] d ; % + / ! d ' 0 h / + < ) & ^ / + ) _ _ ! > [ + v { 4 ) [ + ] _ e ! + [ 6 | [ & 0 / ~ j r e { + [ 6 e [ ",
"+ { ! : i p 6 [ + ] f h # % ^ ! _ w ! h [ + | | / = ^ > b _ e ! + [ 6 v j [ 4 ) h ] n e { + / 6 d ] - = 0 6 | r 7 { 2 [ ) g ! - ",
"+ ] d a p ^ / 2 ] | 6 / # / < d ' p > / + ] 1 6 3 = { 0 } ' s > / > f f + 3 x p j ' e ! + / 6 f b > m 9 7 < _ e { + / 6 g b 2 8 ",
"+ ^ ^ p 6 / > ] f 6 3 - # / 6 { ! > / + | f + 3 - = { ( p ! + [ 6 f j + - y & p / 0 { + / 6 v ] 2 - k u < + p { 2 / c g ! / - m ",
"+ * - { [ 2 < d 6 / - z # % A B 6 / + < | 6 [ - C = 6 m [ ~ [ + g f + [ m z & { k [ + [ 6 | ] > * m = u ^ D + + [ 6 g ] / * k 4 ",
"# ; # # # # # ; # # # # E ; # # # # # # ; # # # # E ; # # # # # # ; ; F G # E ; # # # # # # ; # # # E H ; # # # ; 9 # # # # # # ",
"/ % % / / I 9 $ [ % / . / / % % / /   E * % % / / % / % % / % J K L M N O / % / % % / % 8 9 % [ / / / % % % / / % m k % [ / 2 / ",
"{ + ^ < > - = @ B / a e ^ ^ + ^ | > 8 # c 5 ^ r < ^ 6 + ! 7 P Q R S T U V W X Y + ! < t Z 4 6 - f n ) { + + 0 f - k $ { B 1 ' ! ",
"[ 2 s ' ^ - = @ 3 { e > h / + ! n ^ 8 # ) [ f d > > [ + j ' `  ...+.@.#.$.%.&.*.=.-.;.[ D 4 6 3 _ ] > + [ ~ | _ A k $ ! / ' { > ",
"+ s _ } ! + = @ n g > h [ + ] n g ! [ # f n ] > + [ h j r >.,.'.).!.~.{.].^./.(._.:.<.[.- 4 , n { > 2 / ^ | _ < ^ }.$ ' _ { ~ 2 ",
"s d ' 0 > [ = @ g ^ > / + s } ' ! > 3 ; f g ~ > P |.1._ 2.3.4.5.6.7.8.9.0.a.b.] c.d.e.+ 8 4 , ] > + / 6 | _ 7 { 2 m $ } ! > 2 / ",
"_ ' ! ~ [ / 4 @ ~ > / + ] } e ! + / [ # p ^ + [ f.g.h.i.X j.k.l.m.n.o.p.q.r.s.a t.u.v./ - 4 0 > 2 / { f a 7 6 2 2 - $ ] h 2 2 ^ ",
"} 0 > [ > { C @ 6 / + ! a ' ! ~ [ > 6 # ] ^ [ + w.x.y.z.A.B.C.D.6.E.F.G.H.I.J.g ^ + / ^ * 4 ] + / h v r < { 2 / s I $ 1 2 / { f ",
"! > [ > v p & @ / + ] n g ! + [ { | > # ) + K.L.M.N.O.P.Q.R.S.T.!.U.V.W.X.Y.Z.^ 2 / ) d 3 4 { [ { | _ < ^ 2 2 ) e 3 $ c 2 ^ : n ",
"> / > ] f + = @ > ) ' ' ! > / > | 1 [ # ) ^ `. +.+++@+#+$+%+&+*+=+-+;+>+,+'+)+!+/ ^ v ] - 4 ! h | _ 7 { 2 / ! g ! y $ b { | _ 7 ",
"[ + 1 f + t = @ p ' e ! + / ^ | p + 3 # ] < ~+{+]+^+/+(+_+:+<+[+}+,+|+!.1+2+3+4+! v ! / m 4 < 1 _ 7 6 2 2 ! | ! [ 8   f e _ p ^ ",
"( > ] ~ 3 }.= @ ( { ! h [ > | f + 3 8 # b > ) ! + / ^ v 5+6+7+8+9+!.0+a+b+c+d+e+e p / - m x 0 2 j { 2 / s e { / }.m   ] > 0 ^ 2 ",
"~ t * 3 - C 9 / m - / 3 / { ^ / 3 - 4 # 6 - t / 3 / ) ^ * f+g+h+i+0+j+k+l+m+n+0 > * 3 D o+x / k / * * + p > 3 3 z = y + k / I t ",
"= 9 u = = 9 # = u = = = 9 & & = = = 9 p+4 = = = u 9 4 & q+r+s+t+u+v+w+x+y+z+A+B+= = = 9 u ; & 9 & = 9 9 4 = = = 9 ; 9 4 9 = u 9 ",
"3 3 > ) b { { ^ ^ { { > # I 6 6 p p { { 6 ^ { { / = . > C+D+E+F+G+H+I+J+K+L+M+N++ { p 0 { { 6 { ! 6   9 ^ > { b ! { ^ 6 { ! 6 3 ",
"/ 8 3 ' d 6 6 / > 0 2 m # % A 5 n d 6 ^ / > j + 8 = ~ O+P+Q+R+S+T+U+V+W+X+Y+Z+{ D > n < 6 > 2 ^ < 5 C 9 ^ }.p r { 6 + / ! p - D ",
"2 5 7 , > > / + b o p [ # / 6 | < > > [ h j a p 3 = { + `+ @.@+@@@#@$@%@&@*@4 0 > d ! > 2 / ^ f n h 8 = ] 6 : { h 2 2 ^ d _ 2 - ",
". ! | 6 > / + c i ' s ~ # 2 _ d > > / + ] ' e ! / = p _ < =@-@;@>@,@'@)@!@~@& < _ < > + / ~ f n 1 { - & : _ ! > 2 / ^ f a 1 ^ - ",
"/ + + > [ + ] _ e s + [ # 2 < > + / ~ j n e { + 3 = 0 < {@]@^@/@(@_@:@<@[@3 x 1 ! > 2 / ^ | _ 7 ^ 2 8 u l ! > 2 2 ^ d a p ^ / 8 ",
". [ + % + c _ i ! ~ [ + # / ^ 6 [ + p a e ! + [ / = }@|@1@2@3@4@5@6@7@8@9@[ C ) > + / h f n 7 { 2 / - 9 p ~ 2 [ ^ f _ 7 { 2 2   ",
"/ 5 [ + ] o e ! + / 6 v ; / 6 / ~ j n e { + / 6 ) 0@a@b@c@d@e@f@g@h@i@j@k@{ 4 p 2 / ^ f n 7 ^ 2 2 ! % 9 < 2 2 ^ d _ 0 ^ [ 2 ] / ",
"2 * 2 ! _ ' s ~ [ + f f # % + + j } e ! + / 6 | ^ 4 l@m@n@o@p@q@r@s@/ 6 2.6 4 ) / ~ f n 7 { 2 2 ! | I 9 ) / ^ f a 1 ^ 2 2 ! | * ",
". [ 0 _ e s + [ 6 f ] + ; / ! j n e { + / 6 v ] * t@u@v@w@x@y@z@A@B@c C@D@E@& 0 ^ f _ 1 ^ 2 2 ! g ! 8 9 ] { d _ p ^ / 2 ] v 6 y ",
"/ / : _ ! ~ / + | f + [ ; / f _ e ! + [ 6 f ] + 3 = F@G@H@I@J@K@L@M@N@O@P@Q@& p f n 7 { 2 / ! d ! 2 m 9 f | _ 7 { 2 2 ! e ! / 8 ",
". 3 [ ! + [ 6 v ] + - D # % * / { + / 6 d ] / - D 9 R@S@T@U@V@W@X@Y@Z@`@ #.#& ) - > ^ 2 2 ! g ! [ m 4 9 ! 3 ^ { [ 2 ] e 6 [ D C ",
"[ 3 - . 3 [ { ) / I - k # 3 - - / I / { { / 3 - C 9 2 +#@###$#%#&#*#P 3 m C = > k 3 [ 3 . ! 6 [ 3 m & 9 + m / [ t + ) 6 * 3 D 4 ",
"* 6 6 ) p { { ^ ^ { { > # I 6 6 ) ) { { 6 ^ { { 2 4 + > =#-#;#>#,#^ ^ { 6 % & 6 + ^ 0 ) ^ { 6 ^ { 6   9 { > { 0 { { { 6 { { 6 3 ",
"+ / [ ' ' ^ ^ 2 6 p + - # % 3 t n d ^ { 2 6 ] > - = 6 - '#)#!#~#{#2 ^ < 5 8 & ! }.> n 7 ^ 6 + { < t k 9 { - ] q c { + 2 ! j A m ",
"+ ^ ] : > > / + 0 ' 0 t # / > 7 7 > + [ > p _ 0 3 = { 2 ]#^#/#(#[ > 7 n + 3 4 0 ( e ! > + / 6 7 a > 8 9 p > ' ! 6 2 2 ^ d i / y ",
"+ ' d 6 > / + ! } ' s h # / _ d ~ > / + p ' d ! / = p i _#:#<#[#> p _ d { [ 4 < _ 1 ~ > / > f a f { - 9 : _ ) > 2 / ^ 1 n f ^ - ",
"+ v 6 > [ + p _ d 0 > [ # 2 1 > + / > p a d { + 3 = p }#|#1#2#> f _ f { 2 3 & 1 ! ~ 2 / ^ f _ f ^ 2 m 9 : ) > 2 / ^ d n j ^ / 8 ",
"+ { > / + ! ' _ ! 6 / + # / ^ h [ + p _ d ) + [ % = { '#3#4#5#p n d { > [ [ 4 0 > + / > 7 a f { 2 / - 9 ] 6 2 [ ^ f a f ^ 2 2   ",
"+ ! / + 0 ' d ! > / 6 | ; / 6 [ > p _ d { + / 6 ) 4 { 6#7#8#9#r f { 2 [ ! { 4 p 2 / ^ 7 r f ^ 2 / ! [ = 1 2 2 ^ d n j ^ / 2 ] / ",
"+ ~ + ! i ' 0 6 [ + f | ; % + + p ' d s + / 6 f { & 0#a#b#c#d#d { + / 6 g 6 4 ) / > f n f { 2 / ! | * & ) / ^ f n f ^ 2 2 ! v * ",
"+ ! p i d ) > [ h 7 ] + # / { 0 a d { + / 6 | < [ = =#~#e#d#f#{ 2 / ! g s * x ) ^ f _ f ^ 2 2 ! g ) y u j ^ d n j ^ / / ] g ^ - ",
"+ < ' _ ! 6 / + f | > [ # / 7 _ d s + [ 6 f ] + 3 = c g#h#i#{ > [ h g < 2 3 x p 7 a f { 2 / ! g ) 2 m 9 f f n f ^ 2 2 { e ! / 8 ",
"+ + 2 c > / 6 | < > - m # % / ( { + / 6 d < 2 - 8 = =#j#k#l#2 [ ! g s 2 8 m & ) 3 > ^ 2 / ! g ) [ 8 m#9 0 5 { ^ / 2 ] e 6 [ m k ",
"% 3 }.2 3 * ^ ) / 3 }.z # 3 - - / 3 / ^ { / 3 }.C u / n#o#/ 3 % c { [ 3 D 4 = + C 3 [ 3 2 { 6 [ 3 D = 9 + D [ [ 3 2 c 6 I 3 k & ",
"& & = & = = # = & = = = = 4 & = & = = p+& & = = = 9 & = & & = = # = 4 4 = = 9 & = & = = 9 ; & & & = = 9 & = & = 4 u 9 & = & = = ",
") { { ) ! > & [ ^ { 0 b { ! { { ) ! / # 6 { { p p { ! { { ) { . u + { ! p 0 { ! { { ) { 3 & ^ ^ ) p ) { { { ! ) {   8 { ^ ) p ) ",
"> / > 0 / k u @ k 5 _ 7 > + / ~ f / z # { }.> r { > 2 [ ^ ] B k = > k > n ! > 2 / ^ p }.4 4 ( z 7 _ 6 h / 2 c 1 k = $ > D ] d ~ ",
"[ + p _ ! 3 = @ 2 ] 7 > + / > p n ! - # 0 > g < ~ + / > f _ + 3 = { > d ! > 2 / ^ f ' ( 8 4 ! ( ' ) > 2 2 ^ d _ * m $ 0 6 d ^ ~ ",
"> j _ d { 2 = @ n 7 ~ + / > f n 7 { * ; f _ ) > 2 / ^ f a f ^ * = ] ' ! ~ 2 2 ^ d _ ] ^ 8 4 ' i 6 > / 2 ! d ' p h 8 $ i d ^ > / ",
"p } d ! + * = @ 7 > + [ > p n d { + 3 ; f 7 > + [ > f r 1 { 2 3 = b ! > 2 / ^ 1 r f ^ 2 8 4 e ! h 2 2 ^ d a p ^ / m $ ' ~ > / 2 ",
"r d { + [ 2 4 @ 6 + / ~ p#n f { 2 / % # 0 { 2 [ ^ f n 7 { ( 2 / = { h 2 / ^ d r p ^ / /   4 0 6 / / ! d _ j h / + - $ b 6 / + ! ",
"d ) + [ 6 ) x @ > / > p n d { + / 6 6 # b 6 / > f _ f ! 2 / ! { = { 2 / ^ f _ 1 ^ 2 2 ! * 4 0 2 2 ^ d _ j ^ / 2 j * $ < / 2 ! d ",
"{ + / 6 g c & @ / > f n 7 { 2 / c | + # ) + ^ f a f ^ 2 2 ! v + = ^ 2 ^ d _ ] ^ / 2 ] g 3 4 { 2 c d ' p h / + ] | 3 $ ) + ! } } ",
"+ [ 6 f < 2 = @ 6 p a d { + / 6 e ] t # 0 ! f r 1 ! 2 [ ! g ! * = { ^ 1 r f ^ 2 / ! g ! 8 4 0 ^ d a j ^ / 2 j d 6 8   ] ! d i p ",
"[ > v < / t = @ 7 _ f { 2 / ! d ! 2 3 # ] v a 7 { ( 2 ! d s / 3 = ) g n p ^ / / ] g 6 [ 8 4 1 g _ p 6 / + ] f 6 * 8   f ' } s 6 ",
"+ > ) + - D u @ 5 + { + / 6 v ] 2 - D # 0 / 6 ! 2 / ! g ! 2 }.m = ^ t ^ ^ 2 2 ! g ! [ m C x { 3 ! ^ / 2 ] v 6 [ D C   ) * ! ~ / ",
"* - - 8 m & #   k m   8 3 / [   y m = E * m - 3 y 3 2 [ - y C & ; 3 C - - }.I . t - y C & = 3 4 3 - - I . t }.}.& 9 k * z 3 }.- ",
"p+H ; ; ; ; # ; ; ; 9 ; H # ; ; ; ; ; # ; ; ; ; ; H ; ; ; ; ; ; # ; ; ; ; # E ; ; ; ; ; 9 ; ; ; ; ; p+H ; ; ; ; ; ; ; ; ; ; ; # "};
