/* XPM */
static char * wall_2_xpm[] = {
"64 64 325 2",
"  	c #697681",
". 	c #7A8E99",
"+ 	c #7D939C",
"@ 	c #80949F",
"# 	c #4A4B56",
"$ 	c #69757F",
"% 	c #748691",
"& 	c #545A64",
"* 	c #72858D",
"= 	c #515661",
"- 	c #65737B",
"; 	c #4C4E59",
"> 	c #7F989F",
", 	c #98B7C2",
"' 	c #99BAC5",
") 	c #88A2AC",
"! 	c #86A1AA",
"~ 	c #7F97A0",
"{ 	c #859FA9",
"] 	c #8CA9B3",
"^ 	c #829BA4",
"/ 	c #768A92",
"( 	c #799097",
"_ 	c #9CBDC8",
": 	c #98B8C3",
"< 	c #8DA9B4",
"[ 	c #74888F",
"} 	c #9BBCC7",
"| 	c #92B1BB",
"1 	c #90ACB6",
"2 	c #788D96",
"3 	c #6C7C84",
"4 	c #575D68",
"5 	c #6D8186",
"6 	c #8097A1",
"7 	c #8FACB6",
"8 	c #616D75",
"9 	c #4E535D",
"0 	c #8AA6AF",
"a 	c #9EC0CB",
"b 	c #8CA7B1",
"c 	c #88A3AB",
"d 	c #97B7C1",
"e 	c #95B4BF",
"f 	c #91AFB9",
"g 	c #95B4BE",
"h 	c #7F98A0",
"i 	c #9BBCC8",
"j 	c #8BA8B1",
"k 	c #5A646B",
"l 	c #97B8C2",
"m 	c #5E6B72",
"n 	c #9FC0CC",
"o 	c #9CBCC6",
"p 	c #8BA7B0",
"q 	c #A0C4CF",
"r 	c #A0C2CE",
"s 	c #87A2AC",
"t 	c #6F8189",
"u 	c #50545F",
"v 	c #ABC6CF",
"w 	c #ACBCC2",
"x 	c #93B2BC",
"y 	c #9BBBC6",
"z 	c #A4BDC7",
"A 	c #D8DEE1",
"B 	c #DFE3E5",
"C 	c #BCC9CE",
"D 	c #FFFFFF",
"E 	c #E9EBEC",
"F 	c #B6A685",
"G 	c #C0CF9A",
"H 	c #B7C19E",
"I 	c #B0B7BA",
"J 	c #ABAC80",
"K 	c #AEBF9D",
"L 	c #A6B2B8",
"M 	c #EAECED",
"N 	c #FFFFA2",
"O 	c #EDF055",
"P 	c #8E7D84",
"Q 	c #9DB3A6",
"R 	c #ABBB96",
"S 	c #566166",
"T 	c #687A7F",
"U 	c #67787D",
"V 	c #586267",
"W 	c #80888D",
"X 	c #B7BFC1",
"Y 	c #A9A18E",
"Z 	c #B5A382",
"` 	c #FFFF00",
" .	c #D7A640",
"..	c #B3BB77",
"+.	c #E1E45B",
"@.	c #5C696E",
"#.	c #454651",
"$.	c #909195",
"%.	c #DCDCDD",
"&.	c #B88E40",
"*.	c #A7A746",
"=.	c #E5E529",
"-.	c #CBCB38",
";.	c #D8A331",
">.	c #44444F",
",.	c #6F7F88",
"'.	c #9DA576",
").	c #E8E828",
"!.	c #FEBE02",
"~.	c #DE7E56",
"{.	c #949993",
"].	c #BDAC8B",
"^.	c #B2B0A1",
"/.	c #8F9157",
"(.	c #EBEE4E",
"_.	c #F6F7A3",
":.	c #C9968B",
"<.	c #5D6770",
"[.	c #A69E8B",
"}.	c #E3B867",
"|.	c #CEBC97",
"1.	c #627176",
"2.	c #B7C286",
"3.	c #E1E7A8",
"4.	c #8D9B88",
"5.	c #AEB259",
"6.	c #94975C",
"7.	c #BCC994",
"8.	c #F7F93E",
"9.	c #DAE58E",
"0.	c #BECD98",
"a.	c #C9D280",
"b.	c #ECED36",
"c.	c #DCDD3B",
"d.	c #A2B1AF",
"e.	c #B6B6A8",
"f.	c #72665D",
"g.	c #D7DF7A",
"h.	c #F6F83D",
"i.	c #CDDC9D",
"j.	c #C1D19F",
"k.	c #F8F931",
"l.	c #C3CB78",
"m.	c #979D68",
"n.	c #BBBD4E",
"o.	c #746251",
"p.	c #CCB283",
"q.	c #C7AC7D",
"r.	c #909E86",
"s.	c #AAB88D",
"t.	c #8E858B",
"u.	c #CD9D40",
"v.	c #E4EC7D",
"w.	c #BDC88A",
"x.	c #E0E358",
"y.	c #92754B",
"z.	c #CAB388",
"A.	c #A9B58A",
"B.	c #CCD687",
"C.	c #958D93",
"D.	c #B77875",
"E.	c #A98F92",
"F.	c #A89493",
"G.	c #E8AF2B",
"H.	c #EDF15E",
"I.	c #A6B5A4",
"J.	c #A7B38B",
"K.	c #C3CA6F",
"L.	c #A38082",
"M.	c #E26F60",
"N.	c #CD9392",
"O.	c #EBEE50",
"P.	c #DEE29E",
"Q.	c #B8C48E",
"R.	c #DCAF58",
"S.	c #636F78",
"T.	c #D6DD76",
"U.	c #DFB568",
"V.	c #948D94",
"W.	c #A07475",
"X.	c #837475",
"Y.	c #CE6B40",
"Z.	c #ECBC5F",
"`.	c #AD9E9E",
" +	c #585E69",
".+	c #8F858A",
"++	c #C46B62",
"@+	c #BF665D",
"#+	c #8D8485",
"$+	c #9E7B75",
"%+	c #91675C",
"&+	c #E7522E",
"*+	c #DF7C52",
"=+	c #7F5D61",
"-+	c #985B5D",
";+	c #955555",
">+	c #BB5449",
",+	c #474954",
"'+	c #AB644E",
")+	c #EA722A",
"!+	c #A5834D",
"~+	c #A4824D",
"{+	c #C8983A",
"]+	c #F3B720",
"^+	c #D9A538",
"/+	c #B9544A",
"(+	c #955454",
"_+	c #BB5043",
":+	c #AAA697",
"<+	c #ECB955",
"[+	c #F5F62F",
"}+	c #D9A63A",
"|+	c #C48B7B",
"1+	c #C4BDA7",
"2+	c #F4F52C",
"3+	c #B89558",
"4+	c #C09D97",
"5+	c #FF7802",
"6+	c #E9B650",
"7+	c #AE966E",
"8+	c #937B5C",
"9+	c #A88B90",
"0+	c #DF6D5F",
"a+	c #E97C46",
"b+	c #E7AF2E",
"c+	c #AEAEA1",
"d+	c #B78585",
"e+	c #FF520C",
"f+	c #E3B96C",
"g+	c #9D969E",
"h+	c #C56468",
"i+	c #CE1E14",
"j+	c #F45D3A",
"k+	c #DBAE5A",
"l+	c #DCAE56",
"m+	c #DAA73C",
"n+	c #C89184",
"o+	c #7E8F98",
"p+	c #7A0A0A",
"q+	c #BF494B",
"r+	c #7F939A",
"s+	c #7B8E97",
"t+	c #5A474B",
"u+	c #846D73",
"v+	c #8FADB8",
"w+	c #777C83",
"x+	c #7D5155",
"y+	c #7E6368",
"z+	c #989198",
"A+	c #B49FA4",
"B+	c #7B565B",
"C+	c #AE9396",
"D+	c #8D969F",
"E+	c #7A464A",
"F+	c #6F6F77",
"G+	c #A4A9AE",
"H+	c #BCB2B5",
"I+	c #B7A6AB",
"J+	c #CC8A88",
"K+	c #945352",
"L+	c #C8807C",
"M+	c #82868D",
"N+	c #742F33",
"O+	c #53515A",
"P+	c #9D746C",
"Q+	c #C78A78",
"R+	c #767177",
"S+	c #4F282D",
"T+	c #71888E",
"U+	c #7F8289",
"V+	c #BA5C60",
"W+	c #78868F",
"X+	c #7E6A70",
"Y+	c #77272A",
"Z+	c #B23A3D",
"`+	c #C79183",
" @	c #7D7F85",
".@	c #764A4F",
"+@	c #788C95",
"@@	c #697076",
"#@	c #827379",
"$@	c #7B3538",
"%@	c #77696E",
"&@	c #7F9197",
"*@	c #7C7B82",
"=@	c #785E64",
"-@	c #7D3D41",
";@	c #7E6066",
">@	c #796D74",
",@	c #707F89",
"'@	c #504750",
")@	c #81848C",
"!@	c #7C686D",
"~@	c #7E4348",
"{@	c #6D6F75",
"]@	c #717B83",
"^@	c #78868E",
"/@	c #7E4146",
"(@	c #7A8890",
"_@	c #838E97",
":@	c #732B2F",
"<@	c #7E4044",
"[@	c #8B8E96",
"}@	c #5B4E58",
"|@	c #7D5055",
"1@	c #7D3F43",
"2@	c #867279",
"3@	c #88878F",
"4@	c #798B93",
"5@	c #63656C",
"6@	c #614851",
"7@	c #807177",
"8@	c #88747C",
"9@	c #60666D",
"0@	c #763236",
"a@	c #792C2E",
"b@	c #7D747C",
"c@	c #576168",
"d@	c #60585C",
"e@	c #73282E",
"f@	c #714145",
"g@	c #5F454D",
"h@	c #6F3239",
"i@	c #645F65",
"j@	c #717A82",
"  . + @ + + + + + + + + # $ @ + + + + + + + + + % & * + + + + + + + + + @ * = % + + + + + + + + + + - ; . + + + + + @ + + + + - ",
"+ > + , ' ) ! ~ { ] ^ * # % / ( _ : ! ) > { < { * & ^ [ { } | { { ~ ! 1 2 3 4 ) 5 ^ _ | ! ! 6 ! 7 ( 8 9 0 * < a b c ^ > 0 < % - ",
"+ + ^ _ 6 > / 2 ! d ^ - # % / ^ e ^ > / + ! : { - = 6 5 f g h > / + ] i [ 8 & ) 5 < < > > / ~ j } / k 9 ! * d < > + / ~ f l 3 m ",
"+ d _ ^ 6 2 2 ^ : a 0 ^ # / } n > ~ / 2 ! d o 0 2 = ) ' d 6 > [ + ! _ i ! / 4 < _ d > 6 / + j a g ! - 9 d _ < > + [ ~ p q g {   ",
"+ ' 6 6 [ 2 ! ' i p > [ # . d > h / + ! a ' ! h 3 = ] d > > [ + j _ e ! + 3 & f ] > + [ ~ b n e { + m 9 _ ] > + [ h | r 7 { 2 8 ",
"+ ) > 2 2 ^ d a p ^ / 2 # / { ~ / 2 s d ' j > / [ = { 6 > / + c _ ' s > [ t 4 p > > / + ] ' e ! + / - 9 7 6 + / ~ j _ e { + / - ",
"+ ! / 2 ! d ' 0 6 / > < ; / ^ / + ! ' ' ! > / > { 4 { h [ + ] ' e ! + / 6 6 4 p + / ~ ] n e { + / 6 * u < + / ~ f _ 7 { 2 / ! [ ",
"+ ~ 2 ^ : a 0 ^ [ 2 ] d ; % + / ! d ' 0 h / + < ) & ^ / + ) _ v w > [ + x { 4 ) [ + ] _ e ! + [ 6 | [ & 0 / ~ j r e { + [ 6 e [ ",
"+ { ! : i p 6 [ + ] f h # % ^ ! _ y ! h [ + | | / = ^ > b _ z A B [ 6 x j [ 4 ) h ] n e { + / 6 d ] - = 0 6 | r 7 { 2 [ ) g ! - ",
"+ ] d a p ^ / 2 ] | 6 / # / < d ' p > / + ] 1 6 3 = { 0 } ' C D E F G G H I J K j ' e ! + / 6 f b > m 9 7 < _ e { + / 6 g b 2 8 ",
"+ ^ ^ p 6 / > ] f 6 3 - # / 6 { ! > / + | f + 3 - = { ( p ! L M N N N N N N N O P Q R + / 6 x ] 2 - k u < + p { 2 / c g ! / - m ",
"+ * - { [ 2 < d 6 / - S # % T U 6 / + < | 6 [ - V = 6 W X Y [ Z ` N D D N ` ` `  ...+.[ 6 | ] > * m = u ^ @.+ + [ 6 g ] / * k 4 ",
"# ; # # # # # ; # # # # #.; # # # # # # ; # # # # #.; $.%.&.# *.` N D D N ` ` ` =.-.;.# # # ; # # # #.>.; # # # ; 9 # # # # # # ",
"/ % % / / ,.9 $ [ % / . / / % % / /   #.* % % / / % / % % / % '.).N D N ` ` ` ` N !.~.% 8 9 % [ / / / % % % / / % m k % [ / 2 / ",
"{ + ^ < > - = @ U / a e ^ ^ + ^ | > 8 # c 5 ^ r < ^ 6 {.].^.[ - /.(.` ` ` ` ` N N _.:.t <.4 6 - f n ) { + + 0 f - k $ { U 1 ' ! ",
"[ 2 s ' ^ - = @ 3 { e > h / + ! n ^ 8 # ) [ f d > > [ [.}.|./ 1.= 2.` ` ` ` ` ` N 3.' 4.5.6.6 3 _ ] > + [ ~ | _ T k $ ! / ' { > ",
"+ s _ } ! + = @ n g > h [ + ] n g ! [ # f n ] > + [ h j r e { % = 7.` ` ` ` ` ` 8.9.0.a.b.c., n { > 2 / ^ | _ < ^ 1.$ ' _ { ~ 2 ",
"s d ' 0 > [ = @ g ^ > / + s } ' ! > 3 ; d.e.~ > [ + ] _ g ! + 3 f.g.` ` N ` ` h.i.j.k.l.m.n., ] > + / 6 | _ 7 { 2 m $ } ! > 2 / ",
"_ ' ! ~ [ / 4 @ ~ > / + ] } e ! + / [ o.p.q.+ r.s.] _ e { + / t.u.` ` N N ` ` v.1 w.x./ - 4 0 > 2 / { f a 7 6 2 2 - $ ] h 2 2 ^ ",
"} 0 > [ > { V @ 6 / + ! a ' ! ~ [ > 6 y.z.^ [ A.B._ g ! C.D.E.F.G.` ` N N ` ` H.I.J.K.^ * 4 ] + / h x r < { 2 / s ,.$ 1 2 / { f ",
"! > [ > x p & @ / + ] n g ! + [ { | > # ) + h ] r e { + L.M.N.6 /.O.` ` ` ` ` N P./ ) d 3 4 { [ { | _ < ^ 2 2 ) e 3 $ c 2 ^ : n ",
"> / > ] f + = @ > ) ' ' ! > / > | 1 [ # ) ^ ] _ e ! + [ 6 f p [ = Q.` ` ` ` ` ` R.^ x ] - 4 ! h | _ 7 { 2 / ! g ! S.$ b { | _ 7 ",
"[ + 1 f + t = @ p ' e ! + / ^ | p + 3 # ] < _ g { + / ^ g p 2 3 f.T.` ` ` ` ` ` U.x ! / m 4 < 1 _ 7 6 2 2 ! | ! [ 8   f e _ p ^ ",
"( > ] ~ 3 1.= @ ( { ! h [ > | f V.W.8 # b > ) ! + / ^ x p + - X.Y.!.` ` ` ` ` ` Z.`./ - m  +0 2 j { 2 / s e { / 1.m   ] > 0 ^ 2 ",
"~ t * 3 - V 9 / m - / 3 / { ^ .+++@+4 # 6 - t / 3 / ) ^ #+$+m %+&+!.` ` ` ` ` ` !.*+3 @.=+-+/ k / * * + p > 3 3 S = S.+ k / ,.t ",
"= 9 u = = 9 # = u = = = 9 & & ;+>+= 9 ,+4 = = = u 9 4 & '+)+!+~+{+!.` ` ` ` ` ]+^+/+= 9 (+_+& 9 & = 9 9 4 = = = 9 ; 9 4 9 = u 9 ",
"3 3 > ) b { { ^ ^ { { > # ,.6 6 p p { { 6 ^ { { / = . > :+<+!.!.` ` ` ` ` [+}+|++ { p 0 { { 6 { ! 6   9 ^ > { b ! { ^ 6 { ! 6 3 ",
"/ 8 3 ' d 6 6 / > 0 2 m # % T 5 n d 6 ^ / > j + 8 = ~ 1.> 1+!.!.` ` !.!.2+3+& { @.> n < 6 > 2 ^ < 5 V 9 ^ 1.p r { 6 + / ! p - @.",
"2 5 7 , > > / + b o p [ # / 6 | < > > [ h j a p 3 = { + ' 4+5+!.` !.!.!.6+7+8+0 > d ! > 2 / ^ f n h 8 = ] 6 : { h 2 2 ^ d _ 2 - ",
". ! | 6 > / + c i ' s ~ # 2 _ d > > / + ] ' e ! / = p _ < 9+0+a+!.!.!.!.!.!.b+c+_ < > + / ~ f n 1 { - & : _ ! > 2 / ^ f a 1 ^ - ",
"/ + + > [ + ] _ e s + [ # 2 < > + / ~ j n e { + 3 = 0 < 6 + / d+e+5+5+!.!.!.!.f+! > 2 / ^ | _ 7 ^ 2 8 u l ! > 2 2 ^ d a p ^ / 8 ",
". [ + % + c _ i ! ~ [ + # / ^ 6 [ + p a e ! + [ / = { 6 + [ ~ g+h+e+i+j+k+l+m+n+> + / h f n 7 { 2 / - 9 p ~ 2 [ ^ f _ 7 { 2 2   ",
"/ 5 [ + ] o e ! + / 6 x ; / 6 / ~ j n e { + / 6 ) V { > / ~ f r o+p+i+q+r+{ 4 p 2 / ^ f n 7 ^ 2 2 ! % 9 < 2 2 ^ d _ 0 ^ [ 2 ] / ",
"2 * 2 ! _ ' s ~ [ + f f # % + + j } e ! + / 6 | ^ 4 ^ / ~ ] _ e s+t+p+p+u+6 4 ) / ~ f n 7 { 2 2 ! | ,.9 ) / ^ f a 1 ^ 2 2 ! | * ",
". [ 0 _ e s + [ 6 f ] + ; / ! j n e { + / 6 x ] * = { 6 f _ v+{ 2 w+x+p+y+t & 0 ^ f _ 1 ^ 2 2 ! g ! 8 9 ] { d _ p ^ / 2 ] x 6 S.",
"/ / : _ ! ~ / + | f + [ ; / f _ e ! + [ z+A+] + 3 B+C+] n e { + / 6 D+p+E+F+& p G+H+7 { 2 / ! d ! 2 m 9 f | _ 7 { 2 2 ! e ! / 8 ",
". 3 [ ! + [ 6 x ] + - @.# % * / { + / 6 I+J+/ - @.K+L+3 > { 2 / ! g M+p+p+N+O+) P+Q+^ 2 2 ! g ! [ m 4 9 ! 3 ^ { [ 2 ] e 6 [ @.V ",
"[ 3 - . 3 [ { ) / ,.- k # 3 - - / ,./ { { / 3 - V 9 2 8 t / ,./ ) { R+p+p+p+S+T+k 3 [ 3 . ! 6 [ 3 m & 9 + m / [ t + ) 6 * 3 @.4 ",
"* 6 6 ) p { { ^ ^ { { > # ,.6 6 ) ) { { 6 ^ { { 2 4 + > { ) ) ^ { ^ U+p+p+p+p+V++ ^ 0 ) ^ { 6 ^ { 6   9 { > { 0 { { { 6 { { 6 3 ",
"+ / [ ' ' ^ ^ 2 6 p + - # % 3 t n d ^ { 2 6 ] > - = 6 - > _ 1 6 6 W+X+p+p+Y+Z+`+1.> n 7 ^ 6 + { < t k 9 { - ] q c { + 2 ! j T m ",
"+ ^ ] : > > / + 0 ' 0 t # / > 7 7 > + [ > p _ 0 3 = { 2 : 1 > > [  @p+p+p+.@4 0 ( e ! > + / 6 7 a > 8 9 p > ' ! 6 2 2 ^ d i / S.",
"+ ' d 6 > / + ! } ' s h # / _ d ~ > / + p ' d ! / = p i 7 6 +@@@ @#@p+p+$@%@4 < _ 1 ~ > / > f a f { - 9 : _ ) > 2 / ^ 1 n f ^ - ",
"+ x 6 > [ + p _ d 0 > [ # 2 1 > + / > p a d { + 3 = p 7 &@*@=@p+p+p+-@;@>@3 & 1 ! ~ 2 / ^ f _ f ^ 2 m 9 : ) > 2 / ^ d n j ^ / 8 ",
"+ { > / + ! ' _ ! 6 / + # / ^ h [ + p _ d ) + [ ,@'@)@ @!@p+p+p+~@{@]@> [ [ 4 0 > + / > 7 a f { 2 / - 9 ] 6 2 [ ^ f a f ^ 2 2   ",
"+ ! / + 0 ' d ! > / 6 | ; / 6 [ > p _ d { + / 6 ^@p+p+p+p+p+p+/@(@{ 2 [ ! { 4 p 2 / ^ 7 r f ^ 2 / ! [ = 1 2 2 ^ d n j ^ / 2 ] / ",
"+ ~ + ! i ' 0 6 [ + f | ; % + + p ' d s + / 6 f _@:@p+p+p+p+<@[@{ + / 6 g 6 4 ) / > f n f { 2 / ! | * & ) / ^ f n f ^ 2 2 ! x * ",
"+ ! p i d ) > [ h 7 ] + # / { 0 a d { + / 6 | < [ }@|@p+1@2@3@{ 2 / ! g s *  +) ^ f _ f ^ 2 2 ! g ) S.u j ^ d n j ^ / / ] g ^ - ",
"+ < ' _ ! 6 / + f | > [ # / 7 _ d s + [ 6 f ] 4@5@6@7@p+8@d { > [ h g < 2 3  +p 7 a f { 2 / ! g ) 2 m 9 f f n f ^ 2 2 { e ! / 8 ",
"+ + 2 c > / 6 | < > - m # % / ( { + / 6 d < 2 9@0@p+p+a@b@{ 2 [ ! g s 2 8 m & ) 3 > ^ 2 / ! g ) [ 8 c@9 0 5 { ^ / 2 ] e 6 [ m k ",
"% 3 1.2 3 * ^ ) / 3 1.S # 3 - - / 3 / ^ { / 3 1.d@e@p+f@3 / 3 % c { [ 3 @.4 = + V 3 [ 3 2 { 6 [ 3 @.= 9 + @.[ [ 3 2 c 6 ,.3 k & ",
"& & = & = = # = & = = = = 4 & = & = = ,+& & = = = g@p+h@& & = = # = 4 4 = = 9 & = & = = 9 ; & & & = = 9 & = & = 4 u 9 & = & = = ",
") { { ) ! > & [ ^ { 0 b { ! { { ) ! / # 6 { { p p s+i@j@{ ) { . u + { ! p 0 { ! { { ) { 3 & ^ ^ ) p ) { { { ! ) {   8 { ^ ) p ) ",
"> / > 0 / k u @ k 5 _ 7 > + / ~ f / S # { 1.> r { > 2 [ ^ ] U k = > k > n ! > 2 / ^ p 1.4 4 ( S 7 _ 6 h / 2 c 1 k = $ > @.] d ~ ",
"[ + p _ ! 3 = @ 2 ] 7 > + / > p n ! - # 0 > g < ~ + / > f _ + 3 = { > d ! > 2 / ^ f ' ( 8 4 ! ( ' ) > 2 2 ^ d _ * m $ 0 6 d ^ ~ ",
"> j _ d { 2 = @ n 7 ~ + / > f n 7 { * ; f _ ) > 2 / ^ f a f ^ * = ] ' ! ~ 2 2 ^ d _ ] ^ 8 4 ' i 6 > / 2 ! d ' p h 8 $ i d ^ > / ",
"p } d ! + * = @ 7 > + [ > p n d { + 3 ; f 7 > + [ > f r 1 { 2 3 = b ! > 2 / ^ 1 r f ^ 2 8 4 e ! h 2 2 ^ d a p ^ / m $ ' ~ > / 2 ",
"r d { + [ 2 4 @ 6 + / ~ v+n f { 2 / % # 0 { 2 [ ^ f n 7 { ( 2 / = { h 2 / ^ d r p ^ / /   4 0 6 / / ! d _ j h / + - $ b 6 / + ! ",
"d ) + [ 6 )  +@ > / > p n d { + / 6 6 # b 6 / > f _ f ! 2 / ! { = { 2 / ^ f _ 1 ^ 2 2 ! * 4 0 2 2 ^ d _ j ^ / 2 j * $ < / 2 ! d ",
"{ + / 6 g c & @ / > f n 7 { 2 / c | + # ) + ^ f a f ^ 2 2 ! x + = ^ 2 ^ d _ ] ^ / 2 ] g 3 4 { 2 c d ' p h / + ] | 3 $ ) + ! } } ",
"+ [ 6 f < 2 = @ 6 p a d { + / 6 e ] t # 0 ! f r 1 ! 2 [ ! g ! * = { ^ 1 r f ^ 2 / ! g ! 8 4 0 ^ d a j ^ / 2 j d 6 8   ] ! d i p ",
"[ > x < / t = @ 7 _ f { 2 / ! d ! 2 3 # ] x a 7 { ( 2 ! d s / 3 = ) g n p ^ / / ] g 6 [ 8 4 1 g _ p 6 / + ] f 6 * 8   f ' } s 6 ",
"+ > ) + - @.u @ 5 + { + / 6 x ] 2 - @.# 0 / 6 ! 2 / ! g ! 2 1.m = ^ t ^ ^ 2 2 ! g ! [ m V  +{ 3 ! ^ / 2 ] x 6 [ @.V   ) * ! ~ / ",
"* - - 8 m & #   k m   8 3 / [   S.m = #.* m - 3 S.3 2 [ - S.V & ; 3 V - - 1.,.. t - S.V & = 3 4 3 - - ,.. t 1.1.& 9 k * S 3 1.- ",
",+>.; ; ; ; # ; ; ; 9 ; >.# ; ; ; ; ; # ; ; ; ; ; >.; ; ; ; ; ; # ; ; ; ; # #.; ; ; ; ; 9 ; ; ; ; ; ,+>.; ; ; ; ; ; ; ; ; ; ; # "};
