/* XPM */
static char * wall_1_xpm[] = {
"64 64 298 2",
"  	c #697681",
". 	c #7A8E99",
"+ 	c #7D939C",
"@ 	c #80949F",
"# 	c #4A4B56",
"$ 	c #69757F",
"% 	c #748691",
"& 	c #545A64",
"* 	c #72858D",
"= 	c #515661",
"- 	c #65737B",
"; 	c #4C4E59",
"> 	c #7F989F",
", 	c #98B7C2",
"' 	c #99BAC5",
") 	c #88A2AC",
"! 	c #86A1AA",
"~ 	c #7F97A0",
"{ 	c #859FA9",
"] 	c #8CA9B3",
"^ 	c #829BA4",
"/ 	c #768A92",
"( 	c #799097",
"_ 	c #9CBDC8",
": 	c #98B8C3",
"< 	c #8DA9B4",
"[ 	c #74888F",
"} 	c #9BBCC7",
"| 	c #92B1BB",
"1 	c #90ACB6",
"2 	c #788D96",
"3 	c #6C7C84",
"4 	c #575D68",
"5 	c #6D8186",
"6 	c #8097A1",
"7 	c #8FACB6",
"8 	c #616D75",
"9 	c #4E535D",
"0 	c #8AA6AF",
"a 	c #9EC0CB",
"b 	c #8CA7B1",
"c 	c #88A3AB",
"d 	c #97B7C1",
"e 	c #95B4BF",
"f 	c #91AFB9",
"g 	c #95B4BE",
"h 	c #7F98A0",
"i 	c #9BBCC8",
"j 	c #8BA8B1",
"k 	c #5A646B",
"l 	c #97B8C2",
"m 	c #5E6B72",
"n 	c #9FC0CC",
"o 	c #9CBCC6",
"p 	c #8BA7B0",
"q 	c #A0C4CF",
"r 	c #A0C2CE",
"s 	c #87A2AC",
"t 	c #6F8189",
"u 	c #50545F",
"v 	c #93B2BC",
"w 	c #9BBBC6",
"x 	c #585E69",
"y 	c #636F78",
"z 	c #566166",
"A 	c #687A7F",
"B 	c #67787D",
"C 	c #586267",
"D 	c #5C696E",
"E 	c #454651",
"F 	c #44444F",
"G 	c #6F7F88",
"H 	c #5D6770",
"I 	c #627176",
"J 	c #ABC6BE",
"K 	c #B5C8A9",
"L 	c #AAC5BF",
"M 	c #DBE480",
"N 	c #E2E762",
"O 	c #C3D39C",
"P 	c #F9FA2F",
"Q 	c #C4CB78",
"R 	c #76685C",
"S 	c #ACAA99",
"T 	c #ACBC96",
"U 	c #C5CC77",
"V 	c #A6B5B4",
"W 	c #B7A586",
"X 	c #CDCD40",
"Y 	c #EBB74F",
"Z 	c #B3BB79",
"` 	c #B8A585",
" .	c #C0B69B",
"..	c #C6D8A9",
"+.	c #BFB297",
"@.	c #A89493",
"#.	c #AABDBF",
"$.	c #C2B89E",
"%.	c #ABA898",
"&.	c #BBAF93",
"*.	c #FFFF00",
"=.	c #FEBE02",
"-.	c #EAB64B",
";.	c #A18683",
">.	c #DAE381",
",.	c #DFB25C",
"'.	c #9BB2A8",
").	c #D2D766",
"!.	c #E28764",
"~.	c #BEC98D",
"{.	c #F8F933",
"].	c #DFE35D",
"^.	c #C2C970",
"/.	c #A4B3B2",
"(.	c #D3D96A",
"_.	c #F6F737",
":.	c #CBB894",
"<.	c #989D98",
"[.	c #9B896D",
"}.	c #9F927A",
"|.	c #C2A46F",
"1.	c #B9A888",
"2.	c #DFE56C",
"3.	c #90A499",
"4.	c #A1AB7D",
"5.	c #585F67",
"6.	c #474954",
"7.	c #957C5C",
"8.	c #BA9149",
"9.	c #A9AB52",
"0.	c #E5E633",
"a.	c #CDCE40",
"b.	c #DCDC36",
"c.	c #97A898",
"d.	c #AAB992",
"e.	c #B8C384",
"f.	c #F3F435",
"g.	c #E6E630",
"h.	c #F7F82F",
"i.	c #C6D082",
"j.	c #A5B081",
"k.	c #C6CF79",
"l.	c #9DB4AF",
"m.	c #B8C19E",
"n.	c #B0B487",
"o.	c #939556",
"p.	c #ABB062",
"q.	c #E6E738",
"r.	c #B7B94D",
"s.	c #E0E466",
"t.	c #B8BC55",
"u.	c #C7D9BE",
"v.	c #F8FAA3",
"w.	c #DDDF99",
"x.	c #CACB41",
"y.	c #B8C58E",
"z.	c #D3AD6A",
"A.	c #F6BE45",
"B.	c #EBEF5E",
"C.	c #E7E831",
"D.	c #BBC893",
"E.	c #B9C483",
"F.	c #B7CBAB",
"G.	c #B6C9D0",
"H.	c #C7D1D5",
"I.	c #89988C",
"J.	c #CBCC41",
"K.	c #F7BE41",
"L.	c #D5917E",
"M.	c #D3AE6E",
"N.	c #F5F63D",
"O.	c #E9EB47",
"P.	c #F6F83D",
"Q.	c #E6ED77",
"R.	c #CBD58A",
"S.	c #AFB56E",
"T.	c #F6F83B",
"U.	c #C7D28D",
"V.	c #A3A092",
"W.	c #DEB15D",
"X.	c #DCAE58",
"Y.	c #EAED4F",
"Z.	c #DBDF5D",
"`.	c #ACB36F",
" +	c #E1E770",
".+	c #8D9B88",
"++	c #D4D861",
"@+	c #DFE467",
"#+	c #909B9B",
"$+	c #B7A381",
"%+	c #A08580",
"&+	c #BCCA92",
"*+	c #E9EB48",
"=+	c #C0C76E",
"-+	c #E7E830",
";+	c #ECEF53",
">+	c #B9C280",
",+	c #A3AE82",
"'+	c #A9B68F",
")+	c #E2E666",
"!+	c #DADB3C",
"~+	c #D3DA76",
"{+	c #D3AF6D",
"]+	c #E1835E",
"^+	c #BAC1B8",
"/+	c #ECBA5A",
"(+	c #EAED55",
"_+	c #CACB47",
":+	c #DEE15A",
"<+	c #EDEF42",
"[+	c #E1E660",
"}+	c #B8A888",
"|+	c #F6BB33",
"1+	c #C9968A",
"2+	c #B8C48E",
"3+	c #E1E667",
"4+	c #A7B58F",
"5+	c #CCD88D",
"6+	c #AB9797",
"7+	c #E1835F",
"8+	c #CB9A8F",
"9+	c #8FADB8",
"0+	c #8E98A2",
"a+	c #D2AB66",
"b+	c #F4F41E",
"c+	c #C8D387",
"d+	c #7F98A2",
"e+	c #B1666B",
"f+	c #FF7802",
"g+	c #DA6F3A",
"h+	c #7B9197",
"i+	c #82858D",
"j+	c #AF6267",
"k+	c #CE1E14",
"l+	c #F5F523",
"m+	c #DAA73E",
"n+	c #B9914C",
"o+	c #544F58",
"p+	c #79757C",
"q+	c #6A5B62",
"r+	c #AD5A5E",
"s+	c #F5B929",
"t+	c #BA9657",
"u+	c #8197A1",
"v+	c #6C757D",
"w+	c #6C3F46",
"x+	c #7A0A0A",
"y+	c #FF520C",
"z+	c #F67C37",
"A+	c #E08562",
"B+	c #C69082",
"C+	c #86A1AB",
"D+	c #67676C",
"E+	c #4E0808",
"F+	c #F75B36",
"G+	c #C27874",
"H+	c #859DA6",
"I+	c #47383B",
"J+	c #5A4D52",
"K+	c #BA3233",
"L+	c #F67C35",
"M+	c #C1756F",
"N+	c #96B1BC",
"O+	c #877D84",
"P+	c #7D5055",
"Q+	c #77757C",
"R+	c #6A3B42",
"S+	c #DE6856",
"T+	c #8E97A0",
"U+	c #F55A34",
"V+	c #A6787D",
"W+	c #9C9AA0",
"X+	c #AA8A8D",
"Y+	c #85919A",
"Z+	c #7B484C",
"`+	c #C05152",
" @	c #A58C93",
".@	c #97AAB5",
"+@	c #AA8B8D",
"@@	c #C77B76",
"#@	c #777C83",
"$@	c #7C5B61",
"%@	c #7D5157",
"&@	c #CB4242",
"*@	c #87868E",
"=@	c #81848D",
"-@	c #7A3134",
";@	c #C04F50",
">@	c #C94040",
",@	c #BF757A",
"'@	c #8B8E95",
")@	c #6D797F",
"!@	c #4F3239",
"~@	c #7E5F65",
"{@	c #7D757D",
"]@	c #8C9AA3",
"^@	c #8E919A",
"/@	c #576168",
"  . + @ + + + + + + + + # $ @ + + + + + + + + + % & * + + + + + + + + + @ * = % + + + + + + + + + + - ; . + + + + + @ + + + + - ",
"+ > + , ' ) ! ~ { ] ^ * # % / ( _ : ! ) > { < { * & ^ [ { } | { { ~ ! 1 2 3 4 ) 5 ^ _ | ! ! 6 ! 7 ( 8 9 0 * < a b c ^ > 0 < % - ",
"+ + ^ _ 6 > / 2 ! d ^ - # % / ^ e ^ > / + ! : { - = 6 5 f g h > / + ] i [ 8 & ) 5 < < > > / ~ j } / k 9 ! * d < > + / ~ f l 3 m ",
"+ d _ ^ 6 2 2 ^ : a 0 ^ # / } n > ~ / 2 ! d o 0 2 = ) ' d 6 > [ + ! _ i ! / 4 < _ d > 6 / + j a g ! - 9 d _ < > + [ ~ p q g {   ",
"+ ' 6 6 [ 2 ! ' i p > [ # . d > h / + ! a ' ! h 3 = ] d > > [ + j _ e ! + 3 & f ] > + [ ~ b n e { + m 9 _ ] > + [ h | r 7 { 2 8 ",
"+ ) > 2 2 ^ d a p ^ / 2 # / { ~ / 2 s d ' j > / [ = { 6 > / + c _ ' s > [ t 4 p > > / + ] ' e ! + / - 9 7 6 + / ~ j _ e { + / - ",
"+ ! / 2 ! d ' 0 6 / > < ; / ^ / + ! ' ' ! > / > { 4 { h [ + ] ' e ! + / 6 6 4 p + / ~ ] n e { + / 6 * u < + / ~ f _ 7 { 2 / ! [ ",
"+ ~ 2 ^ : a 0 ^ [ 2 ] d ; % + / ! d ' 0 h / + < ) & ^ / + ) _ _ ! > [ + v { 4 ) [ + ] _ e ! + [ 6 | [ & 0 / ~ j r e { + [ 6 e [ ",
"+ { ! : i p 6 [ + ] f h # % ^ ! _ w ! h [ + | | / = ^ > b _ e ! + [ 6 v j [ 4 ) h ] n e { + / 6 d ] - = 0 6 | r 7 { 2 [ ) g ! - ",
"+ ] d a p ^ / 2 ] | 6 / # / < d ' p > / + ] 1 6 3 = { 0 } ' s > / > f f + 3 x p j ' e ! + / 6 f b > m 9 7 < _ e { + / 6 g b 2 8 ",
"+ ^ ^ p 6 / > ] f 6 3 - # / 6 { ! > / + | f + 3 - = { ( p ! + [ 6 f j + - y & p / 0 { + / 6 v ] 2 - k u < + p { 2 / c g ! / - m ",
"+ * - { [ 2 < d 6 / - z # % A B 6 / + < | 6 [ - C = 6 m [ ~ [ + g f + [ m z & { k [ + [ 6 | ] > * m = u ^ D + + [ 6 g ] / * k 4 ",
"# ; # # # # # ; # # # # E ; # # # # # # ; # # # # E ; # # # # # # ; ; 9 # # E ; # # # # # # ; # # # E F ; # # # ; 9 # # # # # # ",
"/ % % / / G 9 $ [ % / . / / % % / /   E * % % / / % / % % / % 3 ; G % / 2 / % / % % / % 8 9 % [ / / / % % % / / % m k % [ / 2 / ",
"{ + ^ < > - = @ B / a e ^ ^ + ^ | > 8 # c 5 ^ r < ^ 6 + ! 7 [ - = 6 B ^ r < { 6 + ! < t H 4 6 - f n ) { + + 0 f - k $ { B 1 ' ! ",
"[ 2 s ' ^ - = @ 3 { e > h / + ! n ^ 8 # ) [ f d > > [ + j ' / I = 6 t g ] > + [ 6 ] ' [ D 4 6 3 _ ] > + [ ~ | _ A k $ ! / ' { > ",
"+ s _ } ! + = @ n g > h [ + ] n g ! [ # f n ] > + [ h j r e { % = b a ] ~ + / h | a 7 { - 4 , n { > 2 / ^ | _ < ^ I $ ' _ { ~ 2 ",
"s d ' 0 > [ = @ g ^ > / + s } ' ! > 3 ; f g ~ > [ + ] J K ! + 3 = ] < > + / h ] _ g { + 8 4 , ] > + / 6 | _ 7 { 2 m $ } ! > 2 / ",
"_ ' ! ~ [ / 4 @ ~ > / + ] } e ! + / [ # p ^ + [ h ] L M N + / / = { ~ + / ~ f a 1 { 2 / - 4 0 > 2 / { f a 7 6 2 2 - $ ] h 2 2 ^ ",
"} 0 > [ > { C @ 6 / + ! a ' ! ~ [ > 6 # ] ^ [ + ] _ O P Q [ ^ ^ R S + [ h ] a g ^ + / ^ * 4 ] + / h v r < { 2 / s G $ 1 2 / { f ",
"! > [ > v p & @ / + ] n g ! + [ { | > # ) + h ] r e T U / ^ V W X Y Z `  ...+.@.2 / ) d 3 4 { [ { | _ < ^ 2 2 ) e 3 $ c 2 ^ : n ",
"> / > ] f + = @ > ) ' ' ! > / > | 1 [ # ) ^ ] #.$.%.+ [ 6 f &.*.*.*.*.=.=.*.=.-.;.^ v ] - 4 ! h | _ 7 { 2 / ! g ! y $ b { | _ 7 ",
"[ + 1 f + t = @ p ' e ! + / ^ | p + 3 # ] < L >.=.,./ ^ g '.).*.*.*.*.*.*.*.*.*.!.v ! / m 4 < 1 _ 7 6 2 2 ! | ! [ 8   f e _ p ^ ",
"( > ] ~ 3 I = @ ( { ! h [ > | f + 3 8 # b > ~.{.].^.^ /.&.(.*.*.*.*.*.*.*.*.*._.:.p / - m x 0 2 j { 2 / s e { / I m   ] > 0 ^ 2 ",
"~ t * 3 - C 9 / m - / 3 / { ^ / 3 - 4 # <.[.}.|.3 / ) 1.*.*.*.*.*.*.*.*.*.*.*.2.3.4.3 D 5.x / k / * * + p > 3 3 z = y + k / G t ",
"= 9 u = = 9 # = u = = = 9 & & = = = 9 6.7.8.= = u 9 4 9.*.*.*.*.*.*.*.*.*.*.*.0.a.b.= 9 u ; & 9 & = 9 9 4 = = = 9 ; 9 4 9 = u 9 ",
"3 3 > ) b { { ^ ^ { { > # G 6 6 p p { { c.d.{ { / = . e.*.*.*.*.*.*.*.*.*.f.g.*.h.i.p 0 { { 6 { ! 6   9 ^ > { b ! { ^ 6 { ! 6 3 ",
"/ 8 3 ' d 6 6 / > 0 2 m # % A 5 n d 6 ^ j.k.l.m.n.o.~ p.*.*.*.*.*.*.=.*.*.q.r.s.t.> n < 6 > 2 ^ < 5 C 9 ^ I p r { 6 + / ! p - D ",
"2 5 7 , > > / + b o p [ # / 6 | < > > [ h j u.v.w.x.y.z.A.B.*.*.*.*.=.*.*.*.C.D.E.F.! > 2 / ^ f n h 8 = ] 6 : { h 2 2 ^ d _ 2 - ",
". ! | 6 > / + c i ' s ~ # 2 _ d > > / + ] ' G.H.I.J.*.K.L.M.*.*.*.*.*.*.N.O.*.P.Q.R.> + / ~ f n 1 { - & : _ ! > 2 / ^ f a 1 ^ - ",
"/ + + > [ + ] _ e s + [ # 2 < > + / ~ j n e { + S.*.T.U.V.W.X.Y.*.*.*.*.Z.`.*. +! > 2 / ^ | _ 7 ^ 2 8 u l ! > 2 2 ^ d a p ^ / 8 ",
". [ + % + c _ i ! ~ [ + # / ^ 6 [ + p a e ! + .+++*.@+#+$+%+~ &+*.*.*.*.*+=+-+;+E.>+,+h f n 7 { 2 / - 9 p ~ 2 [ ^ f _ 7 { 2 2   ",
"/ 5 [ + ] o e ! + / 6 v ; / 6 / ~ j n e { + / '+)+!+~+{+=.]+f ^+/+*.*.*.*.(+_+T.:+<+[+f n 7 ^ 2 2 ! % 9 < 2 2 ^ d _ 0 ^ [ 2 ] / ",
"2 * 2 ! _ ' s ~ [ + f f # % + + j } e ! + / 6 | ^ 4 }+=.|+1+_ e 2+*.*.*.*.*.*.3+/ 4+5+n 7 { 2 2 ! | G 9 ) / ^ f a 1 ^ 2 2 ! | * ",
". [ 0 _ e s + [ 6 f ] + ; / ! j n e { + / 6 v ] * = 6+7+8+_ 9+0+a+*.*.*.*.*.b+c+^ f _ 1 ^ 2 2 ! g ! 8 9 ] { d _ p ^ / 2 ] v 6 y ",
"/ / : _ ! ~ / + | f + [ ; / f _ e ! + [ 6 f ] + 3 = ! ] n e d+e+f+=.*.*.*.=.g+p f n 7 { 2 / ! d ! 2 m 9 f | _ 7 { 2 2 ! e ! / 8 ",
". 3 [ ! + [ 6 v ] + - D # % * / { + / 6 d ] / - D 9 ^ 3 h+i+j+k+f+=.*.*.l+m+n+) - > ^ 2 2 ! g ! [ m 4 9 ! 3 ^ { [ 2 ] e 6 [ D C ",
"[ 3 - . 3 [ { ) / G - k # 3 - - / G / { { / 3 - C o+p+q+r+k+f+f+f+=.=.s+t+C = > k 3 [ 3 . ! 6 [ 3 m & 9 + m / [ t + ) 6 * 3 D 4 ",
"* 6 6 ) p { { ^ ^ { { > # G 6 6 ) ) { { 6 ^ { u+v+w+x+k+k+y+=.*.f+z+A+B+6 % & 6 + ^ 0 ) ^ { 6 ^ { 6   9 { > { 0 { { { 6 { { 6 3 ",
"+ / [ ' ' ^ ^ 2 6 p + - # % 3 t n d ^ { 2 6 C+D+E+x+k+k+y+f+f+=.F+G+^ < 5 8 & ! I > n 7 ^ 6 + { < t k 9 { - ] q c { + 2 ! j A m ",
"+ ^ ] : > > / + 0 ' 0 t # / > 7 7 > + [ > p H+I+J+K+k+k+f+f+y+L+M+> 7 n + 3 4 0 ( e ! > + / 6 7 a > 8 9 p > ' ! 6 2 2 ^ d i / y ",
"+ ' d 6 > / + ! } ' s h # / _ d ~ > / + p N+O+P+Q+R+k+k+k+y+y+S+> p _ d { [ 4 < _ 1 ~ > / > f a f { - 9 : _ ) > 2 / ^ 1 n f ^ - ",
"+ v 6 > [ + p _ d 0 > [ # 2 1 > + / > p a T+x+x+x+x+k+k+k+k+U+V+f _ f { 2 3 & 1 W+X+2 / ^ f _ f ^ 2 m 9 : ) > 2 / ^ d n j ^ / 8 ",
"+ { > / + ! ' _ ! 6 / + # / ^ h [ + p _ d Y+Z+x+x+k+k+k+k+k+`+ @.@d { > [ [ 4 0 +@@@/ > 7 a f { 2 / - 9 ] 6 2 [ ^ f a f ^ 2 2   ",
"+ ! / + 0 ' d ! > / 6 | ; / 6 [ > p _ d { + #@$@%@x+k+k+k+k+k+&@*@{ 2 [ ! { 4 p 2 / ^ 7 r f ^ 2 / ! [ = 1 2 2 ^ d n j ^ / 2 ] / ",
"+ ~ + ! i ' 0 6 [ + f | ; % + + p ' d s + / 6 f =@x+x+-@;@>@,@'@{ + / 6 g 6 4 ) / > f n f { 2 / ! | * & ) / ^ f n f ^ 2 2 ! v * ",
"+ ! p i d ) > [ h 7 ] + # / { 0 a d { + / 6 | < )@!@~@{@]@^@f { 2 / ! g s * x ) ^ f _ f ^ 2 2 ! g ) y u j ^ d n j ^ / / ] g ^ - ",
"+ < ' _ ! 6 / + f | > [ # / 7 _ d s + [ 6 f ] + 3 = c ] n d { > [ h g < 2 3 x p 7 a f { 2 / ! g ) 2 m 9 f f n f ^ 2 2 { e ! / 8 ",
"+ + 2 c > / 6 | < > - m # % / ( { + / 6 d < 2 - 8 = { 5 6 { 2 [ ! g s 2 8 m & ) 3 > ^ 2 / ! g ) [ 8 /@9 0 5 { ^ / 2 ] e 6 [ m k ",
"% 3 I 2 3 * ^ ) / 3 I z # 3 - - / 3 / ^ { / 3 I C u / m 3 / 3 % c { [ 3 D 4 = + C 3 [ 3 2 { 6 [ 3 D = 9 + D [ [ 3 2 c 6 G 3 k & ",
"& & = & = = # = & = = = = 4 & = & = = 6.& & = = = 9 & = & & = = # = 4 4 = = 9 & = & = = 9 ; & & & = = 9 & = & = 4 u 9 & = & = = ",
") { { ) ! > & [ ^ { 0 b { ! { { ) ! / # 6 { { p p { ! { { ) { . u + { ! p 0 { ! { { ) { 3 & ^ ^ ) p ) { { { ! ) {   8 { ^ ) p ) ",
"> / > 0 / k u @ k 5 _ 7 > + / ~ f / z # { I > r { > 2 [ ^ ] B k = > k > n ! > 2 / ^ p I 4 4 ( z 7 _ 6 h / 2 c 1 k = $ > D ] d ~ ",
"[ + p _ ! 3 = @ 2 ] 7 > + / > p n ! - # 0 > g < ~ + / > f _ + 3 = { > d ! > 2 / ^ f ' ( 8 4 ! ( ' ) > 2 2 ^ d _ * m $ 0 6 d ^ ~ ",
"> j _ d { 2 = @ n 7 ~ + / > f n 7 { * ; f _ ) > 2 / ^ f a f ^ * = ] ' ! ~ 2 2 ^ d _ ] ^ 8 4 ' i 6 > / 2 ! d ' p h 8 $ i d ^ > / ",
"p } d ! + * = @ 7 > + [ > p n d { + 3 ; f 7 > + [ > f r 1 { 2 3 = b ! > 2 / ^ 1 r f ^ 2 8 4 e ! h 2 2 ^ d a p ^ / m $ ' ~ > / 2 ",
"r d { + [ 2 4 @ 6 + / ~ 9+n f { 2 / % # 0 { 2 [ ^ f n 7 { ( 2 / = { h 2 / ^ d r p ^ / /   4 0 6 / / ! d _ j h / + - $ b 6 / + ! ",
"d ) + [ 6 ) x @ > / > p n d { + / 6 6 # b 6 / > f _ f ! 2 / ! { = { 2 / ^ f _ 1 ^ 2 2 ! * 4 0 2 2 ^ d _ j ^ / 2 j * $ < / 2 ! d ",
"{ + / 6 g c & @ / > f n 7 { 2 / c | + # ) + ^ f a f ^ 2 2 ! v + = ^ 2 ^ d _ ] ^ / 2 ] g 3 4 { 2 c d ' p h / + ] | 3 $ ) + ! } } ",
"+ [ 6 f < 2 = @ 6 p a d { + / 6 e ] t # 0 ! f r 1 ! 2 [ ! g ! * = { ^ 1 r f ^ 2 / ! g ! 8 4 0 ^ d a j ^ / 2 j d 6 8   ] ! d i p ",
"[ > v < / t = @ 7 _ f { 2 / ! d ! 2 3 # ] v a 7 { ( 2 ! d s / 3 = ) g n p ^ / / ] g 6 [ 8 4 1 g _ p 6 / + ] f 6 * 8   f ' } s 6 ",
"+ > ) + - D u @ 5 + { + / 6 v ] 2 - D # 0 / 6 ! 2 / ! g ! 2 I m = ^ t ^ ^ 2 2 ! g ! [ m C x { 3 ! ^ / 2 ] v 6 [ D C   ) * ! ~ / ",
"* - - 8 m & #   k m   8 3 / [   y m = E * m - 3 y 3 2 [ - y C & ; 3 C - - I G . t - y C & = 3 4 3 - - G . t I I & 9 k * z 3 I - ",
"6.F ; ; ; ; # ; ; ; 9 ; F # ; ; ; ; ; # ; ; ; ; ; F ; ; ; ; ; ; # ; ; ; ; # E ; ; ; ; ; 9 ; ; ; ; ; 6.F ; ; ; ; ; ; ; ; ; ; ; # "};
