/* XPM */
static char * wall_3_xpm[] = {
"64 64 271 2",
"  	c #697681",
". 	c #7A8E99",
"+ 	c #7D939C",
"@ 	c #80949F",
"# 	c #4A4B56",
"$ 	c #69757F",
"% 	c #748691",
"& 	c #545A64",
"* 	c #72858D",
"= 	c #515661",
"- 	c #65737B",
"; 	c #4C4E59",
"> 	c #7F989F",
", 	c #98B7C2",
"' 	c #99BAC5",
") 	c #88A2AC",
"! 	c #86A1AA",
"~ 	c #7F97A0",
"{ 	c #859FA9",
"] 	c #8CA9B3",
"^ 	c #829BA4",
"/ 	c #768A92",
"( 	c #799097",
"_ 	c #9CBDC8",
": 	c #98B8C3",
"< 	c #8DA9B4",
"[ 	c #74888F",
"} 	c #9BBCC7",
"| 	c #92B1BB",
"1 	c #90ACB6",
"2 	c #788D96",
"3 	c #6C7C84",
"4 	c #575D68",
"5 	c #6D8186",
"6 	c #8097A1",
"7 	c #8FACB6",
"8 	c #616D75",
"9 	c #4E535D",
"0 	c #8AA6AF",
"a 	c #9EC0CB",
"b 	c #8CA7B1",
"c 	c #88A3AB",
"d 	c #97B7C1",
"e 	c #95B4BF",
"f 	c #91AFB9",
"g 	c #95B4BE",
"h 	c #7F98A0",
"i 	c #9BBCC8",
"j 	c #8BA8B1",
"k 	c #5A646B",
"l 	c #97B8C2",
"m 	c #5E6B72",
"n 	c #9FC0CC",
"o 	c #9CBCC6",
"p 	c #8BA7B0",
"q 	c #A0C4CF",
"r 	c #A0C2CE",
"s 	c #87A2AC",
"t 	c #6F8189",
"u 	c #50545F",
"v 	c #93B2BC",
"w 	c #9BBBC6",
"x 	c #9AAEB6",
"y 	c #AEBFC5",
"z 	c #585E69",
"A 	c #BDC9CE",
"B 	c #E1E4E6",
"C 	c #636F78",
"D 	c #566166",
"E 	c #687A7F",
"F 	c #67787D",
"G 	c #586267",
"H 	c #AAB7BD",
"I 	c #BDC0C2",
"J 	c #92A395",
"K 	c #C2D29D",
"L 	c #B2C5A5",
"M 	c #5C696E",
"N 	c #454651",
"O 	c #6E6F52",
"P 	c #CBCB38",
"Q 	c #FFFF00",
"R 	c #D9D933",
"S 	c #44444F",
"T 	c #6F7F88",
"U 	c #8D9C8B",
"V 	c #D2D662",
"W 	c #E9EA42",
"X 	c #B2BA79",
"Y 	c #B4BC79",
"Z 	c #B5BE7C",
"` 	c #B5BD78",
" .	c #A1AB81",
"..	c #BFCD97",
"+.	c #ECEF51",
"@.	c #A6B391",
"#.	c #5D6770",
"$.	c #C3BBA4",
"%.	c #EBB543",
"&.	c #BA8D84",
"*.	c #B0AE9F",
"=.	c #C0D0A0",
"-.	c #F4F533",
";.	c #DEB261",
">.	c #E48D6E",
",.	c #D0BF9C",
"'.	c #627176",
").	c #A3BDB6",
"!.	c #D5DD74",
"~.	c #DFE460",
"{.	c #9FACAA",
"].	c #C5BDA6",
"^.	c #C0B7A0",
"/.	c #D4B174",
"(.	c #F6F735",
"_.	c #CBD78F",
":.	c #C5BDA5",
"<.	c #FEBE02",
"[.	c #E0E66D",
"}.	c #B4C8AB",
"|.	c #E4EC7C",
"1.	c #A39D8D",
"2.	c #E9B446",
"3.	c #E2E974",
"4.	c #A7C0B3",
"5.	c #ADBC95",
"6.	c #C6CF7D",
"7.	c #EBEF58",
"8.	c #E0E566",
"9.	c #8F938E",
"0.	c #A59981",
"a.	c #AEBD96",
"b.	c #C7CE76",
"c.	c #BAC587",
"d.	c #E4EA6F",
"e.	c #B4BE83",
"f.	c #F6F739",
"g.	c #C3CB79",
"h.	c #A39881",
"i.	c #C8AC7C",
"j.	c #8B9A8C",
"k.	c #D8DE74",
"l.	c #DFE463",
"m.	c #878B87",
"n.	c #D0D359",
"o.	c #DDE054",
"p.	c #585F67",
"q.	c #474954",
"r.	c #76785A",
"s.	c #CECE3C",
"t.	c #D7D83C",
"u.	c #A68450",
"v.	c #F4F41C",
"w.	c #DADA38",
"x.	c #B89049",
"y.	c #A3AE82",
"z.	c #EBED49",
"A.	c #DFE360",
"B.	c #B8AA8D",
"C.	c #F6F737",
"D.	c #C6D083",
"E.	c #74775C",
"F.	c #C7CF79",
"G.	c #BABE5B",
"H.	c #B6A685",
"I.	c #DDE058",
"J.	c #816667",
"K.	c #AA8B8D",
"L.	c #949655",
"M.	c #D6DD72",
"N.	c #A3B08D",
"O.	c #C1BBA6",
"P.	c #CF9494",
"Q.	c #9A9BA1",
"R.	c #ACBE9E",
"S.	c #DAE48C",
"T.	c #D6DE7C",
"U.	c #E0B76C",
"V.	c #C77B76",
"W.	c #68757D",
"X.	c #4A4750",
"Y.	c #858B93",
"Z.	c #D6B57C",
"`.	c #E59378",
" +	c #9C9AA0",
".+	c #667279",
"++	c #4E0808",
"@+	c #7A0A0A",
"#+	c #CE1E14",
"$+	c #FF520C",
"%+	c #FF7802",
"&+	c #F7834A",
"*+	c #CB9596",
"=+	c #78868F",
"-+	c #EC6F5D",
";+	c #A2868D",
">+	c #A68285",
",+	c #798A92",
"'+	c #51373E",
")+	c #7C4D52",
"!+	c #F65B34",
"~+	c #C27671",
"{+	c #838E98",
"]+	c #7C5B61",
"^+	c #C25C5F",
"/+	c #EB6147",
"(+	c #7A9299",
"_+	c #B0A1AB",
":+	c #C63938",
"<+	c #7C5A60",
"[+	c #7C8A92",
"}+	c #7D7E84",
"|+	c #7E6368",
"1+	c #72737A",
"2+	c #794448",
"3+	c #7F6369",
"4+	c #84878F",
"5+	c #7E6168",
"6+	c #8FA9B3",
"7+	c #61555A",
"8+	c #7B4B50",
"9+	c #717E86",
"0+	c #7D8086",
"a+	c #625C60",
"b+	c #7F8F99",
"c+	c #7B646A",
"d+	c #7E5358",
"e+	c #90AAB3",
"f+	c #7C838B",
"g+	c #794247",
"h+	c #6A6A70",
"i+	c #7D7F85",
"j+	c #7E6167",
"k+	c #898F97",
"l+	c #79555B",
"m+	c #929EA8",
"n+	c #5D5257",
"o+	c #99B4BF",
"p+	c #85787F",
"q+	c #7A2F32",
"r+	c #727C83",
"s+	c #8E99A1",
"t+	c #7C5D62",
"u+	c #7F6C73",
"v+	c #80575C",
"w+	c #7D919A",
"x+	c #576168",
"y+	c #6F6F76",
"z+	c #792E32",
"A+	c #7F6469",
"B+	c #7E5F65",
"C+	c #65686D",
"D+	c #585660",
"E+	c #6B3D44",
"F+	c #771C1F",
"G+	c #65424A",
"H+	c #8498A1",
"I+	c #7F6B72",
"J+	c #646066",
"K+	c #78858E",
"L+	c #77666B",
"M+	c #7D5D62",
"N+	c #67656B",
"O+	c #5D5C60",
"P+	c #777A81",
"Q+	c #7D747A",
"R+	c #8FA6AF",
"S+	c #96AAB4",
"T+	c #98ACB6",
"U+	c #86828A",
"V+	c #8FADB8",
"  . + @ + + + + + + + + # $ @ + + + + + + + + + % & * + + + + + + + + + @ * = % + + + + + + + + + + - ; . + + + + + @ + + + + - ",
"+ > + , ' ) ! ~ { ] ^ * # % / ( _ : ! ) > { < { * & ^ [ { } | { { ~ ! 1 2 3 4 ) 5 ^ _ | ! ! 6 ! 7 ( 8 9 0 * < a b c ^ > 0 < % - ",
"+ + ^ _ 6 > / 2 ! d ^ - # % / ^ e ^ > / + ! : { - = 6 5 f g h > / + ] i [ 8 & ) 5 < < > > / ~ j } / k 9 ! * d < > + / ~ f l 3 m ",
"+ d _ ^ 6 2 2 ^ : a 0 ^ # / } n > ~ / 2 ! d o 0 2 = ) ' d 6 > [ + ! _ i ! / 4 < _ d > 6 / + j a g ! - 9 d _ < > + [ ~ p q g {   ",
"+ ' 6 6 [ 2 ! ' i p > [ # . d > h / + ! a ' ! h 3 = ] d > > [ + j _ e ! + 3 & f ] > + [ ~ b n e { + m 9 _ ] > + [ h | r 7 { 2 8 ",
"+ ) > 2 2 ^ d a p ^ / 2 # / { ~ / 2 s d ' j > / [ = { 6 > / + c _ ' s > [ t 4 p > > / + ] ' e ! + / - 9 7 6 + / ~ j _ e { + / - ",
"+ ! / 2 ! d ' 0 6 / > < ; / ^ / + ! ' ' ! > / > { 4 { h [ + ] ' e ! + / 6 6 4 p + / ~ ] n e { + / 6 * u < + / ~ f _ 7 { 2 / ! [ ",
"+ ~ 2 ^ : a 0 ^ [ 2 ] d ; % + / ! d ' 0 h / + < ) & ^ / + ) _ _ ! > [ + v { 4 ) [ + ] _ e ! + [ 6 | [ & 0 / ~ j r e { + [ 6 e [ ",
"+ { ! : i p 6 [ + ] f h # % ^ ! _ w ! h [ + | | / = ^ > b _ e ! + [ 6 v j [ 4 ) h ] n e { + / 6 d ] - = 0 6 | r 7 { 2 [ ) g ! - ",
"+ ] d a p ^ / 2 ] | 6 / # / < d ' p > / + ] 1 6 3 = x y } ' s > / > f f + 3 z p j ' e ! + / 6 f b > m 9 7 < _ e { + / 6 g b 2 8 ",
"+ ^ ^ p 6 / > ] f 6 3 - # / 6 { ! > / + | f + 3 - = A B p ! + [ 6 f j + - C & p / 0 { + / 6 v ] 2 - k u < + p { 2 / c g ! / - m ",
"+ * - { [ 2 < d 6 / - D # % E F 6 / + < | 6 [ - G = H I [ ~ [ J K L + [ m D & { k [ + [ 6 | ] > * m = u ^ M + + [ 6 g ] / * k 4 ",
"# ; # # # # # ; # # # # N ; # # # # # # ; # # # # N ; # # # O P Q R ; 9 # # N ; # # # # # # ; # # # N S ; # # # ; 9 # # # # # # ",
"/ % % / / T 9 $ [ % / . / / % % / /   N * % % / / % / % % U V Q Q W X Y Z `  ./ % % / % 8 9 % [ / / / % % % / / % m k % [ / 2 / ",
"{ + ^ < > - = @ F / a e ^ ^ + ^ | > 8 # c 5 ^ r < ^ 6 + ! ..Q Q Q Q Q Q Q Q +.@.+ ! < t #.4 6 - f n ) { + + 0 f - k $ { F 1 ' ! ",
"[ 2 s ' ^ - = @ 3 { e > h / + ! n ^ 8 # ) [ f d > > [ + j $.Q Q Q Q Q Q Q Q Q %.&.*.' [ M 4 6 3 _ ] > + [ ~ | _ E k $ ! / ' { > ",
"+ s _ } ! + = @ n g > h [ + ] n g ! [ # f n ] > + [ h j r =.Q Q Q Q Q Q Q Q -.;.>.,.7 { - 4 , n { > 2 / ^ | _ < ^ '.$ ' _ { ~ 2 ",
"s d ' 0 > [ = @ g ^ > / + s } ' ! > 3 ; f g ~ > [ + ] _ ).!.Q Q Q Q Q Q Q Q ~.] _ g { + 8 4 , ] > + / 6 | _ 7 { 2 m $ } ! > 2 / ",
"_ ' ! ~ [ / 4 @ ~ > / + ] } e ! + / [ # p ^ + [ h {.].^./.Q Q Q Q Q Q Q Q (._.a 1 { 2 / - 4 0 > 2 / { f a 7 6 2 2 - $ ] h 2 2 ^ ",
"} 0 > [ > { G @ 6 / + ! a ' ! ~ [ > 6 # ] ^ [ + ] :.<.<.<.Q Q Q Q Q Q Q Q [.a g ^ + / ^ * 4 ] + / h v r < { 2 / s T $ 1 2 / { f ",
"! > [ > v p & @ / + ] n g ! + [ { | > # ) + h ] r }.+.<.Q Q Q Q Q Q Q Q Q |.1 ^ 2 / ) d 3 4 { [ { | _ < ^ 2 2 ) e 3 $ c 2 ^ : n ",
"> / > ] f + = @ > ) ' ' ! > / > | 1 [ # ) ^ ] _ e ! 1.2.Q Q Q Q Q Q Q Q Q 3.{ + / ^ v ] - 4 ! h | _ 7 { 2 / ! g ! C $ b { | _ 7 ",
"[ + 1 f + t = @ p ' e ! + / ^ | p + 3 # ] < _ 4.5.+ U 6.3.7.Q Q Q Q Q Q Q 8.9.0.! v ! / m 4 < 1 _ 7 6 2 2 ! | ! [ 8   f e _ p ^ ",
"( > ] ~ 3 '.= @ ( { ! h [ > | f + 3 8 # b > ) a.b./ c.d.p e.Q Q Q Q Q Q f.g.h.i.e p / - m z 0 2 j { 2 / s e { / '.m   ] > 0 ^ 2 ",
"~ t * 3 - G 9 / m - / 3 / { ^ / 3 - 4 # 6 - t / 3 j.k.l.m.n.Q Q Q Q Q Q o.3 + 0 > * 3 M p.z / k / * * + p > 3 3 D = C + k / T t ",
"= 9 u = = 9 # = u = = = 9 & & = = = 9 q.4 = = = r.s.Q t.u.<.Q Q Q Q v.w.x.u 9 4 = = = 9 u ; & 9 & = 9 9 4 = = = 9 ; 9 4 9 = u 9 ",
"3 3 > ) b { { ^ ^ { { > # T 6 6 p p { { 6 ^ { { y.w.z.A.B.<.Q Q Q C.D.{ 6 % & ~ + { p 0 { { 6 { ! 6   9 ^ > { b ! { ^ 6 { ! 6 3 ",
"/ 8 3 ' d 6 6 / > 0 2 m # % E 5 n d 6 ^ / > j + 8 E.F.G.H.<.Q Q Q I.^ < 3 m & { J.K.n < 6 > 2 ^ < 5 G 9 ^ '.p r { 6 + / ! p - M ",
"2 5 7 , > > / + b o p [ # / 6 | < > > [ h j a p 3 L.M.N.O.Q Q Q Q ;.f r > 3 4 0 K.P.Q.K.2 / ^ f n h 8 = ] 6 : { h 2 2 ^ d _ 2 - ",
". ! | 6 > / + c i ' s ~ # 2 _ d > > / + ] ' e ! / = R.S.T.Q Q Q <.U._ e { [ & < _ < K.V./ ~ f n 1 { - & : _ ! > 2 / ^ f a 1 ^ - ",
"/ + + > [ + ] _ e s + [ # 2 < > + / ~ j n e { + W.X.Y.Z.<.<.Q Q <.`.7 { 2 3 z 1  +K.2 / ^ | _ 7 ^ 2 8 u l ! > 2 2 ^ d a p ^ / 8 ",
". [ + % + c _ i ! ~ [ + # / ^ 6 [ + p a e ! + [ .+++@+#+$+%+<.<.&+*+{ + / [ G ) K.V./ h f n 7 { 2 / - 9 p ~ 2 [ ^ f _ 7 { 2 2   ",
"/ 5 [ + ] o e ! + / 6 v ; / 6 / ~ j n e { + / 6 =+++@+#+$+%+<.%+-+;+>+/ c { 4 p 2 / ^ f n 7 ^ 2 2 ! % 9 < 2 2 ^ d _ 0 ^ [ 2 ] / ",
"2 * 2 ! _ ' s ~ [ + f f # % + + j } e ! + / 6 | ,+'+)+#+$+%+<.%+$+!+~+6 g 6 4 ) / ~ f n 7 { 2 2 ! | T 9 ) / ^ f a 1 ^ 2 2 ! | * ",
". [ 0 _ e s + [ 6 f ] + ; / ! j n e { + / 6 v ] * = {+]+^+$+$+#+#+/+(+g ! t & 0 ^ f _ 1 ^ 2 2 ! g ! 8 9 ] { d _ p ^ / 2 ] v 6 C ",
"/ / : _ ! ~ / + | f + [ ; / f _ e ! + [ 6 f ] + 3 = ! ] _+#+#+#+:+<+[+b 2 3 & p f n 7 { 2 / ! d ! 2 m 9 f | _ 7 { 2 2 ! e ! / 8 ",
". 3 [ ! + [ 6 v ] + - M # % * / { + / 6 d ] / - M 9 ^ 3 }+@+#+#+|+g ! 2 m k & ) - > ^ 2 2 ! g ! [ m 4 9 ! 3 ^ { [ 2 ] e 6 [ M G ",
"[ 3 - . 3 [ { ) / T - k # 3 - - / T / { { / 3 - G 9 2 8 1+2+@+@+3+{ [ 3 m G = > k 3 [ 3 . ! 6 [ 3 m & 9 + m / [ t + ) 6 * 3 M 4 ",
"* 6 6 ) p { { ^ ^ { { > # T 6 6 ) ) { { 6 ^ { { 2 4 + > { 4+@+@+5+^ ^ { 6 % & 6 + ^ 0 ) ^ { 6 ^ { 6   9 { > { 0 { { { 6 { { 6 3 ",
"+ / [ ' ' ^ ^ 2 6 p + - # % 3 t n d ^ { 2 6 ] > - = 6 - > 6+7+@+8+9+^ < 5 8 & ! '.> n 7 ^ 6 + { < t k 9 { - ] q c { + 2 ! j E m ",
"+ ^ ] : > > / + 0 ' 0 t # / > 7 7 > + [ > p _ 0 3 = { 2 : 1 0+@+@+a+7 n + 3 4 0 ( e ! > + / 6 7 a > 8 9 p > ' ! 6 2 2 ^ d i / C ",
"+ ' d 6 > / + ! } ' s h # / _ d ~ > / + p ' d ! / = p i 7 b+c+@+@+d+e+d { [ 4 < _ 1 ~ > / > f a f { - 9 : _ ) > 2 / ^ 1 n f ^ - ",
"+ v 6 > [ + p _ d 0 > [ # 2 1 > + / > p a d { + 3 = p 7 > f+g+@+@+@+h+{ 2 3 & 1 ! ~ 2 / ^ f _ f ^ 2 m 9 : ) > 2 / ^ d n j ^ / 8 ",
"+ { > / + ! ' _ ! 6 / + # / ^ h [ + p _ d ) + [ % = { > > / i+@+@+@+j+> [ [ 4 0 > + / > 7 a f { 2 / - 9 ] 6 2 [ ^ f a f ^ 2 2   ",
"+ ! / + 0 ' d ! > / 6 | ; / 6 [ > p _ d { + / 6 ) 4 { > [ @ k+@+@+@+l+[ ! { 4 p 2 / ^ 7 r f ^ 2 / ! [ = 1 2 2 ^ d n j ^ / 2 ] / ",
"+ ~ + ! i ' 0 6 [ + f | ; % + + p ' d s + / 6 f { & ^ / > ] m+@+@+@+n+6 g 6 4 ) / > f n f { 2 / ! | * & ) / ^ f n f ^ 2 2 ! v * ",
"+ ! p i d ) > [ h 7 ] + # / { 0 a d { + / 6 | < [ = { 6 1 o+p+@+@+q+r+g s * z ) ^ f _ f ^ 2 2 ! g ) C u j ^ d n j ^ / / ] g ^ - ",
"+ < ' _ ! 6 / + f | > [ # / 7 _ d s + [ 6 f ] + 3 = c ] n s+@+@+@+t+g < 2 3 z p 7 a f { 2 / ! g ) 2 m 9 f f n f ^ 2 2 { e ! / 8 ",
"+ + 2 c > / 6 | < > - m # % / ( { + / 6 d < 2 - 8 = { 5 b+u+@+@+@+v+w+2 8 m & ) 3 > ^ 2 / ! g ) [ 8 x+9 0 5 { ^ / 2 ] e 6 [ m k ",
"% 3 '.2 3 * ^ ) / 3 '.D # 3 - - / 3 / ^ { / 3 '.G u / m y+2+@+z+A+B+C+3 M 4 = + G 3 [ 3 2 { 6 [ 3 M = 9 + M [ [ 3 2 c 6 T 3 k & ",
"& & = & = = # = & = = = = 4 & = & = = q.& & = = = 9 & = D+E+F+G+# = 4 4 = = 9 & = & = = 9 ; & & & = = 9 & = & = 4 u 9 & = & = = ",
") { { ) ! > & [ ^ { 0 b { ! { { ) ! / # 6 { { p p { ! H+I+@+J+. u + { ! p 0 { ! { { ) { 3 & ^ ^ ) p ) { { { ! ) {   8 { ^ ) p ) ",
"> / > 0 / k u @ k 5 _ 7 > + / ~ f / D # { '.> r { > K+L+M+N+O+k = > k > n ! > 2 / ^ p '.4 4 ( D 7 _ 6 h / 2 c 1 k = $ > M ] d ~ ",
"[ + p _ ! 3 = @ 2 ] 7 > + / > p n ! - # 0 > g < ~ + P+Q+f _ + 3 = { > d ! > 2 / ^ f ' ( 8 4 ! ( ' ) > 2 2 ^ d _ * m $ 0 6 d ^ ~ ",
"> j _ d { 2 = @ n 7 ~ + / > f n 7 { * ; f _ ) > 2 / ^ R+S+f ^ * = ] ' ! ~ 2 2 ^ d _ ] ^ 8 4 ' i 6 > / 2 ! d ' p h 8 $ i d ^ > / ",
"p } d ! + * = @ 7 > + [ > p n d { + 3 ; f 7 > + [ > f T+U+{ 2 3 = b ! > 2 / ^ 1 r f ^ 2 8 4 e ! h 2 2 ^ d a p ^ / m $ ' ~ > / 2 ",
"r d { + [ 2 4 @ 6 + / ~ V+n f { 2 / % # 0 { 2 [ ^ f n 7 { ( 2 / = { h 2 / ^ d r p ^ / /   4 0 6 / / ! d _ j h / + - $ b 6 / + ! ",
"d ) + [ 6 ) z @ > / > p n d { + / 6 6 # b 6 / > f _ f ! 2 / ! { = { 2 / ^ f _ 1 ^ 2 2 ! * 4 0 2 2 ^ d _ j ^ / 2 j * $ < / 2 ! d ",
"{ + / 6 g c & @ / > f n 7 { 2 / c | + # ) + ^ f a f ^ 2 2 ! v + = ^ 2 ^ d _ ] ^ / 2 ] g 3 4 { 2 c d ' p h / + ] | 3 $ ) + ! } } ",
"+ [ 6 f < 2 = @ 6 p a d { + / 6 e ] t # 0 ! f r 1 ! 2 [ ! g ! * = { ^ 1 r f ^ 2 / ! g ! 8 4 0 ^ d a j ^ / 2 j d 6 8   ] ! d i p ",
"[ > v < / t = @ 7 _ f { 2 / ! d ! 2 3 # ] v a 7 { ( 2 ! d s / 3 = ) g n p ^ / / ] g 6 [ 8 4 1 g _ p 6 / + ] f 6 * 8   f ' } s 6 ",
"+ > ) + - M u @ 5 + { + / 6 v ] 2 - M # 0 / 6 ! 2 / ! g ! 2 '.m = ^ t ^ ^ 2 2 ! g ! [ m G z { 3 ! ^ / 2 ] v 6 [ M G   ) * ! ~ / ",
"* - - 8 m & #   k m   8 3 / [   C m = N * m - 3 C 3 2 [ - C G & ; 3 G - - '.T . t - C G & = 3 4 3 - - T . t '.'.& 9 k * D 3 '.- ",
"q.S ; ; ; ; # ; ; ; 9 ; S # ; ; ; ; ; # ; ; ; ; ; S ; ; ; ; ; ; # ; ; ; ; # N ; ; ; ; ; 9 ; ; ; ; ; q.S ; ; ; ; ; ; ; ; ; ; ; # "};
